<?xml version="1.0" encoding="UTF-8"?><svg id="Layer_1" xmlns="http://www.w3.org/2000/svg" width="86" height="84" viewBox="0 0 86 84"><defs><style>.cls-1{fill:none;stroke:#809671;stroke-miterlimit:10;stroke-width:1.59px;}.cls-2{fill:#809671;stroke-width:0px;}</style></defs><path class="cls-2" d="m41,3c20.95,0,38,17.05,38,38s-17.05,38-38,38S3,61.95,3,41,20.05,3,41,3m0-2C18.91,1,1,18.91,1,41s17.91,40,40,40,40-17.91,40-40S63.09,1,41,1h0Z"/><path class="cls-1" d="m63.94,54.55c-.6.6-1.28.78-1.56.85-13.93,0-27.86,0-41.79,0-.3-.07-.94-.28-1.53-.85-.53-.51-.75-1.08-.85-1.36,0-8.13,0-16.27,0-24.4.1-.29.32-.84.85-1.33.7-.66,1.5-.81,1.8-.85,13.78,0,27.56,0,41.34,0,.25.03,1.05.16,1.74.85.67.67.81,1.44.85,1.69,0,7.98,0,15.97,0,23.95-.08.28-.28.9-.85,1.45Z"/><path class="cls-1" d="m19.91,27.45c10.08,8.17,17.61,14.02,19.48,15.24.52.34,1.41.85,2.54.85s2.02-.51,2.54-.85c1.87-1.22,9.39-7.07,19.48-15.24"/><path class="cls-1" d="m19.06,54.55c6.21-4.52,12.42-9.03,18.63-13.55"/><path class="cls-1" d="m47,41c5.64,4.23,11.29,8.47,16.93,12.7"/></svg>