<?xml version="1.0" encoding="UTF-8"?><svg id="Layer_1" xmlns="http://www.w3.org/2000/svg" width="86" height="84" viewBox="0 0 86 84"><defs><style>.cls-1{fill:none;stroke:#809671;stroke-miterlimit:10;stroke-width:2px;}.cls-2{fill:#809671;stroke-width:0px;}</style></defs><path class="cls-2" d="m41,3c20.95,0,38,17.05,38,38s-17.05,38-38,38S3,61.95,3,41,20.05,3,41,3m0-2C18.91,1,1,18.91,1,41s17.91,40,40,40,40-17.91,40-40S63.09,1,41,1h0Z"/><path class="cls-1" d="m35,79c-.33-10.33-.67-20.67-1-31h-10v-9h10v-16c0-.5.03-3,2-5,1.55-1.57,3.38-1.91,4-2h14v9h-6c-.17-.02-1.77-.23-3,1s-1.02,2.83-1,3v10h10l-3,9h-7c.33,10.33.67,20.67,1,31"/></svg>