<?xml version="1.0" encoding="UTF-8"?><svg id="Layer_1" xmlns="http://www.w3.org/2000/svg" width="86" height="84" viewBox="0 0 86 84"><defs><style>.cls-1{fill:none;stroke:#809671;stroke-miterlimit:10;stroke-width:2px;}.cls-2{fill:#809671;stroke-width:0px;}</style></defs><path class="cls-2" d="m41,3c20.95,0,38,17.05,38,38s-17.05,38-38,38S3,61.95,3,41,20.05,3,41,3m0-2C18.91,1,1,18.91,1,41s17.91,40,40,40,40-17.91,40-40S63.09,1,41,1h0Z"/><path class="cls-1" d="m12.93,54.5c-.05-.12-.65-1.74.35-3.11.66-.91,1.63-1.15,1.9-1.21.29-.16,1.03-.52,1.9-.35.71.14,1.21.57,1.56.86.33.29.55.55.63.65,1.75,2.19,3.09,5.23,4.9,7.99.04.06.2.26.35.56.16.32.48.96.34,1.69-.1.54-.4.88-.69,1.21-.32.37-.68.59-1.38,1.04-.71.45-1.07.67-1.56.86-.72.29-1.31.53-1.9.35-.7-.21-1.06-.92-1.21-1.21-.75-1.46-2.65-4.8-5.19-9.34Z"/><path class="cls-1" d="m19.5,51.04c.81-.62,2-1.59,3.28-2.94,1.34-1.4,1.69-2.06,2.77-2.94.15-.13,1.88-1.5,4.15-2.07,4.16-1.04,7.83,1.2,8.64,1.73.29.12.58.23.86.35.39-.02,6.29-.33,8.47,0,.25.04.69.12,1.21.35.59.26,1.45.63,1.9,1.56.31.63.5,1.67,0,2.42-.36.54-.99.82-2.94,1.04-1.85.21-2.72.13-4.49.17-2.57.06-3.89.09-5.36.69-1.27.52-2.19,1.22-2.77,1.73"/><path class="cls-1" d="m24.85,59.51c.69-.28,1.7-.63,2.94-.86.49-.09,2.64-.47,5.7,0,.18.03.19.03,5.7,1.38,1.03.25,1.83.44,2.94.52.68.05,1.84.12,3.28-.17,1.49-.3,2.41-.83,3.8-1.56,3.51-1.84,3.29-1.43,5.36-2.59,4.19-2.36,3.24-3.03,8.13-6.22.18-.12,3.04-1.98,4.49-4.32.36-.57.71-1.3.52-2.07-.19-.8-.85-1.25-1.04-1.38-.8-.56-1.67-.54-2.07-.52-.36.01-1.42.1-3.46,1.56-1.2.85-1.18,1.07-3.46,2.94-1.11.91-1.58,1.25-2.25,1.56-1.02.47-1.95.63-2.59.69"/><path class="cls-1" d="m45.95,37.56c4.42-3.36,7.72-6.54,10.03-8.99,2.31-2.45,3.64-4.18,3.8-6.57.2-3.03-1.6-5.21-1.73-5.36-1.57-1.84-3.57-2.3-4.15-2.42-1.93-.41-4.94-.26-6.4,1.56-.93,1.17-.88,2.59-1.38,2.59-.49,0-.55-1.3-1.38-2.42-1.37-1.84-4.33-2.5-6.74-1.95-2.86.66-4.3,2.88-4.67,3.5-1.13,1.9-1.12,3.77-1.04,4.67.16,1.72.87,3.08,1.73,4.32,3.4,4.91,10.6,10.11,11.93,11.06Z"/></svg>