<?xml version="1.0" encoding="UTF-8"?><svg id="Layer_1" xmlns="http://www.w3.org/2000/svg" width="86" height="84" viewBox="0 0 86 84"><defs><style>.cls-1{fill:none;stroke:#809671;stroke-miterlimit:10;stroke-width:1.51px;}.cls-2{fill:#809671;stroke-width:0px;}</style></defs><path class="cls-2" d="m41,3c20.95,0,38,17.05,38,38s-17.05,38-38,38S3,61.95,3,41,20.05,3,41,3m0-2C18.91,1,1,18.91,1,41s17.91,40,40,40,40-17.91,40-40S63.09,1,41,1h0Z"/><path class="cls-1" d="m56.85,35.34c.26,5.01-2.54,9.81-4.53,13.21-1.22,2.08-2.6,3.93-5.28,7.55-2.14,2.88-3.99,5.2-5.28,6.79-1.76-1.79-4.15-4.33-6.79-7.55-2.73-3.32-4.42-5.36-6.04-8.3-1.72-3.12-3.69-6.68-3.77-10.56-.15-6.98,5.74-17.14,15.47-17.36,9.55-.21,15.86,9.31,16.22,16.22Z"/><circle class="cls-1" cx="41.38" cy="34.59" r="7.17"/></svg>