<svg width="349" height="44" viewBox="0 0 349 44" fill="none" xmlns="http://www.w3.org/2000/svg">
<g clip-path="url(#clip0_0_3)">
<path d="M106.198 19.9915C106.198 19.9915 106.848 22.7243 106.994 23.2973H104.138C104.42 22.6435 105.506 20.1017 105.506 20.1017C105.489 20.1238 105.788 19.4332 105.959 19.0072L106.198 19.9915ZM115.254 8.87688V34.7352C115.254 36.6819 113.415 38.2613 111.149 38.2613H70.1045C67.8385 38.2613 66 36.6819 66 34.7352V8.87688C66 6.93017 67.8385 5.35075 70.1045 5.35075H111.149C113.415 5.35075 115.254 6.93017 115.254 8.87688ZM79.0403 27.3303L84.4446 15.9291H80.8104L77.4498 23.716L77.0821 22.1366L75.885 16.8915C75.6883 16.1642 75.0812 15.9585 74.3287 15.9291H68.7962L68.7363 16.1569C70.0874 16.4507 71.2931 16.8768 72.3449 17.4131L75.4061 27.3303H79.0403ZM87.1125 27.345L89.2673 15.9291H85.8298L83.6835 27.345H87.1125ZM99.0754 23.6132C99.0925 22.3129 98.1689 21.3212 96.1937 20.5058C94.988 19.9842 94.2526 19.6316 94.2526 19.0953C94.2697 18.6105 94.8768 18.1109 96.2279 18.1109C97.348 18.0889 98.1689 18.3166 98.7846 18.5444L99.0925 18.6692L99.5628 16.2009C98.8872 15.9732 97.8098 15.7161 96.4844 15.7161C93.0896 15.7161 90.7039 17.2735 90.6868 19.492C90.6611 21.1302 92.397 22.0411 93.6968 22.5921C95.0222 23.1504 95.4754 23.5177 95.4754 24.0099C95.4583 24.7739 94.3979 25.1265 93.4146 25.1265C92.0464 25.1265 91.311 24.9428 90.1908 24.5167L89.7376 24.3331L89.2588 26.8969C90.0626 27.2128 91.5505 27.4919 93.0896 27.5066C96.6982 27.514 99.0497 25.9786 99.0754 23.6132ZM111.149 27.345L108.379 15.9291H105.719C104.899 15.9291 104.274 16.1348 103.924 16.8768L98.8188 27.345H102.427C102.427 27.345 103.017 25.9345 103.146 25.6333H107.558C107.661 26.0374 107.968 27.345 107.968 27.345H111.149Z" fill="#809671"/>
</g>
<path d="M30.8479 9C28.2089 8.99864 25.6132 9.54636 23.3076 10.5911C21.0021 9.54636 18.4064 8.99864 15.7673 9C11.5856 9 7.5751 10.3514 4.61815 12.7569C1.6612 15.1625 0 18.4251 0 21.827C0 25.2289 1.6612 28.4915 4.61815 30.8971C7.5751 33.3026 11.5856 34.654 15.7673 34.654C18.4064 34.6554 21.0021 34.1076 23.3076 33.0629C25.6132 34.1076 28.2089 34.6554 30.8479 34.654C35.0297 34.654 39.0402 33.3026 41.9971 30.8971C44.9541 28.4915 46.6153 25.2289 46.6153 21.827C46.6153 18.4251 44.9541 15.1625 41.9971 12.7569C39.0402 10.3514 35.0297 9 30.8479 9ZM15.7673 32.7666C12.2009 32.7666 8.78055 31.614 6.2587 29.5624C3.73685 27.5109 2.32009 24.7284 2.32009 21.827C2.32009 18.9256 3.73685 16.1431 6.2587 14.0916C8.78055 12.04 12.2009 10.8874 15.7673 10.8874C17.6049 10.8874 19.4215 11.2008 21.0989 11.8066C19.254 13.0101 17.765 14.5353 16.7418 16.2697C15.7187 18.004 15.1875 19.9032 15.1875 21.827C15.1875 23.7508 15.7187 25.65 16.7418 27.3843C17.765 29.1187 19.254 30.6439 21.0989 31.8474C19.42 32.4529 17.6039 32.766 15.7673 32.7666ZM23.3076 30.8414C21.5168 29.8324 20.0535 28.4852 19.0433 26.9151C18.0331 25.3451 17.506 23.5991 17.5074 21.827C17.5057 20.0546 18.0325 18.3082 19.0427 16.7378C20.053 15.1674 21.5165 13.8199 23.3076 12.8107C25.098 13.8206 26.5609 15.1683 27.5713 16.7385C28.5817 18.3087 29.1095 20.0547 29.1095 21.827C29.1095 23.5993 28.5817 25.3453 27.5713 26.9155C26.5609 28.4857 25.098 29.8334 23.3076 30.8433V30.8414ZM30.8479 32.7666C29.0114 32.766 27.1953 32.4529 25.5164 31.8474C27.3613 30.6439 28.8503 29.1187 29.8734 27.3843C30.8966 25.65 31.4278 23.7508 31.4278 21.827C31.4278 19.9032 30.8966 18.004 29.8734 16.2697C28.8503 14.5353 27.3613 13.0101 25.5164 11.8066C27.1953 11.2011 29.0114 10.888 30.8479 10.8874C34.4144 10.8874 37.8347 12.04 40.3566 14.0916C42.8784 16.1431 44.2952 18.9256 44.2952 21.827C44.2952 24.7284 42.8784 27.5109 40.3566 29.5624C37.8347 31.614 34.4144 32.7666 30.8479 32.7666Z" fill="#809671"/>
<path d="M138.931 5.00005C137.313 5.00005 136 6.09462 136 7.44515V35.555C136 36.9052 137.313 38 138.931 38H196.069C197.687 38 199 36.9054 199 35.5549V7.4451C199 6.09478 197.687 5 196.069 5H138.931L138.931 5.00005ZM156.658 8.97234C160.254 8.97234 163.557 10.0159 166.149 11.759C163.968 13.3869 162.341 15.5256 161.539 17.9498H162.797C163.538 15.9499 164.883 14.1694 166.657 12.7574C168.431 14.1694 169.777 15.9499 170.518 17.9498H171.796C170.982 15.5384 169.353 13.4124 167.173 11.7952C169.771 10.0299 173.086 8.97229 176.698 8.97229C185.032 8.97229 191.788 14.6081 191.788 21.5608C191.788 28.5134 185.032 34.1493 176.698 34.1493C173.026 34.1493 169.66 33.0562 167.043 31.2377C169.384 29.5394 171.109 27.2627 171.898 24.6726H170.668C169.967 26.8465 168.557 28.78 166.657 30.2919C164.758 28.78 163.35 26.8465 162.649 24.6726H161.477C162.271 27.2252 163.974 29.47 166.279 31.1524C163.668 32.9483 160.314 34.0277 156.658 34.0277C148.324 34.0277 141.568 28.419 141.568 21.5C141.568 14.5811 148.324 8.97234 156.658 8.97234ZM175.566 17.8217C173.753 17.8217 171.989 19.1439 171.989 21.6265C171.989 23.2727 172.942 24.3589 174.816 24.3589C175.346 24.3591 176.19 24.1783 176.19 24.1783L176.47 22.7398C176.47 22.7398 175.699 23.065 175.17 23.065C174.056 23.065 173.609 22.3502 173.609 21.5822C173.609 20.024 174.568 19.1665 175.635 19.1665C176.435 19.1665 177.078 19.5443 177.078 19.5443L177.334 18.1452C177.334 18.1452 176.382 17.8217 175.566 17.8217ZM190.81 17.9432L189.233 17.9465L188.894 19.6773C188.894 19.6773 188.302 19.0056 187.374 19.0056C185.933 19.0056 184.732 20.4339 184.732 22.0764C184.732 23.1367 185.371 24.1766 186.681 24.1766C187.624 24.1766 188.146 23.6365 188.146 23.6365L188.077 24.0978H189.609L190.81 17.9432ZM145.643 17.9613L144.387 24.1307H145.901L146.858 19.4786L146.999 24.1307H148.082L150.102 19.4786L149.206 24.1307H150.815L152.055 17.9613H149.567L148.017 21.7463L147.937 17.9613H145.643L145.643 17.9613ZM161.46 18.3619C161.426 18.3906 160.544 22.6292 160.544 23.1454C160.544 23.9098 161.058 24.2512 161.781 24.2456C162.299 24.242 162.7 24.1335 162.885 24.088C162.905 24.0836 162.942 24.0749 162.942 24.0749L163.137 22.9714C163.031 22.9714 162.875 23.0091 162.738 23.0091C162.198 23.0091 162.138 22.7697 162.173 22.592L162.608 20.3407H163.429L163.627 19.1206H162.854L163.011 18.3619H161.46ZM179.759 18.9827C178.703 18.9827 177.893 19.2733 177.893 19.2733L177.669 20.4064C177.669 20.4064 178.337 20.1748 179.348 20.1748C179.922 20.1748 180.342 20.2296 180.342 20.6281C180.342 20.8701 180.291 20.9598 180.291 20.9598C180.291 20.9598 179.837 20.9269 179.627 20.9269C178.295 20.9269 176.895 21.4141 176.895 22.8794C176.895 24.034 177.814 24.2982 178.383 24.2982C179.47 24.2982 179.939 23.6957 179.964 23.6939L179.913 24.1964H181.269L181.876 20.5706C181.876 19.0321 180.305 18.9826 179.759 18.9826V18.9827ZM154.313 18.9892C153.253 18.9892 152.439 19.2799 152.439 19.2799L152.215 20.413C152.215 20.413 152.886 20.1814 153.9 20.1814C154.476 20.1814 154.898 20.2364 154.898 20.6346C154.898 20.8765 154.847 20.9664 154.847 20.9664C154.847 20.9664 154.392 20.9335 154.181 20.9335C152.844 20.9335 151.439 21.4198 151.439 22.8843C151.439 24.0383 152.36 24.3031 152.931 24.3031C154.022 24.3031 154.493 23.7006 154.518 23.6988L154.467 24.2013H155.829L156.438 20.5772C156.438 19.0396 154.861 18.9892 154.313 18.9892V18.9892ZM159.125 18.9892C157.986 18.9892 156.829 19.3727 156.829 20.6823C156.829 22.1661 158.757 22.0162 158.757 22.6413C158.757 23.0585 158.219 23.0929 157.804 23.0929C157.086 23.0929 156.44 22.8859 156.438 22.8959L156.231 24.0289C156.268 24.0385 156.668 24.1882 157.959 24.1882C158.306 24.1882 160.288 24.2616 160.288 22.5395C160.288 20.9295 158.454 21.2486 158.454 20.6018C158.454 20.2798 158.751 20.1781 159.298 20.1781C159.515 20.1781 160.351 20.2356 160.351 20.2356L160.544 19.091C160.544 19.0912 160.005 18.9892 159.125 18.9892ZM166.244 18.9892C164.661 18.9895 163.49 20.4089 163.49 22.0124C163.49 23.863 164.958 24.3031 166.208 24.3031C167.363 24.3031 167.872 24.088 167.872 24.088L168.148 22.8252C168.148 22.8252 167.269 23.1471 166.476 23.1471C164.786 23.1471 165.082 22.0978 165.082 22.0978H168.282C168.282 22.0978 168.488 21.2497 168.488 20.9039C168.488 20.0411 167.972 18.9892 166.244 18.9892ZM171.975 19.0434C171.262 19.0434 170.733 19.8431 170.733 19.8431L170.874 19.1091H169.394L168.4 24.1767H170.036C170.499 22.0127 170.584 20.2555 171.689 20.5772C171.883 19.7396 172.071 19.416 172.282 19.0615C172.282 19.0615 172.183 19.0434 171.975 19.0434ZM185.23 19.0434C184.518 19.0434 183.988 19.8431 183.988 19.8431L184.13 19.1091H182.65L181.655 24.1767H183.289C183.753 22.0127 183.84 20.2555 184.945 20.5772C185.139 19.7396 185.327 19.416 185.538 19.0615C185.538 19.0615 185.438 19.0434 185.23 19.0434ZM166.236 20.1322C167.135 20.1322 166.97 20.9784 166.97 21.0468H165.2C165.2 20.9595 165.368 20.1322 166.236 20.1322ZM187.623 20.2307C188.195 20.2305 188.489 20.5529 188.489 21.3112C188.489 21.9992 188.073 22.9188 187.211 22.9188C186.639 22.9188 186.37 22.5249 186.37 21.9073C186.37 20.8974 186.924 20.2307 187.623 20.2307ZM179.761 21.9549C179.995 21.9551 180.043 21.9741 180.082 21.9828C180.077 21.982 180.076 21.9829 180.098 21.9861C180.128 22.2118 179.935 23.2703 179.001 23.2703C178.52 23.2703 178.397 22.9511 178.397 22.7628C178.397 22.3956 178.626 21.9549 179.761 21.9549ZM154.315 21.9598C154.58 21.9601 154.609 21.9848 154.654 21.991C154.684 22.2166 154.49 23.2735 153.553 23.2735C153.07 23.2735 152.945 22.9559 152.945 22.7677C152.945 22.4007 153.176 21.9598 154.315 21.9598Z" fill="#809671"/>
<path d="M311.093 22.5492C311.093 23.4957 310.151 24.2172 308.956 24.2172C308.063 24.2172 307.402 23.8138 307.402 23.0535C307.402 22.107 308.325 21.3467 309.51 21.3467C310.413 21.3467 311.093 21.7889 311.093 22.5492ZM300.818 18.7864H300.361C300.216 18.7864 300.07 18.864 300.051 18.9959L299.633 21.0674L300.429 21.0441C301.498 21.0441 302.323 20.9277 302.517 19.9424C302.741 18.9028 301.915 18.7864 300.818 18.7864ZM328.398 18.7864H327.961C327.787 18.7864 327.67 18.864 327.651 18.9959L327.243 21.0674L328.02 21.0441C329.282 21.0441 330.156 20.8113 330.156 19.6476C330.147 18.8252 329.224 18.7864 328.398 18.7864ZM348.938 8.72397V36.0331C348.938 38.089 346.85 39.757 344.277 39.757H297.662C295.088 39.757 293 38.089 293 36.0331V8.72397C293 6.66803 295.088 5 297.662 5H344.277C346.85 5 348.938 6.66803 348.938 8.72397ZM305.46 19.2287C305.46 17.5994 303.887 17.0563 302.09 17.0563H298.205C297.963 17.0563 297.72 17.2115 297.7 17.421L296.108 25.3422C296.079 25.4973 296.224 25.6525 296.418 25.6525H298.264C298.526 25.6525 298.769 25.4275 298.798 25.2103L299.235 23.1466C299.332 22.588 300.517 22.7819 300.983 22.7819C303.76 22.7819 305.46 21.463 305.46 19.2287ZM313.637 19.9114H311.792C311.423 19.9114 311.403 20.3381 311.384 20.5476C310.821 19.8881 310.005 19.7717 309.082 19.7717C306.703 19.7717 304.887 21.4398 304.887 23.2785C304.887 24.7913 306.072 25.7766 307.965 25.7766C308.839 25.7766 309.927 25.3965 310.539 24.8534C310.49 24.9698 310.442 25.218 310.442 25.3344C310.442 25.5129 310.539 25.6448 310.753 25.6448H312.423C312.685 25.6448 312.909 25.4198 312.957 25.2025L313.948 20.214C313.977 20.0666 313.831 19.9114 313.637 19.9114ZM317.57 27.5067L323.756 20.3226C323.805 20.2838 323.805 20.245 323.805 20.1907C323.805 20.0588 323.659 19.9191 323.494 19.9191H321.63C321.464 19.9191 321.29 19.9967 321.193 20.1131L318.619 23.1388L317.551 20.2295C317.473 20.0588 317.259 19.9191 317.017 19.9191H315.201C315.035 19.9191 314.89 20.0588 314.89 20.1907C314.89 20.2838 316.784 24.5974 316.949 25.0086C316.686 25.3034 314.958 27.2274 314.958 27.4602C314.958 27.5998 315.103 27.7084 315.269 27.7084H317.133C317.308 27.7007 317.473 27.6231 317.57 27.5067ZM333.041 19.2287C333.041 17.5994 331.467 17.0563 329.671 17.0563H325.815C325.553 17.0563 325.31 17.2115 325.281 17.421L323.708 25.3344C323.688 25.4896 323.834 25.6448 324.019 25.6448H326.009C326.204 25.6448 326.349 25.5284 326.398 25.3965L326.835 23.1466C326.932 22.588 328.117 22.7819 328.583 22.7819C331.341 22.7819 333.041 21.463 333.041 19.2287ZM341.218 19.9114H339.372C339.003 19.9114 338.984 20.3381 338.955 20.5476C338.421 19.8881 337.595 19.7717 336.653 19.7717C334.274 19.7717 332.458 21.4398 332.458 23.2785C332.458 24.7913 333.643 25.7766 335.536 25.7766C336.44 25.7766 337.527 25.3965 338.11 24.8534C338.081 24.9698 338.013 25.218 338.013 25.3344C338.013 25.5129 338.11 25.6448 338.324 25.6448H340.004C340.266 25.6448 340.489 25.4198 340.538 25.2025L341.528 20.214C341.558 20.0666 341.412 19.9114 341.218 19.9114ZM345.831 17.3279C345.831 17.1727 345.685 17.0563 345.52 17.0563H343.723C343.578 17.0563 343.432 17.1494 343.412 17.2658L341.839 25.3344L341.81 25.3732C341.81 25.5129 341.956 25.6448 342.15 25.6448H343.752C343.995 25.6448 344.238 25.4198 344.257 25.2025L345.831 17.3512V17.3279ZM337.09 21.3467C335.905 21.3467 334.983 22.0992 334.983 23.0535C334.983 23.806 335.663 24.2172 336.556 24.2172C337.722 24.2172 338.664 23.5035 338.664 22.5492C338.673 21.7889 337.993 21.3467 337.09 21.3467Z" fill="#809671"/>
<g clip-path="url(#clip1_0_3)">
<path d="M268.755 38.3776H224.147C221.299 38.3776 219 36.5409 219 34.2657V9.59439C219 7.31915 221.299 5.48251 224.147 5.48251H268.755C271.603 5.48251 273.902 7.31915 273.902 9.59439V34.2657C273.902 36.5409 271.603 38.3776 268.755 38.3776ZM224.147 8.22376C223.186 8.22376 222.431 8.82684 222.431 9.59439V34.2657C222.431 35.0332 223.186 35.6363 224.147 35.6363H268.755C269.716 35.6363 270.471 35.0332 270.471 34.2657V9.59439C270.471 8.82684 269.716 8.22376 268.755 8.22376H224.147Z" fill="#809671"/>
<path d="M264.26 17.6263H261.687C260.897 17.6263 260.314 17.8182 259.937 18.4486L254.995 27.44H258.495C258.495 27.44 259.113 26.2338 259.216 25.9597H263.505C263.643 26.2886 263.917 27.4125 263.917 27.4125H267.04L264.26 17.6537V17.6263ZM260.177 23.9311C260.486 23.3555 261.515 21.1899 261.515 21.1899C261.515 21.2447 261.824 20.6142 261.927 20.2853L262.167 21.1625L262.956 24.0134H260.177V23.9586V23.9311ZM255.236 24.2053C255.236 26.2338 252.937 27.577 249.402 27.577C247.892 27.577 246.451 27.3303 245.662 27.0562L246.142 24.8358L246.554 24.9728C247.652 25.3566 248.373 25.4937 249.677 25.4937C250.638 25.4937 251.667 25.1921 251.667 24.5342C251.667 24.0956 251.255 23.8215 249.917 23.3281C248.647 22.8346 246.966 22.0671 246.966 20.6965C246.966 18.7776 249.299 17.4618 252.628 17.4618C253.897 17.4618 254.961 17.6537 255.647 17.9004L255.167 20.0112L254.927 19.8193C254.309 19.6274 253.554 19.4355 252.388 19.4355C251.118 19.4903 250.535 19.9289 250.535 20.3127C250.535 20.7513 251.255 21.0802 252.388 21.5188C254.309 22.2316 255.201 23.0539 255.201 24.2053H255.236ZM225.863 17.7085L225.931 17.5166H231.113C231.833 17.5166 232.382 17.7085 232.554 18.339L233.686 22.6702C232.554 20.3675 229.878 18.4761 225.863 17.7085Z" fill="#809671"/>
<path d="M240.961 17.6263L235.711 27.3851H232.142L229.123 19.2162C231.284 20.3127 233.103 22.0671 233.755 23.2458L234.132 24.2601L237.392 17.5714H240.961V17.6263ZM242.368 17.5714H245.662L243.569 27.3851H240.275L242.368 17.5714Z" fill="#809671"/>
</g>
<defs>
<clipPath id="clip0_0_3">
<rect width="49.2539" height="37.6121" fill="white" transform="translate(66 3)"/>
</clipPath>
<clipPath id="clip1_0_3">
<rect width="54.9024" height="43.8601" fill="white" transform="translate(219)"/>
</clipPath>
</defs>
</svg>
