<?xml version="1.0" encoding="UTF-8"?><svg id="Layer_1" xmlns="http://www.w3.org/2000/svg" width="86" height="84" viewBox="0 0 86 84"><defs><style>.cls-1{fill:none;stroke:#809671;stroke-miterlimit:10;stroke-width:1.51px;}.cls-2{fill:#809671;stroke-width:0px;}</style></defs><path class="cls-2" d="m41,3c20.95,0,38,17.05,38,38s-17.05,38-38,38S3,61.95,3,41,20.05,3,41,3m0-2C18.91,1,1,18.91,1,41s17.91,40,40,40,40-17.91,40-40S63.09,1,41,1h0Z"/><path class="cls-1" d="m37.79,26.34c1.83-2.66-1.31-7.82-3.41-9.39-.83-.62-1.71-.85-1.71-.85-1.14-.31-2.11-.12-2.56,0-2.58,1.54-4.56,3.07-5.97,4.27-2.28,1.94-3.05,3-3.41,4.27-.4,1.41-.09,2.63,0,3.41.42,3.75,2,13.21,9.39,22.19,7.6,9.24,16.89,12.57,20.48,13.66.61.1,1.5.17,2.56,0,1.13-.18,2-.56,2.56-.85.66-.43,5.74-3.74,7.68-5.97.34-.39.76-.95.85-1.71.13-1.01-.37-1.87-.85-2.56-1.79-2.57-5.04-5.23-5.97-5.97-.45-.12-1.42-.31-2.56,0-.79.22-1.37.59-1.71.85-1.42,1.42-2.85,2.85-4.27,4.27-1.22.02-3.07-.1-5.12-.85-4.22-1.56-6.47-4.69-8.54-7.68-.86-1.24-6.75-9.77-4.27-12.8.3-.36.39-.25,4.27-2.56,2.28-1.36,2.41-1.5,2.56-1.71Z"/></svg>