<?xml version="1.0" encoding="UTF-8"?><svg id="Layer_1" xmlns="http://www.w3.org/2000/svg" width="86" height="84" viewBox="0 0 86 84"><defs><style>.cls-1{stroke-width:1.5px;}.cls-1,.cls-2{fill:none;stroke:#809671;stroke-miterlimit:10;}.cls-2{stroke-width:2px;}.cls-3{fill:#809671;stroke-width:0px;}</style></defs><path class="cls-3" d="m41,3c20.95,0,38,17.05,38,38s-17.05,38-38,38S3,61.95,3,41,20.05,3,41,3m0-2C18.91,1,1,18.91,1,41s17.91,40,40,40,40-17.91,40-40S63.09,1,41,1h0Z"/><path class="cls-2" d="m24.37,59.97c2.57,2.54,4.74,4.26,6.25,5.35.72.52,1.57,1.09,2.75,1.19,2.23.18,3.73-1.34,3.93-1.56,5.76-6.96,11.52-13.91,17.27-20.87.46-.5.94-1.13,1.33-1.93.53-1.06,1.04-2.77.44-6.83-.29-1.94-.86-4.62-2.11-7.7"/><path class="cls-2" d="m54.23,27.61c-.26-.7-.75-1.67-1.66-2.49-.58-.52-1.8-1.39-9.41-1.24-3.54.07-5.15.28-6.71,1.33-.74.5-1.31,1.06-1.74,1.58-6.14,6.62-12.28,13.24-18.42,19.86-.63.68-1.38,2.35-1.03,4.1,0,.02.02.07.03.14.22.88.8,2.09,2.44,3.27,2.49,2.21,4.98,4.42,7.47,6.64"/><path class="cls-2" d="m50,24c.33-1.19,1.29-4.03,4-6,3.31-2.4,8.54-3.03,10-1,1.57,2.18-1.23,7.42-5,10-3.58,2.46-7.54,2.18-9,2"/><circle class="cls-1" cx="34.5" cy="37.5" r="4.5"/><circle class="cls-1" cx="36.5" cy="52.5" r="4.5"/><path class="cls-1" d="m22,48c9.67-2.33,19.33-4.67,29-7"/></svg>