<?xml version="1.0" encoding="UTF-8"?><svg id="Layer_1" xmlns="http://www.w3.org/2000/svg" width="86" height="84" viewBox="0 0 86 84"><defs><style>.cls-1{fill:none;stroke:#809671;stroke-miterlimit:10;stroke-width:2px;}.cls-2{fill:#809671;stroke-width:0px;}</style></defs><path class="cls-2" d="m43,4c20.95,0,38,17.05,38,38s-17.05,38-38,38S5,62.95,5,42,22.05,4,43,4m0-2C20.91,2,3,19.91,3,42s17.91,40,40,40,40-17.91,40-40S65.09,2,43,2h0Z"/><path class="cls-1" d="m50.17,51.58c-.1-10.43.09-18.1.45-19.8.07-.32.24-1.12.91-1.7.7-.62,1.6-.66,2.04-.68,1.74-.07,5.9-.05,11.41.14.34-.02.83-.02,1.4.06,2.84.41,4.64,2.48,5.33,3.28,1.78,2.06,2.56,4.46,3.23,8.25.58,3.33,1.14,8.05.92,13.86h-4.85c-.15-.74-.75-3.14-3-5-.74-.61-2.49-1.86-5-2-.35-.02-4.31-.18-7,3-1.68,1.98-1.94,4.18-2,5h-16c-.04-.61-.33-3.74-3-6-2.4-2.04-5.12-2.02-6-2-.78.02-3.99.18-6.51,2.8-1.95,2.03-2.38,4.36-2.49,5.2-2.04.03-3.66-.12-4.8-.28-.67-.09-1.36-.21-1.9-.76-.81-.82-.72-1.88-.71-2.02.02-8.92.03-17.83.05-26.75.08-.37.34-1.42,1.3-2.29.77-.69,1.6-.91,1.98-.99,14.61-.36,25.4-.35,28.13,0,1.37.17,2.21.62,2.72,1.28.72.93.66,2.13.57,2.83.04,8.11.08,16.22.11,24.33"/><path class="cls-1" d="m56.98,56.64c-.02-2.87,2.17-5.36,4.92-5.74,3.33-.46,6.57,2.3,6.56,5.74,0,3.02-2.52,5.74-5.74,5.74s-5.72-2.68-5.74-5.74Z"/><path class="cls-1" d="m23.35,56.64c-.02-2.87,2.17-5.36,4.92-5.74,3.33-.46,6.57,2.3,6.56,5.74,0,3.02-2.52,5.74-5.74,5.74s-5.72-2.68-5.74-5.74Z"/></svg>