<?xml version="1.0" encoding="UTF-8"?><svg id="Layer_1" xmlns="http://www.w3.org/2000/svg" width="91" height="90" viewBox="0 0 91 90"><defs><style>.cls-1{fill:none;stroke:#594838;stroke-miterlimit:10;stroke-width:3px;}</style></defs><path class="cls-1" d="m24,75h40c1.37-.11,3.7-.49,6-2,0,0,1.83-1.2,3.23-3.1,5.65-7.7-1.94-32.5-5.32-39.96-.41-.91-1.24-2.62-3.03-3.98-2.1-1.59-4.49-1.91-6.02-1.95h-26.86c-.97.15-2.37.43-4,.99-1.55.53-3.07,1.05-4.44,2.17-1.47,1.2-2.27,2.67-2.87,4.1-3.09,7.4-9.2,34.15-3.67,40.14,1.85,2,4.1,2.87,4.1,2.87,1.5.58,2.86.68,3.76.67"/><path class="cls-1" d="m33,24c.67-3,1.33-6,2-9,.16-.56.64-1.94,2-3,.75-.58,1.5-.86,2-1h6"/><path class="cls-1" d="m57,24c-.67-3-1.33-6-2-9-.16-.56-.64-1.94-2-3-.75-.58-1.5-.86-2-1h-6"/></svg>