<?xml version="1.0" encoding="UTF-8"?><svg id="Layer_1" xmlns="http://www.w3.org/2000/svg" width="86" height="84" viewBox="0 0 86 84"><defs><style>.cls-1{stroke-width:1.35px;}.cls-1,.cls-2{stroke:#809671;stroke-miterlimit:10;}.cls-1,.cls-3{fill:#809671;}.cls-2{fill:none;stroke-width:2px;}.cls-3{stroke-width:0px;}</style></defs><path class="cls-3" d="m41,3c20.95,0,38,17.05,38,38s-17.05,38-38,38S3,61.95,3,41,20.05,3,41,3m0-2C18.91,1,1,18.91,1,41s17.91,40,40,40,40-17.91,40-40S63.09,1,41,1h0Z"/><circle class="cls-1" cx="28.5" cy="33.5" r="4.37"/><circle class="cls-1" cx="52.5" cy="33.5" r="4.37"/><path class="cls-2" d="m16.5,48.5c1.4,2.52,4.84,7.86,11.5,11.5,1.93,1.05,6.78,3.63,13.5,3.5,6.01-.12,10.3-2.33,12.5-3.5,6.11-3.24,9.71-7.8,11.5-10.5"/></svg>