<?xml version="1.0" encoding="UTF-8"?>
<svg id="Layer_1" data-name="Layer 1" xmlns="http://www.w3.org/2000/svg" viewBox="0 0 49.14 64.82">
  <defs>
    <style>
      .cls-1 {
        fill: none;
        stroke: #b3b792;
        stroke-miterlimit: 10;
        stroke-width: .25px;
      }
    </style>
  </defs>
  <g>
    <path class="cls-1" d="m.02,64.7c10.72-1.68,14.41-4.33,15.71-6.56.33-.57,1.52-2.85,3.84-5.3.26-.28,1.27-1.33,2.82-2.56,2.37-1.89,3.51-2.22,5.37-3.46,3.48-2.31,3.21-3.62,6.71-6.39,1.28-1.02,3.26-2.38,6.05-3.57"/>
    <path class="cls-1" d="m14.63,42.15c1.03,1.02,2.31,2.48,3.47,4.45,1.23,2.08,1.9,4.02,2.28,5.47"/>
    <path class="cls-1" d="m41.67,10.31c-2.93,3.51-4.13,6.64-4.69,8.84-.64,2.52-.33,3.42-1.3,7.31-.71,2.87-1.2,4.83-2.55,7.05-1.03,1.69-1.76,2.21-4.75,5.36-2.09,2.2-3.74,4.06-4.82,5.31-.39,2.04-.78,4.07-1.17,6.11"/>
  </g>
  <path class="cls-1" d="m26.93,5.18c-.22,3.11-.63,5.83-1.09,8.11-.53,2.64-.73,2.79-1.04,4.89-.38,2.56-.42,4.74-.48,8.13-.05,2.91.04,2.83-.06,4.27-.21,2.99-.68,4.15-.94,6.3-.21,1.69-.32,4.15.24,7.28"/>
  <g>
    <path class="cls-1" d="m32.05,42.87c1.78-.83,3.85-1.21,4.09-1.26.77-.14.95-.16,1.23-.15.67.02,1.17.21,1.85.48.5.2,1.11.44,1.82.9.51.33.83.62,1.48.86.3.11.56.17.73.2-.72.12-1.34.21-1.84.27-.53.06-1.12.11-2.3.2-1.07.08-1.3.09-1.66.04-.48-.07-.63-.17-1.34-.37-.74-.22-1.29-.32-1.88-.43-1.53-.29-2.43-.29-2.45-.5,0-.1.17-.18.28-.23Z"/>
    <path class="cls-1" d="m38.8,43.18c-.73-.21-1.31-.26-1.72-.26-.42,0-.57.03-1.14.01-.61-.03-1.05-.08-1.21-.1-.57-.07-1.48-.06-2.96.27"/>
  </g>
  <g>
    <path class="cls-1" d="m24.34,27.35c-.23-.16-.55-.38-.91-.67-1.05-.86-1.68-1.71-2.04-2.2-.78-1.07-1.2-1.97-1.32-2.22-.34-.74-.58-1.28-.7-2.07-.11-.78-.05-1.51-.01-2.03.03-.4.08-.74.12-.97.25.2.59.49.95.89.17.18.55.62,1.16,1.66.63,1.07.99,1.7,1.27,2.63.15.52.21.95.33,1.83.14,1.02.21,1.88.24,2.48"/>
    <path class="cls-1" d="m20.75,20.2c.05.24.12.61.22,1.05,0,0,.16.7.31,1.23.23.82.99,2.35,2.16,4.19"/>
  </g>
  <g>
    <path class="cls-1" d="m19.87,50.34c-.19-.01-.44-.04-.74-.1-.89-.16-1.52-.45-1.89-.62-.8-.37-1.33-.76-1.48-.86-.43-.32-.75-.55-1.07-.98-.31-.42-.52-.86-.66-1.18-.11-.24-.19-.45-.25-.6.21.03.5.09.84.21.15.05.52.18,1.21.59.71.42,1.12.66,1.58,1.12.25.25.43.49.78.96.41.55.73,1.02.94,1.36"/>
    <path class="cls-1" d="m15.48,47.35c.11.13.26.32.46.54,0,0,.32.35.57.62.4.4,1.33,1.05,2.6,1.74"/>
  </g>
  <g>
    <path class="cls-1" d="m24.67,21.11c.93-2.38,2.53-4.6,2.72-4.85.6-.82.75-1.01,1.02-1.25.65-.59,1.29-.85,2.17-1.21.65-.27,1.43-.58,2.52-.79.77-.14,1.33-.16,2.16-.52.38-.17.68-.34.87-.47-.57.76-1.08,1.4-1.49,1.9-.44.54-.96,1.11-1.99,2.26-.93,1.04-1.14,1.26-1.53,1.53-.51.36-.74.4-1.59.85-.89.46-1.5.86-2.16,1.28-1.7,1.1-2.55,1.91-2.75,1.73-.09-.08,0-.33.05-.47Z"/>
    <path class="cls-1" d="m31.29,15.33c-.87.46-1.47.94-1.85,1.3-.4.37-.51.55-1.07,1.04-.6.52-1.06.87-1.22.99-.6.45-1.45,1.28-2.54,2.92"/>
  </g>
  <g>
    <path class="cls-1" d="m33.91,32.15c.2.02.49.03.83.03,1-.02,1.74-.22,2.17-.34.93-.26,1.59-.59,1.76-.68.53-.27.92-.47,1.34-.88.42-.4.71-.84.93-1.16.16-.25.29-.46.38-.61-.23,0-.56.01-.95.08-.18.03-.6.11-1.42.43-.85.33-1.34.52-1.92.94-.32.23-.55.45-1.02.9-.55.53-.97.99-1.27,1.32"/>
    <path class="cls-1" d="m39.23,29.67c-.14.12-.34.3-.6.51,0,0-.41.33-.74.57-.5.37-1.64.9-3.15,1.43"/>
  </g>
  <g>
    <path class="cls-1" d="m24.82,17.58c-.14.1-.76-.64-1.57-1.18-.17-.11-.37-.24-.37-.24-.26-.16-.44-.25-.67-.4-.42-.26-1.59-.98-2.41-2.17-.69-.99-.93-2-1.02-2.65.85.19,1.43.53,1.78.78.23.16.63.59,1.44,1.45.81.87.98,1.09,1.13,1.32.28.43.26.51.6,1.01.41.59.51.63.76,1.04.23.39.45.96.34,1.03Z"/>
    <path class="cls-1" d="m21.37,13.96c.16.22.33.44.52.67,0,0,.17.2.33.37.53.57,1.07.86,1.58,1.31.24.21.59.55.93,1.05"/>
  </g>
  <g>
    <path class="cls-1" d="m31.07,36.1c.13-.01.12-.73.33-1.43.05-.15.1-.32.1-.32.07-.22.13-.36.19-.55.12-.35.44-1.33.34-2.41-.08-.91-.43-1.6-.69-2.02-.39.52-.57.99-.65,1.31-.05.21-.08.65-.12,1.53-.05.89-.04,1.09-.01,1.3.05.38.1.41.14.87.05.53,0,.61.07.96.06.34.2.77.3.76Z"/>
    <path class="cls-1" d="m31.3,32.36c.02.2.02.41.02.64,0,0,0,.19,0,.37-.03.58-.2,1.01-.28,1.52-.04.24-.07.6-.03,1.05"/>
  </g>
  <g>
    <path class="cls-1" d="m34.44,30c-.82-1.16-1.36-2.67-1.42-2.85-.2-.56-.24-.7-.27-.92-.07-.53,0-.97.09-1.57.07-.45.16-.98.39-1.66.16-.48.32-.81.41-1.38.04-.26.04-.48.04-.62.18.53.32.99.43,1.36.11.4.23.84.45,1.74.2.81.24.99.25,1.28.01.39-.03.53-.09,1.14-.05.63-.05,1.09-.05,1.59,0,1.27.12,1.97-.03,2.04-.07.03-.15-.09-.2-.16Z"/>
    <path class="cls-1" d="m33.76,24.65c-.05.62,0,1.09.04,1.41.05.33.1.44.16.89.06.48.08.84.09.97.03.47.15,1.17.58,2.23"/>
  </g>
  <g>
    <path class="cls-1" d="m24.26,29.65h0s.1-.12.16-.22c.09-.15.13-.27.14-.3.07-.21.44-.89.98-1.35.51-.44,1.04-.59,1.44-.69.64-.17.9-.09,1.59-.31.38-.12.68-.27.88-.38-.08.23-.21.55-.45.89-.19.26-.43.53-1.19,1.06-1.09.75-1.64,1.13-2.39,1.19-.43.03-.78-.04-1-.1"/>
    <path class="cls-1" d="m27.94,27.45l-.57.28-1.09.56-.7.48c-.19.15-.37.3-.56.45-.2.07-.4.14-.59.21"/>
  </g>
  <g>
    <path class="cls-1" d="m35.86,25.78h0s.09-.13.13-.23c.07-.15.1-.28.11-.31.05-.21.35-.93.84-1.44.46-.49.98-.69,1.37-.83.62-.23.89-.18,1.55-.47.37-.16.65-.34.83-.46-.05.24-.15.57-.36.93-.16.28-.38.57-1.08,1.17-1.01.86-1.52,1.29-2.26,1.41-.42.07-.78.04-1,0"/>
    <path class="cls-1" d="m39.3,23.24l-.54.33-1.03.67-.65.54c-.17.17-.34.34-.51.5-.19.09-.38.18-.57.26"/>
  </g>
  <g>
    <path class="cls-1" d="m18.41,46.93h0c0-.06-.01-.15-.04-.27-.04-.17-.09-.28-.1-.31-.09-.2-.29-.95-.22-1.66.06-.67.35-1.14.57-1.49.34-.56.59-.68.94-1.32.19-.35.31-.67.37-.88.1.22.23.54.29.96.05.32.05.69-.13,1.58-.27,1.3-.41,1.95-.92,2.51-.29.32-.6.51-.79.61"/>
    <path class="cls-1" d="m19.56,42.81l-.23.59-.41,1.16-.18.83c-.03.24-.06.47-.09.71-.1.19-.19.37-.29.56"/>
  </g>
  <g>
    <path class="cls-1" d="m25.89,12.91c-.03-.06-.06-.15-.09-.26-.05-.18-.06-.36-.04-.59.03-.35.09-.61.1-.62.16-.62.1-2.28-.3-3.99-.19-.8-.28-1.2-.53-1.7-.4-.8-.77-1.03-1.23-1.87-.24-.43-.49-.99-.67-1.69-.2.32-.46.81-.59,1.49-.1.52-.13,1.14.18,2.77.46,2.36.68,3.53,1.62,4.74.53.69,1.08,1.16,1.47,1.45"/>
    <path class="cls-1" d="m23.94,6.5c-.02.82.1,1.46.22,1.89.15.57.24.57.66,1.82.21.61.27.85.47,1.34.2.48.39.85.52,1.1"/>
  </g>
  <g>
    <path class="cls-1" d="m37.07,20.45c1.26-.66,2.44-1.75,2.57-1.87.43-.41.53-.51.66-.69.31-.44.45-.86.64-1.44.14-.43.31-.94.42-1.65.08-.51.09-.87.28-1.42.09-.25.18-.45.25-.57-.4.38-.74.73-1.01,1.01-.28.3-.59.65-1.2,1.34-.55.63-.67.77-.81,1.02-.19.34-.21.49-.45,1.05-.24.59-.46,1-.68,1.43-.58,1.13-1.01,1.7-.92,1.83.04.06.17,0,.25-.05Z"/>
    <path class="cls-1" d="m40.13,16.02c-.24.57-.5.97-.69,1.23-.2.27-.29.34-.55.72-.28.4-.46.71-.53.82-.24.4-.68.97-1.55,1.71"/>
  </g>
  <g>
    <path class="cls-1" d="m16.22,43.9c.02-.13-.68-.3-1.31-.67-.14-.08-.28-.17-.28-.17-.19-.12-.32-.21-.49-.32-.32-.2-1.19-.74-2.26-.91-.9-.14-1.66.04-2.12.19.41.51.83.79,1.11.94.19.1.61.23,1.45.49.85.26,1.05.3,1.26.32.38.05.43,0,.88.07.53.08.59.14.95.17.34.02.79-.01.81-.11Z"/>
    <path class="cls-1" d="m12.64,42.78c.2.03.41.08.62.13,0,0,.19.05.36.1.56.17.93.43,1.41.63.22.09.56.21,1.01.28"/>
  </g>
  <g>
    <path class="cls-1" d="m29.17,38.03c.07-.02,0-.41.06-.8.01-.08.03-.18.03-.18.02-.12.04-.2.06-.31.03-.2.12-.75-.02-1.32-.12-.48-.37-.82-.54-1.02-.17.31-.22.58-.24.76-.01.12.01.35.06.83.05.48.07.59.1.7.06.2.09.21.15.46.07.28.06.33.12.51.06.18.17.4.23.38Z"/>
    <path class="cls-1" d="m28.98,36c.03.11.05.22.07.34,0,0,.02.1.03.2.03.31-.02.56-.02.84,0,.13.01.33.08.57"/>
  </g>
  <g>
    <path class="cls-1" d="m36.28,22.51c-.41-.36-.76-.87-.79-.93-.13-.19-.15-.24-.19-.32-.08-.19-.09-.36-.11-.59-.01-.17-.03-.38,0-.66.02-.2.05-.33.02-.55-.01-.1-.03-.18-.04-.24.12.18.21.34.29.47.08.14.16.29.33.61.15.28.18.35.21.46.04.14.04.2.07.43.04.24.08.41.13.6.12.48.23.73.18.77-.02.02-.06-.02-.09-.04Z"/>
    <path class="cls-1" d="m35.53,20.57c.04.24.1.41.15.52.05.12.08.15.14.32.07.17.11.31.12.35.05.17.17.42.43.78"/>
  </g>
  <g>
    <path class="cls-1" d="m33.51,40.96c-.09-1.18.14-2.42.17-2.57.09-.46.11-.57.18-.72.16-.38.37-.61.66-.94.22-.24.48-.53.89-.83.29-.21.52-.33.8-.65.13-.15.21-.28.27-.37-.08.43-.17.8-.24,1.09-.08.31-.18.65-.38,1.34-.18.62-.23.75-.33.94-.14.25-.23.32-.5.67-.28.37-.46.66-.65.97-.49.8-.68,1.31-.8,1.27-.06-.02-.07-.14-.07-.21Z"/>
    <path class="cls-1" d="m35.12,37.23c-.27.36-.42.68-.51.91-.09.23-.1.33-.24.65-.15.34-.27.57-.31.66-.16.31-.35.82-.48,1.72"/>
  </g>
  <g>
    <path class="cls-1" d="m30.67,44.39c-.07-.1-.15-.24-.24-.42-.26-.52-.36-.95-.41-1.2-.12-.54-.12-.96-.12-1.08,0-.34,0-.59.1-.91.1-.31.26-.57.37-.76.09-.14.17-.26.23-.34.06.12.15.29.22.51.03.1.11.33.16.84.05.52.09.82.02,1.22-.04.22-.09.4-.21.75-.13.41-.26.74-.36.97"/>
    <path class="cls-1" d="m30.54,41.04c-.03.1-.07.25-.11.43,0,0-.07.29-.1.52-.06.35-.03,1.07.1,1.97"/>
  </g>
  <g>
    <path class="cls-1" d="m37.24,38.64c.54-.11,1.15-.08,1.22-.07.23.02.28.02.36.04.2.05.34.14.54.27.15.09.32.21.53.39.15.13.24.24.43.35.09.05.16.09.21.11-.21-.02-.4-.04-.55-.05-.16-.02-.33-.05-.68-.11-.32-.05-.39-.07-.49-.11-.14-.05-.18-.09-.39-.2-.22-.11-.38-.19-.55-.26-.45-.19-.72-.26-.72-.32,0-.03.05-.04.09-.05Z"/>
    <path class="cls-1" d="m39.23,39.21c-.21-.11-.39-.17-.51-.2-.12-.03-.17-.03-.34-.08-.18-.05-.31-.1-.36-.11-.17-.06-.44-.12-.88-.13"/>
  </g>
  <g>
    <path class="cls-1" d="m41.64,10.35c.93-.77,2.1-1.32,2.23-1.38.44-.2.54-.24.71-.28.4-.09.73-.06,1.17,0,.33.04.73.09,1.22.25.35.12.59.24,1.01.28.2.02.36.01.47,0-.41.19-.77.33-1.05.45-.3.12-.65.24-1.34.48-.62.22-.76.26-.98.28-.29.03-.4,0-.85-.02-.47-.01-.82.01-1.19.04-.96.07-1.49.21-1.53.08-.02-.06.07-.14.13-.18Z"/>
    <path class="cls-1" d="m45.7,9.48c-.46-.01-.82.05-1.06.11-.25.06-.34.11-.68.18-.37.08-.64.12-.73.13-.35.05-.89.2-1.72.62"/>
  </g>
  <g>
    <path class="cls-1" d="m39.07,13.71c-.11-.54-.08-1.15-.07-1.22.02-.23.02-.28.04-.36.05-.2.14-.34.27-.54.09-.15.21-.32.39-.53.13-.15.24-.24.35-.43.05-.09.09-.16.11-.21-.02.21-.04.4-.05.55-.02.16-.05.33-.11.68-.05.32-.07.39-.11.49-.05.14-.09.18-.2.39-.11.22-.19.38-.26.55-.19.45-.26.72-.32.72-.03,0-.04-.05-.05-.09Z"/>
    <path class="cls-1" d="m39.64,11.71c-.11.21-.17.39-.2.51-.03.12-.03.17-.08.34-.05.18-.1.31-.11.36-.06.17-.12.44-.13.88"/>
  </g>
  <g>
    <path class="cls-1" d="m25.51,15.31c.06.04.31-.27.64-.49.07-.05.15-.1.15-.1.11-.07.18-.11.27-.17.17-.11.64-.41.98-.89.28-.41.37-.82.41-1.09-.35.08-.58.22-.72.32-.09.07-.26.24-.58.6-.33.36-.39.45-.46.54-.11.18-.1.21-.24.41-.16.24-.21.26-.31.43-.09.16-.18.39-.13.42Z"/>
    <path class="cls-1" d="m26.9,13.81c-.06.09-.13.18-.21.28,0,0-.07.08-.13.15-.21.23-.43.35-.64.54-.1.09-.24.23-.38.43"/>
  </g>
  <g>
    <path class="cls-1" d="m26.91,5.43c.01-.16.02-.38.02-.64-.02-.76-.18-1.31-.27-1.62-.2-.68-.46-1.15-.53-1.27-.21-.37-.37-.65-.68-.92-.31-.27-.66-.45-.91-.57-.19-.1-.36-.17-.48-.21,0,.18.01.43.06.72.02.13.09.44.34,1.04.26.61.41.97.73,1.36.18.22.35.37.7.68.41.36.77.63,1.03.81"/>
    <path class="cls-1" d="m24.98,1.65c.09.09.23.23.39.4,0,0,.26.27.44.5.29.34.7,1.15,1.12,2.24"/>
  </g>
  <g>
    <path class="cls-1" d="m26.7,9.41c.87-.35,1.67-.95,1.76-1.02.3-.22.36-.28.45-.38.21-.24.3-.48.43-.8.09-.24.21-.53.27-.93.05-.28.05-.49.18-.79.06-.14.12-.25.17-.32-.28.21-.51.4-.69.56-.19.16-.4.36-.82.74-.38.35-.45.43-.55.57-.13.19-.14.27-.3.59-.16.33-.31.56-.46.8-.39.63-.69.94-.62,1.02.03.03.12,0,.17-.02Z"/>
    <path class="cls-1" d="m28.77,6.95c-.16.32-.34.54-.46.69-.13.15-.2.19-.37.4-.19.22-.31.39-.36.45-.16.22-.46.54-1.05.95"/>
  </g>
  <g>
    <path class="cls-1" d="m23.53,35.49c.11-.06-.18-.72-.27-1.44-.02-.16-.04-.33-.04-.33-.02-.23-.03-.38-.05-.59-.04-.37-.14-1.39-.66-2.34-.44-.8-1.04-1.29-1.45-1.57-.15.64-.12,1.14-.07,1.46.03.21.19.62.5,1.45.31.83.41,1.02.51,1.2.2.33.26.34.48.74.26.47.25.55.45.86.19.28.5.62.58.57Z"/>
    <path class="cls-1" d="m22.23,31.97c.09.18.19.37.28.57,0,0,.08.18.14.34.21.54.23,1,.36,1.5.06.24.18.58.4.97"/>
  </g>
  <g>
    <path class="cls-1" d="m27.22,47.18c.01.07.4.03.79.11.08.02.18.04.18.04.12.03.2.05.31.08.2.05.74.17,1.32.07.49-.09.85-.31,1.06-.47-.3-.19-.56-.26-.74-.29-.11-.02-.35-.01-.83,0-.48.01-.59.03-.71.05-.2.04-.22.07-.47.12-.29.05-.33.03-.52.08-.18.05-.41.15-.4.2Z"/>
    <path class="cls-1" d="m29.26,47.13c-.11.02-.22.03-.34.04,0,0-.1,0-.2.01-.32.01-.56-.06-.84-.08-.13,0-.33-.01-.57.03"/>
  </g>
  <g>
    <path class="cls-1" d="m14.66,42.18s-.06-.07-.11-.13c-.16-.17-.29-.29-.32-.32-.24-.26-.4-.5-.5-.65-.31-.46-.46-.85-.51-.96-.12-.32-.21-.55-.24-.88-.02-.33.03-.63.07-.85.03-.17.06-.3.09-.4.1.09.24.22.39.39.07.08.22.27.45.72.24.46.38.73.47,1.13.05.22.06.4.08.77.03.43.03.79.02,1.04"/>
    <path class="cls-1" d="m13.58,39.28c.01.1.03.26.06.44,0,0,.05.29.09.52.07.35.36,1.01.81,1.8"/>
  </g>
  <g>
    <path class="cls-1" d="m40.52,36.85c.54-.11,1.15-.08,1.22-.07.23.02.28.02.36.04.2.05.34.14.54.27.15.09.32.21.53.39.15.13.24.24.43.35.09.05.16.09.21.11-.21-.02-.4-.04-.55-.05-.16-.02-.33-.05-.68-.11-.32-.05-.39-.07-.49-.11-.14-.05-.18-.09-.39-.2-.22-.11-.38-.19-.55-.26-.45-.19-.72-.26-.72-.32,0-.03.05-.04.09-.05Z"/>
    <path class="cls-1" d="m42.51,37.42c-.21-.11-.39-.17-.51-.2-.12-.03-.17-.03-.34-.08-.18-.05-.31-.1-.36-.11-.17-.06-.44-.12-.88-.13"/>
  </g>
  <g>
    <path class="cls-1" d="m38.4,37.85c-.05-.05.19-.36.32-.73.03-.08.06-.17.06-.17.04-.12.06-.2.1-.3.07-.19.25-.72.64-1.16.33-.37.71-.55.96-.65,0,.36-.08.62-.15.78-.04.11-.18.31-.45.71-.27.4-.34.49-.42.57-.14.15-.18.15-.35.33-.2.22-.2.26-.35.4-.14.13-.34.27-.38.23Z"/>
    <path class="cls-1" d="m39.52,36.15c-.07.08-.15.17-.22.27,0,0-.06.08-.12.16-.18.26-.24.5-.38.75-.06.12-.17.28-.33.47"/>
  </g>
  <g>
    <path class="cls-1" d="m16.03,57.4c-.3-.57-.47-1.25-.48-1.32-.06-.25-.07-.31-.07-.4,0-.22.05-.39.13-.62.06-.17.12-.37.26-.61.1-.17.19-.28.26-.5.03-.1.05-.19.05-.24.05.23.09.44.12.6.03.17.06.37.11.75.05.35.05.43.04.55-.01.16-.04.21-.1.45-.06.25-.08.43-.11.63-.07.51-.05.81-.12.81-.03,0-.06-.05-.08-.09Z"/>
    <path class="cls-1" d="m16.02,55.17c-.06.24-.06.44-.06.57,0,.14.02.19.02.38,0,.2,0,.35-.01.4-.01.19,0,.49.14.97"/>
  </g>
  <g>
    <path class="cls-1" d="m14.59,59.65c-.04-.18-.11-.43-.2-.72-.29-.85-.67-1.44-.89-1.78-.48-.73-.94-1.21-1.07-1.34-.38-.38-.66-.66-1.12-.92-.46-.25-.92-.39-1.26-.48-.26-.07-.48-.12-.63-.16.06.2.17.48.33.8.07.15.26.48.76,1.11.52.64.82,1.01,1.34,1.4.29.21.54.35,1.06.63.6.33,1.12.57,1.48.73"/>
    <path class="cls-1" d="m11,55.75c.14.09.35.22.6.38,0,0,.4.26.69.48.45.33,1.23,1.17,2.1,2.32"/>
  </g>
</svg>