<?xml version="1.0" encoding="UTF-8"?>
<svg id="Layer_1" data-name="Layer 1" xmlns="http://www.w3.org/2000/svg" viewBox="0 0 337.31 545.9">
  <defs>
    <style>
      .cls-1 {
        fill: none;
        stroke: #b3b792;
        stroke-miterlimit: 10;
        stroke-width: .25px;
      }
    </style>
  </defs>
  <g>
    <path class="cls-1" d="m70.71,545.85c-2.89-6.11-6.59-10.28-9.39-11.73-1.62-.84-3.48-1.43-3.48-1.43-2.28-.72-4.07-.88-4.5-.92-3.08-.33-13.54-3.15-21.59-8.92-7.62-5.46-11.35-12.32-14.08-17.37-4.4-8.12-4.1-11.94-9.39-20.65-2.93-4.82-5.91-8.41-7.98-10.69,3.36.28,8.21,1.03,13.61,3.18,4.19,1.67,8.67,4.16,18.21,12.75,13.79,12.42,20.69,18.63,23.87,28.72,1.81,5.75,1.96,10.79,1.85,13.9"/>
    <path class="cls-1" d="m19.63,491.18l5.59,6.9,11.19,13.05,8.76,8.03c2.64,2.03,5.29,4.07,7.93,6.1,1.58,2.47,3.16,4.95,4.73,7.42"/>
  </g>
  <g>
    <g>
      <path class="cls-1" d="m264.11,35.2c9.39,5.45,13.93,5.71,16.33,4.8.61-.23,2.98-1.26,6.32-1.7.38-.05,1.83-.23,3.8-.22,3.03.02,4.12.48,6.35.69,4.16.39,4.77-.79,9.23-.74,1.64.02,4.03.2,6.94,1.03"/>
      <path class="cls-1" d="m289.66,26.88c.16,1.44.23,3.38-.11,5.64-.36,2.39-1.06,4.32-1.67,5.69"/>
      <path class="cls-1" d="m330.71,19.17c-4.48.88-7.39,2.55-9.21,3.91-2.08,1.56-2.41,2.45-5.61,4.86-2.36,1.78-3.98,3-6.42,3.87-1.86.66-2.76.61-7.07,1.17-3.01.4-5.46.8-7.09,1.09-1.58,1.34-3.17,2.67-4.75,4.01"/>
    </g>
    <path class="cls-1" d="m322.49,5.9c-2.13,2.28-4.17,4.13-5.96,5.62-2.08,1.72-2.33,1.71-3.89,3.14-1.9,1.75-3.31,3.42-5.5,6.02-1.87,2.23-1.75,2.22-2.74,3.28-2.05,2.19-3.14,2.8-4.7,4.3-1.22,1.18-2.86,3.03-4.4,5.81"/>
    <g>
      <path class="cls-1" d="m302.74,38.41c1.91.48,3.75,1.48,3.96,1.6.68.38.84.47,1.05.66.51.44.78.9,1.13,1.53.27.47.59,1.04.85,1.84.19.58.25,1,.61,1.6.16.27.33.48.44.62-.64-.36-1.17-.68-1.6-.95-.45-.28-.94-.62-1.92-1.29-.88-.61-1.07-.75-1.31-1.01-.33-.35-.38-.52-.8-1.13-.44-.63-.8-1.06-1.19-1.52-1.01-1.19-1.71-1.75-1.59-1.93.05-.08.25-.03.36,0Z"/>
      <path class="cls-1" d="m307.79,42.9c-.43-.62-.86-1.03-1.17-1.28-.32-.27-.47-.33-.9-.71-.46-.4-.77-.72-.88-.83-.4-.41-1.12-.98-2.47-1.65"/>
    </g>
    <g>
      <path class="cls-1" d="m306.53,21.5c-.08-.27-.19-.64-.28-1.09-.27-1.33-.22-2.38-.19-2.99.07-1.32.31-2.29.37-2.55.2-.79.35-1.36.76-2.05.4-.67.91-1.2,1.27-1.59.28-.29.52-.52.7-.68.07.31.15.75.18,1.29.01.25.03.83-.15,2.02-.19,1.23-.3,1.94-.67,2.84-.21.5-.44.87-.9,1.63-.54.89-1.02,1.59-1.38,2.08"/>
      <path class="cls-1" d="m308.24,13.68c-.12.22-.29.55-.49.95,0,0-.32.64-.54,1.15-.34.78-.71,2.45-.96,4.62"/>
    </g>
    <g>
      <path class="cls-1" d="m288.57,36.54c-.13-.13-.32-.31-.52-.54-.59-.69-.9-1.31-1.08-1.67-.39-.79-.56-1.43-.6-1.6-.14-.52-.23-.9-.22-1.43.02-.52.14-.99.23-1.33.07-.26.14-.47.19-.62.14.16.33.39.52.69.09.14.29.47.56,1.22.29.77.45,1.22.52,1.87.04.35.03.65,0,1.23-.03.69-.08,1.25-.13,1.65"/>
      <path class="cls-1" d="m287.05,31.46c0,.17,0,.41.02.71,0,0,.02.47.06.84.06.56.38,1.65.93,2.99"/>
    </g>
    <g>
      <path class="cls-1" d="m310.71,16.85c2.22-1.27,4.86-1.98,5.17-2.06.98-.26,1.22-.31,1.58-.33.88-.04,1.54.15,2.45.43.67.2,1.48.45,2.45.97.69.37,1.14.71,2.01.96.4.11.74.16.97.18-.92.24-1.72.41-2.35.54-.68.14-1.44.26-2.97.5-1.38.22-1.68.26-2.15.22-.62-.04-.83-.15-1.77-.35-.98-.2-1.71-.28-2.49-.36-2.02-.21-3.18-.12-3.23-.39-.02-.12.21-.25.34-.33Z"/>
      <path class="cls-1" d="m319.49,16.54c-.96-.19-1.73-.19-2.25-.16-.54.04-.74.11-1.48.13-.8.03-1.37,0-1.57,0-.75-.03-1.93.08-3.81.67"/>
    </g>
    <g>
      <path class="cls-1" d="m310.94,31.25c.15.14.36.33.63.54.79.61,1.49.92,1.9,1.1.89.39,1.6.54,1.8.58.58.12,1.01.21,1.59.17.57-.05,1.09-.2,1.46-.32.28-.09.51-.17.68-.24-.18-.15-.45-.34-.79-.54-.16-.09-.53-.29-1.37-.56-.87-.28-1.37-.44-2.09-.48-.39-.02-.72,0-1.36.06-.76.06-1.38.15-1.81.23"/>
      <path class="cls-1" d="m316.63,32.67c-.18,0-.45.01-.79.01,0,0-.52,0-.93-.02-.62-.03-1.84-.33-3.35-.87"/>
    </g>
    <g>
      <path class="cls-1" d="m313.04,14.21c-.17-.01-.18-.98-.48-1.9-.06-.2-.14-.42-.14-.42-.1-.29-.18-.47-.27-.73-.16-.47-.61-1.76-.51-3.21.09-1.21.54-2.14.88-2.7.54.69.78,1.31.89,1.73.08.27.12.86.2,2.04.09,1.18.08,1.46.05,1.73-.05.51-.12.55-.17,1.17-.06.71,0,.81-.07,1.29-.07.45-.25,1.03-.39,1.02Z"/>
      <path class="cls-1" d="m312.65,9.23c-.02.27-.02.55-.02.85,0,0,0,.26.02.5.05.77.29,1.34.4,2.02.06.32.11.8.06,1.4"/>
    </g>
    <g>
      <path class="cls-1" d="m306.24,32.53c.11.07.56-.49,1.16-.9.13-.09.28-.18.28-.18.19-.12.33-.2.5-.31.31-.2,1.18-.76,1.78-1.66.51-.76.67-1.52.73-2-.64.16-1.06.41-1.32.61-.17.13-.47.45-1.06,1.11-.6.66-.72.83-.83,1-.2.32-.19.38-.44.77-.3.45-.38.48-.55.79-.17.3-.33.72-.24.78Z"/>
      <path class="cls-1" d="m308.78,29.77c-.11.17-.24.34-.38.51,0,0-.12.15-.24.28-.39.43-.79.66-1.17,1.01-.18.16-.43.42-.68.8"/>
    </g>
    <g>
      <path class="cls-1" d="m312.7,29.91c.1-1.42.63-2.93.69-3.11.2-.56.25-.69.37-.88.28-.46.6-.76,1.06-1.16.34-.3.74-.66,1.35-1.04.43-.27.76-.43,1.19-.82.19-.18.34-.35.43-.46-.19.52-.37.97-.52,1.33-.16.38-.36.8-.75,1.63-.36.76-.44.92-.62,1.15-.23.31-.36.39-.79.83-.44.46-.73.82-1.04,1.2-.8.99-1.15,1.61-1.31,1.57-.07-.02-.06-.16-.06-.25Z"/>
      <path class="cls-1" d="m315.54,25.34c-.43.45-.69.85-.85,1.12-.17.29-.2.4-.44.79-.26.42-.46.7-.54.81-.27.38-.62,1.01-.95,2.1"/>
    </g>
    <g>
      <path class="cls-1" d="m305.02,23.23h0c.06-.01.15-.03.26-.07.16-.06.27-.13.3-.14.19-.12.9-.41,1.61-.44.67-.02,1.18.2,1.56.37.6.27.75.5,1.43.76.38.15.7.22.92.26-.2.13-.51.3-.91.41-.31.09-.67.14-1.59.07-1.32-.1-1.98-.15-2.6-.59-.35-.25-.58-.53-.71-.71"/>
      <path class="cls-1" d="m309.25,23.84l-.62-.15-1.2-.25-.85-.07c-.24,0-.48,0-.72,0-.2-.07-.39-.14-.59-.21"/>
    </g>
    <g>
      <path class="cls-1" d="m316.46,27.53h0c.06-.02.15-.05.25-.1.15-.07.25-.15.28-.17.18-.13.86-.5,1.56-.59.66-.09,1.19.09,1.58.21.63.21.8.42,1.5.62.39.11.72.15.94.17-.19.15-.48.35-.86.5-.3.12-.66.21-1.57.23-1.33.03-1.99.04-2.65-.33-.38-.21-.63-.47-.78-.63"/>
      <path class="cls-1" d="m320.74,27.72l-.63-.09-1.22-.13h-.85c-.24.03-.47.06-.71.08-.2-.05-.41-.1-.61-.15"/>
    </g>
    <g>
      <path class="cls-1" d="m289.59,32.97h0s.09-.13.14-.23c.08-.15.11-.28.11-.31.06-.21.37-.92.87-1.43.47-.48,1-.67,1.38-.8.62-.22.89-.16,1.56-.44.37-.15.66-.32.84-.45-.06.23-.16.57-.37.93-.16.28-.39.57-1.1,1.15-1.03.84-1.54,1.26-2.29,1.37-.43.06-.78.02-1-.02"/>
      <path class="cls-1" d="m293.08,30.5l-.55.32-1.05.65-.66.53c-.17.16-.35.33-.52.49-.19.08-.38.17-.58.25"/>
    </g>
    <g>
      <path class="cls-1" d="m316.82,11.26c.02-.06.04-.16.09-.26.08-.17.18-.31.34-.48.24-.26.46-.42.46-.42.52-.38,1.52-1.71,2.28-3.29.36-.74.54-1.11.66-1.66.19-.87.06-1.29.22-2.22.08-.49.24-1.08.54-1.73-.36.12-.87.34-1.4.78-.41.34-.82.81-1.6,2.27-1.13,2.12-1.69,3.18-1.73,4.71-.02.87.11,1.58.23,2.05"/>
      <path class="cls-1" d="m319.34,5.05c-.53.63-.84,1.2-1.02,1.6-.24.54-.18.6-.63,1.83-.22.6-.33.83-.48,1.34-.15.49-.24.91-.29,1.18"/>
    </g>
    <g>
      <path class="cls-1" d="m320.76,24.16c1.39.29,2.99.18,3.18.16.59-.04.74-.06.95-.12.52-.14.89-.38,1.4-.71.38-.25.84-.54,1.36-1.02.38-.34.61-.62,1.11-.93.23-.14.42-.23.56-.29-.56.04-1.04.1-1.42.15-.41.05-.86.13-1.77.29-.82.14-1,.18-1.27.29-.36.14-.47.24-1.01.54-.56.3-.98.49-1.43.68-1.17.51-1.86.68-1.86.84,0,.07.14.1.22.12Z"/>
      <path class="cls-1" d="m325.93,22.64c-.55.29-1,.44-1.31.52-.32.08-.44.08-.88.21-.47.14-.8.26-.92.3-.44.16-1.14.33-2.28.36"/>
    </g>
    <g>
      <path class="cls-1" d="m289.79,29.24c.09-.09-.34-.66-.6-1.34-.05-.15-.11-.31-.11-.31-.07-.22-.11-.36-.18-.56-.12-.35-.45-1.32-1.18-2.13-.61-.67-1.31-1.01-1.77-1.19,0,.66.15,1.13.27,1.43.08.2.33.56.82,1.3.5.74.63.9.77,1.05.27.28.33.27.64.61.36.4.37.48.64.73.25.23.63.49.7.42Z"/>
      <path class="cls-1" d="m287.72,26.12c.13.15.27.32.4.49,0,0,.12.15.22.3.33.48.45.92.69,1.38.12.21.3.52.61.86"/>
    </g>
    <g>
      <path class="cls-1" d="m303.55,32.84c.06.03.26-.31.55-.58.06-.06.13-.12.13-.12.09-.08.16-.13.24-.21.15-.14.57-.51.82-1.04.21-.45.23-.87.22-1.14-.33.14-.54.31-.66.44-.08.08-.21.28-.48.69-.26.41-.32.51-.36.61-.08.19-.07.22-.17.45-.12.27-.16.29-.23.47-.06.17-.11.42-.06.44Z"/>
      <path class="cls-1" d="m304.68,31.13c-.05.1-.1.2-.16.31,0,0-.05.09-.11.17-.17.27-.37.42-.54.64-.08.1-.2.26-.3.49"/>
    </g>
    <g>
      <path class="cls-1" d="m318.85,25.25c-.1-.54-.04-1.15-.03-1.22.02-.23.03-.28.06-.36.06-.2.16-.34.29-.53.1-.14.22-.32.41-.51.14-.14.25-.23.37-.42.06-.09.09-.16.12-.21-.02.21-.05.4-.07.54-.02.16-.06.33-.13.68-.06.32-.08.38-.12.49-.06.14-.1.18-.22.38-.12.21-.2.37-.28.54-.21.44-.28.71-.34.71-.03,0-.04-.05-.04-.09Z"/>
      <path class="cls-1" d="m319.48,23.28c-.12.21-.18.38-.21.5-.04.12-.04.17-.09.34-.06.18-.11.31-.13.35-.07.17-.14.43-.16.87"/>
    </g>
    <g>
      <path class="cls-1" d="m305.07,37.85c.68-.97,1.64-1.79,1.75-1.89.36-.3.45-.37.59-.45.36-.19.67-.24,1.11-.31.32-.05.71-.11,1.22-.08.36.02.62.07,1.03,0,.19-.03.34-.08.44-.12-.34.28-.64.51-.88.7-.26.19-.55.4-1.14.8-.53.37-.65.44-.85.52-.27.11-.38.1-.81.21-.45.11-.77.22-1.11.34-.88.31-1.35.59-1.42.48-.03-.05.04-.15.08-.21Z"/>
      <path class="cls-1" d="m308.68,35.96c-.44.11-.76.26-.97.38-.22.12-.29.19-.59.35-.33.17-.57.28-.66.31-.32.14-.79.42-1.46,1.04"/>
    </g>
    <g>
      <path class="cls-1" d="m300.71,38.72c.01-.12.04-.29.08-.48.12-.57.32-.97.44-1.2.25-.5.51-.82.58-.91.21-.26.37-.46.65-.64.27-.18.56-.28.77-.36.16-.06.3-.1.39-.12-.03.13-.07.32-.15.53-.04.1-.13.33-.4.75-.28.44-.45.69-.75.96-.17.15-.32.25-.63.45-.36.24-.67.41-.9.53"/>
      <path class="cls-1" d="m302.72,36.04c-.08.06-.21.15-.36.27,0,0-.23.18-.41.34-.27.23-.7.81-1.17,1.59"/>
    </g>
    <g>
      <path class="cls-1" d="m309.43,38.39c.49.25.94.67.99.71.17.16.21.2.26.26.12.17.18.33.25.55.06.17.12.36.16.63.03.19.03.33.11.54.03.1.07.17.1.22-.16-.15-.29-.28-.39-.39-.11-.11-.23-.25-.46-.51-.21-.24-.26-.3-.31-.39-.07-.13-.08-.19-.18-.4-.09-.22-.18-.38-.27-.55-.23-.43-.39-.65-.36-.7.02-.02.07,0,.1.02Z"/>
      <path class="cls-1" d="m310.62,40.09c-.09-.22-.19-.37-.27-.47-.08-.1-.11-.13-.21-.27-.11-.15-.18-.27-.2-.31-.09-.15-.26-.37-.6-.66"/>
    </g>
    <g>
      <path class="cls-1" d="m330.67,19.18c1.21-.01,2.46.3,2.61.33.46.12.57.15.73.23.37.18.6.41.91.74.23.24.51.53.79.96.2.31.31.56.61.85.14.14.27.24.36.3-.43-.11-.8-.22-1.1-.32-.31-.1-.65-.22-1.34-.47-.62-.22-.75-.28-.94-.4-.25-.16-.31-.25-.65-.55-.36-.31-.64-.51-.94-.72-.78-.55-1.29-.78-1.24-.9.02-.06.14-.06.22-.06Z"/>
      <path class="cls-1" d="m334.37,21.06c-.35-.3-.67-.48-.89-.58-.23-.11-.33-.13-.64-.28-.34-.17-.57-.31-.65-.36-.3-.18-.82-.41-1.73-.6"/>
    </g>
    <g>
      <path class="cls-1" d="m326.55,20.17c.25-.49.67-.94.71-.99.16-.17.2-.21.26-.26.17-.12.33-.18.55-.25.17-.06.36-.12.63-.16.19-.03.33-.03.54-.11.1-.03.17-.07.22-.1-.15.16-.28.29-.39.39-.11.11-.25.23-.51.46-.24.21-.3.26-.39.31-.13.07-.19.08-.4.18-.22.09-.38.18-.55.27-.43.23-.65.39-.7.36-.02-.02,0-.07.02-.1Z"/>
      <path class="cls-1" d="m328.25,18.98c-.22.09-.37.19-.47.27-.1.08-.13.11-.27.21-.15.11-.27.18-.31.2-.15.09-.37.26-.66.6"/>
    </g>
    <g>
      <path class="cls-1" d="m315.02,12.88c.02.07.4-.01.8.02.09,0,.18.02.18.02.12.02.2.03.32.04.2.02.76.09,1.32-.08.47-.14.81-.4,1-.59-.32-.15-.59-.19-.77-.2-.12,0-.35.03-.83.1-.48.07-.59.1-.69.13-.2.07-.21.1-.45.17-.28.09-.32.07-.51.14-.17.07-.39.19-.37.24Z"/>
      <path class="cls-1" d="m317.04,12.6c-.11.03-.22.06-.34.08,0,0-.1.02-.2.04-.31.05-.56,0-.84.02-.13,0-.33.03-.56.1"/>
    </g>
    <g>
      <path class="cls-1" d="m322.32,6.09c.11-.12.26-.28.42-.48.47-.6.69-1.13.81-1.43.27-.66.37-1.18.39-1.32.07-.42.12-.73.05-1.15-.07-.41-.23-.76-.34-1.02-.09-.2-.17-.35-.24-.47-.11.14-.26.34-.4.6-.07.12-.21.4-.39,1.02-.18.64-.29,1.01-.29,1.52,0,.28.04.51.12.97.09.53.2.97.29,1.28"/>
      <path class="cls-1" d="m323.2,1.93c.02.13.04.32.05.56,0,0,.03.37.03.67,0,.45-.18,1.34-.55,2.44"/>
    </g>
    <g>
      <path class="cls-1" d="m319.65,9.04c.9.27,1.9.31,2.01.31.37.01.46.01.59-.01.32-.06.54-.18.84-.35.22-.13.49-.28.8-.55.22-.19.35-.35.64-.5.13-.07.25-.12.33-.14-.35,0-.65,0-.89,0-.25,0-.54.02-1.1.06-.51.03-.62.05-.79.09-.22.07-.28.12-.6.27-.33.15-.59.24-.86.33-.7.24-1.13.3-1.12.4,0,.05.09.07.15.09Z"/>
      <path class="cls-1" d="m322.81,8.44c-.33.15-.6.21-.79.24-.2.03-.27.02-.54.07-.29.05-.49.11-.56.13-.27.07-.7.13-1.42.07"/>
    </g>
    <g>
      <path class="cls-1" d="m300.76,27.31c.13.02.31-.68.7-1.29.08-.13.18-.28.18-.28.13-.19.22-.31.33-.48.21-.31.77-1.17.96-2.24.16-.9,0-1.66-.14-2.13-.52.4-.81.81-.97,1.09-.11.18-.25.6-.52,1.44-.28.85-.32,1.05-.35,1.25-.06.38-.02.43-.09.88-.09.53-.15.59-.19.95-.03.34,0,.79.09.81Z"/>
      <path class="cls-1" d="m301.97,23.76c-.04.2-.09.4-.15.62,0,0-.05.19-.11.36-.18.55-.46.92-.67,1.39-.1.22-.23.56-.3,1.01"/>
    </g>
    <g>
      <path class="cls-1" d="m296.28,38.71c-.03.06.29.28.54.59.05.07.11.14.11.14.08.1.12.17.19.26.12.16.47.6.98.89.43.24.85.29,1.12.3-.11-.34-.27-.56-.39-.69-.08-.09-.27-.23-.65-.52-.39-.29-.48-.35-.58-.4-.19-.1-.22-.08-.44-.2-.26-.14-.28-.18-.46-.26-.17-.08-.41-.14-.43-.09Z"/>
      <path class="cls-1" d="m297.89,39.96c-.09-.05-.19-.12-.29-.18,0,0-.09-.06-.16-.12-.25-.19-.39-.4-.6-.59-.1-.09-.25-.21-.47-.33"/>
    </g>
    <g>
      <path class="cls-1" d="m289.67,26.92s0-.1,0-.17c-.02-.24-.05-.41-.05-.45-.02-.36,0-.64.02-.82.05-.55.18-.95.21-1.06.1-.32.18-.56.37-.83.19-.27.42-.47.58-.62.13-.11.24-.2.32-.26.02.13.05.32.06.55,0,.1,0,.35-.1.85-.1.51-.16.81-.35,1.17-.1.2-.21.35-.42.65-.25.35-.48.63-.64.82"/>
      <path class="cls-1" d="m290.65,24c-.06.09-.14.22-.23.38,0,0-.15.26-.26.46-.16.32-.35,1.01-.5,1.91"/>
    </g>
    <g>
      <path class="cls-1" d="m313.11,39.06c.49.25.94.67.99.71.17.16.21.2.26.26.12.17.18.33.25.55.06.17.12.36.16.63.03.19.03.33.11.54.03.1.07.17.1.22-.16-.15-.29-.28-.39-.39-.11-.11-.23-.25-.46-.51-.21-.24-.26-.3-.31-.39-.07-.13-.08-.19-.18-.4-.09-.22-.18-.38-.27-.55-.23-.43-.39-.65-.36-.7.02-.02.07,0,.1.02Z"/>
      <path class="cls-1" d="m314.3,40.76c-.09-.22-.19-.37-.27-.47-.08-.1-.11-.13-.21-.27-.11-.15-.18-.27-.2-.31-.09-.15-.26-.37-.6-.66"/>
    </g>
    <g>
      <path class="cls-1" d="m310.83,38.51c-.01-.07.37-.16.71-.36.07-.04.15-.09.15-.09.11-.07.17-.11.27-.18.17-.11.65-.4,1.23-.49.49-.08.9.02,1.16.1-.22.28-.45.43-.6.51-.1.06-.33.13-.79.27-.46.14-.57.16-.69.18-.21.03-.23,0-.48.04-.29.04-.32.08-.52.09-.19.01-.43,0-.44-.06Z"/>
      <path class="cls-1" d="m312.78,37.89c-.11.02-.22.04-.34.07,0,0-.1.03-.2.05-.3.09-.51.24-.77.35-.12.05-.31.12-.55.15"/>
    </g>
    <g>
      <path class="cls-1" d="m281.15,39.61c.12-.64.42-1.26.46-1.33.11-.23.14-.28.2-.36.14-.18.28-.27.49-.4.15-.1.33-.21.59-.31.19-.07.33-.1.51-.23.09-.06.15-.12.2-.16-.11.22-.2.4-.28.54-.09.15-.19.32-.39.65-.18.3-.23.37-.31.45-.11.11-.17.13-.36.28-.2.15-.34.28-.48.42-.37.35-.55.59-.61.56-.03-.02-.01-.08,0-.12Z"/>
      <path class="cls-1" d="m282.54,37.87c-.2.15-.32.3-.4.41-.08.11-.1.16-.22.31-.13.16-.22.26-.26.3-.13.14-.3.38-.5.84"/>
    </g>
    <g>
      <path class="cls-1" d="m278.61,40.46c.08-.17.19-.4.29-.69.31-.85.39-1.54.43-1.94.09-.87.03-1.53.01-1.71-.05-.54-.09-.93-.29-1.42-.2-.48-.47-.88-.67-1.17-.15-.22-.29-.4-.39-.52-.08.2-.17.48-.25.83-.03.16-.11.54-.11,1.34,0,.83,0,1.3.16,1.93.09.35.2.62.42,1.16.26.63.51,1.15.69,1.5"/>
      <path class="cls-1" d="m278.28,35.16c.06.16.14.39.23.67,0,0,.14.45.24.81.14.55.22,1.68.16,3.13"/>
    </g>
  </g>
</svg>