<?xml version="1.0" encoding="UTF-8"?>
<svg id="Layer_1" data-name="Layer 1" xmlns="http://www.w3.org/2000/svg" viewBox="0 0 193.15 203.79">
  <defs>
    <style>
      .cls-1, .cls-2, .cls-3, .cls-4 {
        fill: #b3b792;
      }

      .cls-1, .cls-3 {
        font-size: 5px;
      }

      .cls-1, .cls-3, .cls-4 {
        font-family: BradleyHandITCTT-Bold, 'Bradley Hand';
        font-weight: 700;
      }

      .cls-2, .cls-3, .cls-5 {
        stroke: #b3b792;
        stroke-miterlimit: 10;
        stroke-width: .25px;
      }

      .cls-4 {
        font-size: 4px;
      }

      .cls-5 {
        fill: none;
      }
    </style>
  </defs>
  <path class="cls-5" d="m168.09,132.78c.76,2.31,1.57,4.2,2.25,5.61.59,1.24,1.27,2.65,2.4,4.37.25.37,1.1,1.66,3.33,4.24,1.99,2.3,2.79,3,4.61,5,1.12,1.23,2.69,3.01,4.48,5.3-1.28,1.69-2.57,3.39-3.85,5.08-.18,1.81-.2,3.36-.17,4.54.03,1.39.09,3.24.58,5.59.33,1.58.76,2.87,1.1,3.8-.2.1-.4.19-.6.29-.26.11-.76.29-1.21.08-.26-.12-.4-.32-.46-.4-.5-.7-1.12-1.31-1.57-2.05-.21-.35-.77-1.01-1.9-2.33-1-1.18-1.82-2.54-2.98-3.55-.3-.26-.88-.74-.81-1.28.04-.34.32-.58.52-.72.94-1.29,1.85-2.22,2.53-2.83,1.35-1.23,2.38-1.8,2.61-3.06.07-.4.05-.81.02-1.54,0,0-.05-1.13-.25-2.09-.26-1.24-1.02-1.82-2.76-4.01-1.89-2.37-2.22-3.23-3.93-4.75-.38-.34-.72-.61-.95-.79-1.2-.2-2.41-.41-3.61-.61.06-1.48.12-2.97.18-4.45-.09-.6-.26-1.38-.62-2.25-.35-.85-.77-1.51-1.12-2-.82-1.72-1.63-3.44-2.45-5.16-.08-.18-.17-.44-.14-.75.03-.3.17-.44.11-.64-.04-.13-.17-.31-.59-.44-.18-.34-.35-.68-.53-1.03.36-.82.82-1.72,1.4-2.66.89-1.44,1.83-2.61,2.68-3.52-.88,2.4-.6,3.8-.17,4.65.17.33.32.49.62,1,.77,1.32,1.09,2.54,1.24,3.38v-.02Z"/>
  <path class="cls-5" d="m114.96,60.93c-.08,1.16.07,1.36.15,1.49.31.48,1.01.02,1.89.5.8.44.7,1.06,1.32,1.19.54.11,1.04-.25,1.38-.4-.06-.3-.15-.82-.26-1.46-.6-3.48-.64-4.65-1.59-5.56-.21-.2-.75-.72-1.27-.59-.52.12-.74.81-1.13,2-.38,1.18-.45,2.01-.5,2.83h0Z"/>
  <path class="cls-5" d="m120.06,64.56c-.87.23-1.24.61-1.42.92-.15.26-.36.74-.7,1.18-.07.1-.17.19-.31.29-.34.25-.49.22-.67.46-.26.36-.21.8-.18,1.11.05.56.09,1.35.05,2.42,2.07,1.33,2.22,2.34,2.2,2.8-.01.19-.06.5-1.34,2.36-1.09,1.58-1.27,1.69-1.34,2.2-.11.75.16,1.44.57,2.49.42,1.09.68,1.25.6,1.74-.15.86-1.15,1.38-1.52,1.58-.63.33-1.22.41-1.58.43-1.24,1.39-1.32,2.08-1.14,2.45.18.38.59.34.88.86.25.45.05.66.15,1.75.09,1,.29,1.25.07,1.53-.24.32-.59.13-1.11.54-.42.33-.35.57-.65.71-.51.23-.92-.36-1.58-.38-.8-.03-1.72.76-2.03,1.63-.44,1.25.58,2.17.15,3.99-.05.21-.13.45-.31.67-.53.62-1.57.65-2.28.46-.47-.12-.41-.24-.78-.32-1-.22-2.23.49-2.84,1.42-.21.31-.2.44-.68,2.02-.23.78-.43,1.41-.57,1.82-.23-.11-.58-.25-1.02-.38-.88-.25-1.26-.19-1.74-.48-.24-.15-.56-.42-.81-.96-.3.03-.74.09-1.26.2-.97.22-1.45.32-1.74.65-.45.51-.12.96-.65,1.62-.24.29-.23.11-.89.69-.51.44-.79.79-1.33.89-.11.02-.19.02-.23.02-.46.02-1.34.14-3.09.53-.13.21-.27.41-.4.62.31.32.61.63.92.95.86-.33.95-.28.95-.28.38.18-.07,1.15.39,1.86.28.44.8.61,1.22.7,2.81-.11,4.34-.99,5.22-1.79.76-.69,1.16-1.44,2.45-2.45,1.2-.94,2.25-1.4,2.62-1.57,2.22-1.03,7.78-4.88,11.89-10.82,3.17-4.58,4.4-8.85,4.95-10.82.96-3.45,1.2-6.21,1.34-7.99.13-1.62,0-4.13-.27-8.77-.05-.52-.1-1.03-.15-1.55h-.01Z"/>
  <path class="cls-5" d="m12.65,200.09c6.99-13.4,12.81-27.37,18.93-41.18,4.8-10.82,8.11-19.32,15.24-30.06,5.37-8.08,10.66-14.17,14.4-18.14-1.17-1.13-2.34-2.25-3.52-3.38-2.09,2.96-4.94,6.46-8.72,9.97-3.53,3.29-6.97,5.75-9.91,7.58-.74.9-1.48,1.81-2.22,2.71.5,1.24.99,2.48,1.49,3.73-.44,1.46-1.03,3.1-1.83,4.84-.72,1.58-1.48,2.97-2.22,4.17-1.79.36-3.57.72-5.36,1.08-.44-.13-.87-.27-1.31-.4l-.23-.91c-.34.72-.68,1.44-1.03,2.17-.87.1-1.75.19-2.62.29.25.48.49.95.74,1.43,2.05-.44,4.11-.87,6.16-1.31.57.23,1.14.46,1.71.68-.23.65-.46,1.29-.68,1.94.6.47,1.21.95,1.81,1.42-.28.41-.55.82-.83,1.23-.21.59-.49,1.33-.86,2.16-.64,1.44-1.23,2.48-1.39,2.77-.53.92-1.26,2.07-2.25,3.32-.25-.11-.5-.22-.75-.34-.82,1.93-1.65,3.86-2.47,5.8-.04.07-.19.3-.48.41-.37.14-.7,0-.76-.04-2.98-1.31-5.96-2.63-8.94-3.94-.4.07-.81.13-1.21.2-.56-.34-1.11-.67-1.67-1.01l-.25-1.57c-.49-.12-.98-.24-1.46-.35-.67.86-1.35,1.72-2.02,2.58,1.85.76,3.7,1.52,5.56,2.27-.86,1.48-1.72,2.96-2.58,4.44.4.22.81.44,1.21.66.92-1.44,1.84-2.89,2.76-4.33,3,1.38,6,2.76,9,4.15.12.22.26.51.35.88.09.33.11.63.12.86-3.09,4.15-6.19,8.3-9.28,12.45-.22.08-.54.16-.93.17-.45,0-.82-.07-1.06-.14-3.72-2.33-7.44-4.66-11.17-7,.56-.96,1.12-1.93,1.68-2.89.07-.65.13-1.3.2-1.95-.96-.22-1.93-.45-2.89-.67-.33.58-.67,1.17-1,1.75"/>
  <path class="cls-5" d="m64.89,111.21c0,.32.8.38,1.66,1.01.61.45.99.99,1.21,1.39,2.04,1.01,3.83,1.54,5.1,1.83,1.26.29,2.3.41,3.11.51,1.74.21,2.61.31,3.67.2,1.36-.14,1.29-.42,3.84-1.12,2.42-.66,3-.54,3.97-1.22s1.51-1.58,1.8-2.2c-.6-1.2-1.2-2.4-1.8-3.61-.09.06-.21.15-.29.31-.29.5.11.99.16,1.83.02.29.08,1.25-.46,1.65-.35.26-.81.19-1.51.1-.52-.07-.78-.11-1.04-.28-.66-.46-.48-1.21-1-1.4-.17-.06-.47.04-1.07.24-.64.22-.96.32-1.06.49-.3.48.29.98,0,1.6-.07.15-.12.15-.84.72-.92.72-.95.81-1.16.82-.28.02-.65-.27-1.38-.85-.48-.38-.72-.57-.82-.75-.34-.6-.05-1.06-.4-1.34-.17-.14-.25-.04-.92-.19-.65-.15-.64-.25-.82-.21-.49.1-.41.84-1.2,1.6-.35.34-.67.49-.81.55-.27.12-.68.3-1.13.18-.26-.07-.52-.32-1.03-.82-.47-.46-.7-.7-.77-.85-.32-.69.14-1.13-.2-1.6-.11-.16-.42-.28-1.03-.53-.65-.26-.97-.39-1.17-.34-.53.11-.49.69-1.2,1.34-.73.66-1.41.64-1.4.93h-.01Z"/>
  <path class="cls-5" d="m7.65,195.83c1.73-1.66,3.54-3.56,5.36-5.72,2.8-3.32,5.03-6.56,6.8-9.48-.37-.03-.74-.06-1.12-.09-.78.99-1.55,1.98-2.33,2.96l-2.03-.12c-3.33-2.21-6.67-4.42-10-6.63-.19,1.26-.39,2.52-.58,3.78-.76,1.63-1.51,3.26-2.27,4.88-.46-.18-.91-.35-1.37-.53"/>
  <path class="cls-5" d="m97.74.09c-1.42,1.62-2.84,3.24-4.26,4.86-1.78.63-3.56,1.26-5.34,1.88.19.79.37,1.58.56,2.37l-.38.63c-.02.24-.05.49-.07.73.22.28.44.56.66.84.93.4,1.86.79,2.79,1.19-1.07,5.38-2.14,10.77-3.21,16.15.86.14,1.72.28,2.58.42.55-3.33,1.09-6.65,1.64-9.98l.59.66c.43.03.86.07,1.29.1-.35,3.11-.7,6.21-1.05,9.32.64.06,1.28.12,1.92.17.47-7.41.93-14.82,1.4-22.22.59-1.07,1.19-2.14,1.78-3.21.29-.03.58-.05.87-.08-.12,2.98-.3,7.38-.49,12.48-.21,5.65-.21,6.04-.2,6.69.02,1.14.07,2.09-.06,3.47-.17,1.9-.56,3.44-.88,4.46-.02.29-.06.74-.14,1.27-.09.63-.12.58-.12.76-.01.93.76,1.2.83,1.99.04.49-.22.85-.7,1.51-.87,1.19-1.34.98-1.86,1.81-.3.49-.32,1.44-.34,3.33,0,.36,0,.78.28,1.12.28.35.73.46,1.04.54.42.11.77.1,1,.08.58,2.84.09,4.51-.5,5.54-.28.48-.68.99-1.01,1.94-.48,1.34-.39,2.34-.44,3.14-.07,1.15-.45,2.78-1.94,4.79-2.4,5.06-4.79,10.11-7.19,15.17l1.71.75c.83-1.79,1.66-3.58,2.5-5.37.42.16.84.33,1.26.49-1.09,2.24-2.19,4.48-3.28,6.72.37.3.75.6,1.12.9-.45.75-.9,1.49-1.34,2.24-.33.12-.84.36-1.34.82-.6.55-.9,1.15-1.04,1.49-.94,1.78-3.01,5.06-6.94,7.31-1.42.81-2.79,1.32-3.96,1.64.14.45.19.84.22,1.12.04.45.07.75-.06,1.12-.11.33-.29.56-.41.69.37.36.74.72,1.11,1.08,1.04-1.16,1.96-2.03,2.58-2.58,3.42-3.06,5.8-3.88,10.89-7.58.89-.65,1.59-1.19,2.02-1.52,1.76,1.27,3.63,2.53,5.63,3.78.66.41,1.32.81,1.97,1.2-.05-.5-.11-.99-.16-1.49-.76-.54-1.6-1.1-2.51-1.65-1.08-.65-2.12-1.21-3.09-1.68-.03-.27-.07-.55-.1-.82-.54-.25-1.08-.5-1.62-.76.21-.59.43-1.2.68-1.82.28-.72.57-1.41.86-2.06,1.35.59,2.71,1.18,4.06,1.77.36-.51.72-1.02,1.08-1.53-1.03-.46-2.06-.93-3.09-1.39.21-.6.43-1.21.64-1.81-.02-.96-.04-1.92-.07-2.89.67-1.05,1.34-2.1,2.01-3.15.64-1.13,1.28-2.26,1.91-3.39,1.39.69,2.77,1.39,4.16,2.08l.54-.84c.83.11,1.66.22,2.48.34,1.43.66,2.86,1.32,4.3,1.98.11,2.95-.03,5.42-.2,7.25-.3,3.16-.7,4.52-1.54,5.77-.7,1.04-1.51,1.73-2.08,2.15.82.41,1.63.83,2.45,1.24-.08.35-.18.73-.31,1.13-.28.84-.63,1.55-.96,2.13-.7.76-1.4,1.57-2.11,2.42-.87,1.05-1.68,2.08-2.42,3.08-.98-.11-1.97-.22-2.95-.34-.26-1.18-.53-2.37-.79-3.55-.21-.25-.41-.5-.62-.75-.01.75.04,1.73.3,2.85.24,1.02.58,1.86.89,2.49.43.16,1.08.33,1.86.26,1.87-.16,3.15-1.62,4.13-2.85,2.42-3.04,3.75-4.71,5.13-7.92.71-1.65,2.81-6.89,2.68-13.99-.03-1.77-.19-3.24-.34-4.26-2.96-.21-5.93-.43-8.89-.64.56-1.38,1.12-2.75,1.68-4.13-.25-.72-.49-1.43-.74-2.15-.05-.5-.07-1.05-.07-1.64.01-.94.11-1.79.23-2.52.19-.05.49-.17.7-.44.16-.2.28-.48.27-1.58,0-.38-.03-.91-.1-1.54-1.1-.06-2.19-.11-3.29-.17l-.1-.84c2.57.27,3.23.1,3.29-.13.06-.21-.39-.4-.34-.7.1-.6,1.98-.75,2.32-.77.63-.05,1.15,0,1.52.03.25.9.42,1.67.54,2.25.28,1.43.25,1.94.11,2.42-.14.47-.37.81-.54,1.02.3,1.69.57,2.53.81,2.52.21,0,.38-.67.54-1.99.77-.21,1.54-.43,2.31-.64.27-1.47.54-2.93.81-4.4-.05-1.45-.09-2.9-.14-4.35l-6.22-2.06c.27-.9.64-2.34.86-4.13.44-3.66-.1-6.09.88-6.51.95-.41,2.43,1.45,3.16.91.24-.18.17-.45.49-1.4.21-.62.44-1.12.61-1.46l-1.64-.52c-.8-.25-1.6-.51-2.4-.76.28-1.83.35-3.29.37-4.31.01-.8-.02-1.44.24-1.53.4-.14,1.22,1.12,1.85,2.22.81.96,1.62,1.93,2.43,2.89.61.23,1.28.46,2.01.67.56.16,1.1.29,1.61.4.31-.86.63-1.72.94-2.58-.59-.16-1.21-.34-1.83-.55-1.23-.4-2.36-.85-3.4-1.3-.27-.14-.72-.43-1.03-.97-.09-.16-.16-.32-.21-.46,2.73-.6,5.46-1.21,8.19-1.81,3.69-.22,7.37-.44,11.06-.66,3.14.48,6.28.96,9.42,1.44,2.33.24,4.67.48,7,.73-.03-.08-.06-.11-.08-.11-.16.03.21,2.89,1.1,8.57-1.61.88-3.87,2.35-6.05,4.7-2.68,2.9-4.05,5.86-4.75,7.75.25.5.2.74.12.87-.31.52-1.51.03-3.06.35-.82.17-1.43.5-1.79.72-1.04.21-2.08.41-3.12.62,0,.57.06,1.22.18,1.93.16.99.42,1.83.68,2.52-.33.04-.66.08-.99.12-.26-.82-.53-1.64-.79-2.46-1.67.57-3.34,1.14-5.01,1.71-1.71,0-3.43.03-5.14.04.06,1.51.12,3.02.18,4.53,1.92-.16,3.84-.33,5.77-.49.24.02.61.1,1,.32.69.39,1,1,1.1,1.23,1.17-.51,2.34-1.03,3.5-1.54.11.18.28.4.55.51.84.34,1.87-.65,3.85-2.23,3.1-2.46,3.77-2.57,4.26-2.42.94.3,1.4,1.64,1.76,1.49.17-.07.18-.43.18-.66-.15-.32-.29-.64-.44-.97.29-1.01.59-2.02.88-3.03l1.93.26c.45.67.91,1.35,1.36,2.02l8.49-5.04c1.52,2.86,3.04,5.73,4.56,8.59-4.24,3.3-7.85,5.7-10.37,7.28-3.93,2.47-5.92,3.41-8.63,5.72-3.32,2.83-5.47,5.78-6.74,7.8,4.21,8.97,8.41,17.93,12.62,26.9.39.13.97.37,1.48.87.62.6.73,1.18,1.23,2.09.28.51.73,1.22,1.47,2,.66-.03,2.23-.2,3.7-1.34.75-.58,1.22-1.22,1.52-1.7-.48-1.05-1.22-2.4-2.34-3.8-1.07-1.33-2.16-2.3-3.05-2.98-1.49-2.81-2.97-5.77-4.43-8.86-1.84-3.9-3.49-7.69-4.96-11.34,1.23-1.57,2.46-3.14,3.68-4.71,4.98-3.21,9.96-6.41,14.94-9.62,2.45,4.96,4.9,9.92,7.35,14.88-.92-.1-2.31-.12-3.9.34-2.95.86-4.67,2.85-5.3,3.67l.48,4.7c-.44.79-1.64,2.98-2.74,5.11-.15.29-.42.82-.2,1.1.31.39,1.5-.1,2.2-.1l3.33-3.91c1.99.3,3.97.6,5.96.91.65-2.33,1.3-4.66,1.94-6.99,2.25-.39,4.49-.78,6.74-1.17,2.16,4.19,4.32,8.38,6.48,12.56l-3.37,2.33c-.78,2.34-1.56,4.68-2.34,7.02l-2.73,2.36c-1.05.03-2.09.06-3.14.08-.32.94-.65,1.88-.97,2.82,2.07.52,4.13,1.05,6.2,1.57-.29.69-.59,1.39-.88,2.08-.57.14-1.14.28-1.71.42.11-.72.22-1.45.32-2.17l-.46-.19c-.4.31-.8.62-1.2.93,0-.78-.43-1.49-1.11-1.8-.77-.35-1.7-.15-2.28.52-.07.15-.23.47-.6.73-.4.28-.8.32-.96.32-.19.39-.37.77-.56,1.16.18.19.36.39.53.58-.38,1.15-.76,2.3-1.13,3.45.94,1.19,1.88,2.37,2.82,3.56-1.99.09-3.99.17-5.98.26.85-1.29,1.71-2.58,2.56-3.87-1.06-1.43-2.11-2.87-3.17-4.3-.13-.82-.26-1.63-.39-2.45-.63-.27-1.25-.53-1.88-.8l-1,1c-2-1-4-3-7.45-1.49.77,1.07,1.54,2.13,2.31,3.2-.33.2-.65.39-.98.59-.03.58-.03,1.45.18,2.46.44,2.09,1.48,3.4,2.23,4.53.88,1.31,1.98,3.28,2.83,6.09-1.51.34-3.02.67-4.53,1.01.08.28.17.57.26.86.34,1.06.72,2.05,1.12,2.96,1.34-.74,2.68-1.48,4.02-2.22,2,4,0,9,2,13,2,6,6,12,8,19,.38,1.34.52,4.34,2,8,0,0,1.9,4.72,6.25,8.98,1.46,1.44,2.41,1.95,3.35,2.18,1.04.26,2.64.32,2.63.39,0,0-.06.02-.06.02-1.35.15-.93,7.94-.93,7.94.12,2.19.34,5.08.76,8.49,0,3,3-1,5,0-1,1-2,1-2,2s1,1,1,2c2,1,4,2,5.73.3.61,1.73-1.76,1.64,0,0-1.07.98-1.44,2.32-.98,3.3.24.52.67.83.98,1"/>
  <path class="cls-5" d="m44.37,40.51c.42.5,1.04,1.14,1.92,1.71.61.4,1.19.67,1.68.86.76-.56,1.25-1.1,1.57-1.49.4-.5.64-.92,1.27-1.51.31-.29.4-.33.69-.6.55-.53.91-1.05,1.13-1.42.76-1.5,1.34-2.67,1.67-3.33.12-.23.27-.54.45-.98.21-.51.2-.59.3-.79.27-.55.7-.76,1.39-1.21.54-.35,1.03-.78,1.56-1.14.7-.48,1.71-1.22,2.99-2.32-.45-1.67-.89-3.34-1.34-5.01-3.02,2.67-6.04,5.34-9.06,8.02-.12.4-.33,1.01-.65,1.72-.91,2.05-2.04,3.44-3.3,4.97-.53.64-1.29,1.52-2.26,2.52h0Z"/>
  <path class="cls-5" d="m43.65,42.03c.73.7,1.45,1.39,2.18,2.09.07.16.17.46.15.85-.02.28-.1.51-.16.65-2.96,3.84-5.93,7.68-8.89,11.52-.17.18-.46.44-.89.64-.28.12-.53.18-.73.21-.92-.68-1.84-1.36-2.77-2.04-.05-.08-.2-.34-.16-.7.05-.41.31-.64.37-.7,3.11-3.94,6.21-7.88,9.32-11.81.06-.11.26-.42.66-.61.42-.19.8-.13.92-.1Z"/>
  <path class="cls-5" d="m32.27,56.96c-.1-.04-.37-.14-.71-.07-.43.09-.67.4-.72.48l-6.54,11.94c-.45.69-.45.95-.36,1.06.02.03.03.02.18.1.21.12.27.17.47.3.08.05.2.12.35.2,1.24.78,1.95,1.39,2.38,1.84.13.14.41.44.7.39.19-.04.32-.22.65-.86.16-.31.35-.67.54-1.08,1.9-3.6,3.8-7.2,5.7-10.79.07-.13.26-.54.17-1.06-.08-.46-.33-.75-.43-.86-.8-.53-1.6-1.05-2.4-1.58h.02Z"/>
  <path class="cls-5" d="m22.48,73.53c.67-.06,1.18.05,1.52.17.23.08.22.11,1.37.8.73.45.96.57,1.26.88.24.24.45.46.56.82.16.52-.01,1-.1,1.19-.08.3-.16.6-.24.9-.51,2.11-.74,4.12-.78,5.96-1.63-.22-3.27-.44-4.9-.67.03-.61.09-1.59.25-2.78.2-1.49.39-2.21.63-3.69.13-.82.31-2.05.42-3.59h.01Z"/>
  <path class="cls-5" d="m20.85,85.17c1.57.42,2.43.53,2.92.53.15,0,.69,0,1.34.23.21.07.38.15.49.21l-.06.48c0,.06-.91,6.97-.92,7.03-.18-.02-.85-.05-1.45.41-.92.7-.79,1.91-.78,1.97-.35.2-.79.43-1.33.61-.63.21-1.2.31-1.65.35.08-2.07.26-4.31.58-6.69.24-1.81.54-3.53.87-5.12h-.01Z"/>
  <path class="cls-5" d="m83.3,40.45c.19,0,.39.03.58.04.35-.57.7-1.14,1.04-1.71-.08-.17-.17-.33-.25-.5.19-1.04.39-2.09.58-3.13.82.53,1.64,1.06,2.46,1.59.13.33.25.67.38,1,.61.08,1.22.17,1.84.25.17-.13.33-.25.5-.38,1.11-.04,2.23-.07,3.34-.11-.31,1.26-.62,2.51-.93,3.77-.29.12-.58.25-.88.37l.08,2.36c.34.18.67.35,1.01.53.21,1.11.42,2.23.64,3.34-1.05,0-2.1.02-3.16.03-.16-.22-.32-.44-.48-.66-.57.16-1.13.32-1.7.48-.04.28-.09.57-.13.85-.9.6-1.8,1.2-2.71,1.8-.26-1.12-.51-2.25-.77-3.37.11-.23.23-.46.34-.69-.25-.5-.5-.99-.74-1.49-.38.04-.76.09-1.14.13-.76-.7-1.52-1.4-2.28-2.1l2.36-2.41h.02Z"/>
  <path class="cls-5" d="m85.21,34.53l.81-.08c1.08.85,2.16,1.7,3.24,2.55l3.16-.27,1.77-.35.81,1.16c-.14,1.32-.28,2.65-.42,3.97-.13.05-.47.19-.73.54-.29.39-.31.79-.31.93,0,.09.05.36.27.58.33.34.8.28.85.27l.15,2.55c-.15.14-.48.5-.62,1.08-.15.62,0,1.12.08,1.31-.37-.06-.74-.13-1.11-.19l-.33.76-1.36-.08c-.67-.18-1.33-.37-2-.55-1.26.87-2.53,1.74-3.79,2.61-.37-.12-.73-.24-1.1-.37-.33-1.67-.65-3.34-.98-5.01-1.17-.9-2.34-1.79-3.5-2.69l.2-1.43c1.13-.76,2.25-1.52,3.38-2.28.11-1.28.22-2.55.33-3.83.4-.39.8-.78,1.2-1.16v-.02Z"/>
  <path class="cls-5" d="m111.16,145.62c-1.57-3.4-4.3-6.13-6.29-9.3-2.16-3.45-1.88-2.51-4.02-5.93-1.9-3.02-3.58-6.19-6.86-12.4-.89-1.68-1.61-3.06-2.1-4,2.22.2,4.45.4,6.7.58,2.19.18,4.37.35,6.53.51,1.36-.9,3.38-2.01,6-2.75,1.95-.55,3.69-.74,5.06-.79,1.7.17,3.41.33,5.11.5.59.06,1.49.17,2.58.35,1.7.28,2.32.49,3.5.67.58.09,2.11.32,3.72.19,1.77-.14,2.57-.62,6.68-2.23,1.48-.58,2.68-1.03,3.43-1.3,2.37,4.93,4.74,9.86,7.12,14.79,1.49,3.01,2.98,6.03,4.46,9.04-3.26.47-5.79,1.17-7.5,1.71-3.33,1.06-4.41,1.83-6.72,1.65-1.5-.12-2.22-.54-4.41-.55-1.41,0-2.46.16-3.62.35-1.41.23-1.92.41-5.85,1.44-2.95.77-2.86.72-3.55.94-2.22.69-3.97,1.47-5.11,2.03-.65,1.23-1.51,2.57-2.65,3.9-.29.33-.57.64-.86.94-.3.11-.74.21-1.05,0-.18-.12-.26-.29-.28-.34h-.02Z"/>
  <path class="cls-5" d="m127.84,200.09c-5.02-17.86-7.44-27.49-8.68-33.07-.28-1.24-1.01-4.58-2.46-8.94-1.64-4.9-3.42-8.78-4.7-11.34.39-.12.78-.23,1.16-.35,1.05-1.49,2.09-2.98,3.14-4.47,1.96-.76,3.92-1.51,5.88-2.27,1.44,3.66,2.87,7.31,4.31,10.97.42,1.57.84,3.13,1.25,4.7.8.83,1.89,2.13,2.82,3.92.65,1.25.98,2.26,1.41,3.6.57,1.79.55,2.21,1.49,6.03.76,3.12.73,2.67.86,3.45.33,2.02.23,3.21,1.02,5.01.28.63.55,1.08.71,1.33,1.29,2.1,2.53,2.51,4.94,4.62.64.56,3,2.66,4.86,5.33.2.29.47.7.94,1.33,1.31,1.78,2.4,2.99,2.74,3.37.98,1.1,2.62,3.05,5.48,6.77"/>
  <path class="cls-5" d="m91.18,112.24c1.25.09,2.53.21,3.84.36,3.5.4,6.78.96,9.8,1.63,1.41-.98,3.35-2.06,5.8-2.77.58-.17,3.19-.9,6.77-.75.98.04,2.53.32,5.63.88,5.21.94,6.24,1.3,8.14.91.85-.17,2.27-.54,3.35-.91,1.4-.48,2.1-.72,2.87-1.01,1.1-.42,2.48-.99,4.04-1.74,2.97,6.27,6.93,14.47,11.48,23.36,3.55,6.93,5.32,10.4,6.65,12.7,2.32,4.03,3.13,5.05,4.31,7.93,1.77,4.32,3.19,9.9,3.29,10.3.13.52.25,1.01.54,2.16.87,3.44,1.31,5.16,1.79,6.66.47,1.48,1.07,2.93,2.27,5.85,1.63,3.99,1.48,3.25,1.91,4.51,1.35,3.93,2.44,9.79,2.78,10.82.14.44.3.88.3.88,0,0,.1.27.2.55.19.51,1.2,2.67,2.7,5.55"/>
  <path class="cls-5" d="m81.75,118.08c-2.06-.53-3.89-.69-5.33-.71-.32,1.39-.91,3.19-2.04,5.09-.56.95-1.16,1.76-1.72,2.43-.6,2.49-1.17,5.05-1.72,7.68-.68,3.25-1.28,6.42-1.82,9.5.13.83.27,1.66.4,2.49,1.26,2.3,2.56,3.94,3.53,5.02,1.62,1.8,2.54,2.31,3.53,3.84,1.29,1.98,1.64,4.06,1.72,5.56-1.24,6.35-2.51,12.72-3.81,19.14-1.45,7.15-2.92,14.25-4.41,21.29,1.76-.35,3.91-1.12,6.41-2.04,2.13-.79,4.13-1.79,5.63-3.29.21-6.09.65-11.1,1.04-14.72.32-2.91.63-5.19,1.25-9.64.8-5.72,1.52-10.45,2.04-13.79-.13-.46-.35-1.15-.71-1.96-.88-1.97-1.66-2.5-2.04-3.76-.23-.75-.35-1.9.24-3.53,1.43-8.58,2.86-17.16,4.29-25.74-1.46-.94-3.64-2.12-6.49-2.86h.01Z"/>
  <path class="cls-5" d="m95.08,122.1l-1.44-2.49c-.96-1.61-1.91-3.23-2.87-4.84-.68.13-1.38.27-2.08.43-2.33.53-4.48,1.18-6.43,1.89,4.28,1.67,8.55,3.33,12.83,5h0Z"/>
  <path class="cls-5" d="m68.18,200.09l8.81-39.27c.17-.53.37-1.35.36-2.36,0-.33-.05-1.89-1.07-3.69-.71-1.26-1.07-1.18-2.89-3.25-1.11-1.26-1.81-2.23-2.76-3.56-1.24-1.73-1.87-2.62-2.18-3.6-.48-1.51-.41-2.83-.36-3.42.08-.85.23-1.06.58-2.4.36-1.4.22-1.24.89-4.76.33-1.71.47-2.32.71-3.83.12-.73.21-1.34.26-1.75l-1.41-.51c-1.03,1.16-1.94,2.06-2.64,2.71-.94.89-1.39,1.22-1.79,1.48-.93.61-1.68.87-2.33,1.12-.86.33-1.96.89-4.17,2.02-.86.44-2.57,1.33-4.66,2.55-.78.46-1.44.86-1.93,1.16-.72,1.02-1.43,2.03-2.15,3.05-2.24,2.96-4.48,5.91-6.72,8.87.03.97.06,1.94.09,2.91-.04,1.03-.13,2.37-.36,3.94-.05.34-.25,1.73-.76,3.85-.29,1.23-.59,2.31-1.79,6.14-.37,1.19-.87,2.78-1.48,4.66.75,1.11,1.49,2.21,2.24,3.32-.21,1.03-.55,2.6-1.12,4.48-.45,1.5-.75,2.25-1.25,3.67-.29.83-.41,1.21-2.11,6.9,0,0-1.34,4.5-2.02,6.76h0s-.2.69-.22.76c-.11.37-.29.98-.58,2.04"/>
  <path class="cls-5" d="m32.01,200.09c.53-.89,1.17-2.11,1.75-3.63.35-.93.56-1.64.63-1.89.61-2.11,2.74-9.26,5.68-19.07l-2.23-3.2c.4-1.28.98-3.12,1.65-5.34,1.01-3.33,1.21-4.11,1.31-4.51.39-1.57.89-3.58,1.16-6.21.16-1.52.28-3.58.15-6.02l.94-1.13c2.38-3.1,4.75-6.2,7.13-9.31.31-.44.63-.88.94-1.32.46-.36.99-.74,1.6-1.11.72-.43,1.4-.77,2.01-1.03,2.7-1.38,5.41-2.76,8.11-4.14.39-.15.95-.39,1.57-.77.88-.55,1.38-1.08,2.29-2.01.53-.54,1.35-1.38,2.43-2.46.52.18,1.05.37,1.57.55.16-.96.31-1.91.47-2.87.28-.36.67-.86,1.13-1.46.88-1.16,1.06-1.46,1.21-1.74.31-.57.37-.88.69-1.79.22-.62.54-1.5.99-2.57-.53-.03-1.24-.1-2.07-.25-.41-.07-1.65-.3-3.5-.97-1.2-.43-2.62-.93-4.3-1.93-1.1-.65-2.58-1.67-4.1-3.2"/>
  <path class="cls-5" d="m67.76,113.62c-.97-.37-2.29-1-3.62-2.09-.88-.72-1.55-1.46-2.04-2.09"/>
  <path class="cls-5" d="m95.26,123.69c5.03,7.52,10.06,15.03,15.09,22.55-.15.14-.39.36-.67.63-1.71,1.57-2.42,2.04-2.97,2.59-.98.98-1.07,1.86-1.79,3.84-.53,1.47-1.39,3.51-2.82,5.89-.21.96-.43,1.92-.64,2.88-.34.69-.88,1.75-1.6,3.01-1.35,2.35-1.68,2.5-2.88,4.61-1.16,2.04-1.95,3.83-2.37,4.8-.38.87-.68,1.62-.9,2.18-.03.76-.06,1.89-.06,3.26,0,2.95.14,4.86.32,8.13.09,1.61.21,3.93.32,6.78-3.82.02-7.64.04-11.46.06.14-4.84.46-9.97,1.02-15.36.88-8.44,2.2-16.19,3.73-23.17,0-.39-.06-.98-.29-1.64-.35-1.01-.87-1.45-1.47-2.4-.33-.53-.76-1.33-1.1-2.43,0-.64,0-1.62.08-2.82.19-3.25.67-5.39,1.18-7.92.93-4.69.49-3.41,2.27-13.17.35-1.91.65-3.5.86-4.62,2.05.77,4.09,1.55,6.14,2.32h.01Z"/>
  <path class="cls-5" d="m72.47,200.09c1.29-.66,2.63-1.32,4.03-1.98,1.51-.7,2.98-1.35,4.41-1.95.29-.02.59-.04.88-.06,0,.48,0,.97-.01,1.45-.32.16-.65.34-.99.53-.76.45-1.42.92-1.97,1.38-.13.21-.26.42-.39.63"/>
  <path class="cls-5" d="m79.25,200.09c.18-.29.56-.79,1.2-1.2s1.25-.53,1.58-.58c.1.59.19,1.18.29,1.77"/>
  <path class="cls-5" d="m83.14,200.09c-.1-1.33-.19-2.65-.29-3.98,3.87-.07,7.74-.14,11.61-.21.22,1.4.44,2.79.66,4.19"/>
  <path class="cls-5" d="m96.29,200.09c-.85-4.62-1.5-9.92-1.63-15.79-.07-2.88,0-5.61.15-8.17,3.58-6.63,6.14-11.3,6.93-12.52.11-.16.47-.71.72-1.52.26-.85.28-1.64.23-2.24,1.46-2.41,2.35-4.45,2.9-5.9.48-1.27.81-2.37,1.74-3.68.97-1.36,2.09-2.24,2.9-2.77.3-.04.6-.07.9-.11,1.33,2.38,2.27,4.51,2.94,6.18.98,2.44,1.56,4.42,1.92,5.68.57,1.95.9,3.42,1.05,4.03,1.85,8.02,4.5,17.78,4.96,19.47.32,1.17.8,2.9,1.77,6.38,1.28,4.57,2.34,8.34,3.08,10.94"/>
  <path class="cls-5" d="m155.86,200.09c-3.76-4.15-6.27-7.57-7.91-10.01-1.06-1.58-1.8-2.82-3.36-4.39-1-1.01-1.53-1.34-5.63-4.82-1.61-1.36-2.32-1.99-2.87-3.14-.57-1.19-.48-1.93-.65-3.79-.36-3.92-1.36-6.97-2-8.94-.38-1.17-.72-2.2-1.35-3.57-1.48-3.21-2.57-3.88-3.79-7.04-.3-.77-.75-2.05-.97-2.71-.52-1.49-.64-1.91-1.03-3.03-.53-1.53-.94-2.71-1.57-4.22-.64-1.52-1.12-2.47-1.73-4.33-.12-.36-.21-.67-.27-.87,2.56-.85,4.77-1.33,6.44-1.62,2.71-.47,4.06-.71,5.42-.54,1.65.2,2.52.67,4.22.38.86-.15.92-.31,2.55-.7,1.22-.3,1.72-.33,3.2-.6,1.15-.21,2.12-.43,4.06-.87,1.26-.28,2.77-.64,4.49-1.08.57,1.15,1.34,2.69,2.27,4.49.91,1.75,1.61,3.07,2.17,4.1,1.93,3.6,2.29,4.13,3.65,6.72,1.15,2.18,1.72,3.27,2.19,4.31.39.87,1.59,3.59,2.7,7.52,1.06,3.77.63,3.65,1.68,7.3.65,2.28,1.3,4,2.41,6.94.54,1.42,1.11,2.87,2.26,5.77.53,1.34.99,2.17,1.46,3.65.39,1.23.6,2.22.88,3.5.5,2.34.46,2.85.95,4.53.17.59.4,1.36.8,2.34.26.63.47,1.04,1.53,3.14.16.32.65,1.29.8,1.59"/>
  <path class="cls-5" d="m90.23,113.4c-.44.34-1.13.82-2.07,1.21-.51.21-.52.16-2.33.64-1.38.37-2.01.57-3.42.91-.48.11-.72.17-.9.2-1.18.18-2.18,0-2.85-.17"/>
  <path class="cls-5" d="m89.26,111.62c.31.63.62,1.26.93,1.89"/>
  <path class="cls-5" d="m28.65,74.49c2.03,1.8,4.9,4.57,7.88,8.34,3.37,4.27,4.4,7.61,6.45,9.72,4.88,5,10.99,8.87,15.89,13.89,2.08-3.29,5.04-4.07,7.96-6.24,2.28-3.1,5.28-4.1,8.64-3.88-5.09,3.68-9.6,8.12-13.38,13.13-1.07-1-2.15-2-3.22-3.01"/>
  <path class="cls-5" d="m.12,57.44c1.57,1.25,3.13,2.5,4.7,3.76,1.38.29,2.5.47,3.24.58.72.11,4.58.68,8.07,1.31.64.12,1.2.22,1.8.63,1.08.74,1.09,1.64,2,3.08.54.86.7.8,2.74,2.91.66.68,1.6,1.68,2.7,2.95.06.08.73.91,1.78.84.59-.04,1-.35,1.15-.48"/>
  <path class="cls-5" d="m.12,59c1.77,1.2,2.53,2.02,2.89,2.56.08.12.29.46.71.71.58.35,1.2.3,1.42.28.45-.03,2.53.19,6.69.64,1.85.2,2.33.33,2.63.43.67.21,2.07.67,3.27,1.85,1.09,1.07.52,1.28,1.99,3.13.64.81,1.21,1.34,2.28,2.78.24.33.44.6.57.78-1.01.14-2.03.28-3.04.42-.62.11-1.52.21-2.59.12-.72-.06-1.52-.21-2.82-.66-1.55-.54-2.01-.88-4.04-1.82-1.91-.89-1.67-.66-4.38-1.88-1.18-.53-1.73-.8-3.38-1.54-.93-.42-1.7-.75-2.21-.97"/>
  <path class="cls-5" d="m.12,66.72c1.67.43,2.95.94,3.83,1.34.71.32.99.49,3.21,1.56,1.05.51,1.57.76,1.96.94,1.23.56,1.57.66,4.1,1.68,2.62,1.06,2.74,1.15,3.33,1.22.96.12,1.36-.02,3.13-.03,1.21,0,2.18.05,2.8.1"/>
  <path class="cls-5" d="m26.63,75.39c1.26.6,3.04,1.59,4.87,3.2,2.31,2.03,3.3,3.83,4.89,6.27,2.63,4.05,5.1,7.86,8.9,11.45,3.31,3.13,4.96,4.69,6.86,5.83.58.35,2.55,1.49,4.27,3.73.18.24.33.44.42.58-.55.22-1.09.43-1.64.65-.49.48-.98.97-1.48,1.45-.39.39-.98.97-1.69,1.67-3.93,3.82-9.75,9.49-16.9,14.87-6.42,4.84-12.09,8.08-13,12-.94,4.04-1,4.5-1,4.5-.24,1.83-.18,3.01-1,4.5-.67,1.23-1.42,1.74-1.62,1.88-.87.57-1.66.61-2.64.74s-2.32.48-4.99,1.18c-2.58.67-2.33.81-4.58,1.34-1.4.33-2.12.43-3.47.86-1.17.37-2.09.77-2.7,1.05"/>
  <path class="cls-5" d="m.12,154.83c.79-.43,1.58-.87,2.37-1.3,2.19-.51,3.94-.98,5.09-1.31,4.63-1.3,4.86-1.65,6.99-1.91,1.98-.24,2.66-.04,4.02-.65.7-.32,2.12-1.09,3.13-2.66.62-.96.81-1.8,1.05-2.89.68-3.05-.04-4.05.63-5.94.3-.85.95-2.06,2.54-3.27,3.07-2.59,6.14-5.18,9.21-7.77,4.24-3.46,8.48-6.92,12.72-10.38,2.54-2.61,5.09-5.23,7.63-7.84.59-.33,1.18-.65,1.78-.98"/>
  <path class="cls-5" d="m75.61,42.01c1.38,4.43,2.76,8.86,4.14,13.3-1.26,2.76-2.53,5.52-3.79,8.29-1.87,3.95-3.74,7.9-5.61,11.85,1.26,5.21,2.51,10.43,3.77,15.64.07.19.43,1.24-.1,2.37-.57,1.21-1.72,1.58-1.9,1.63-1.55.57-3.27,1.34-5.06,2.37-4.34,2.51-7.33,5.56-9.25,7.93"/>
  <path class="cls-5" d="m82.16.09c.22,1.56.42,3.14.62,4.74.83,6.78,1.42,13.37,1.81,19.75.5,1.58,1.01,3.17,1.51,4.75-.14.56-.36,1.2-.68,1.88-.58,1.24-1.3,2.16-1.88,2.79-2.29,2.5-4.58,5-6.87,7.51-3.15-2.9-6.29-5.79-9.44-8.69-.44-.46-1.17-1.22-2.07-2.15-1.54-1.6-1.6-1.65-1.75-1.81-1.94-2.11-1.8-4.2-3.72-8.85-.28-.69-.73-1.72-1.37-2.96-.07-5.65-.13-11.3-.2-16.95"/>
  <path class="cls-5" d="m69.33,97.68c-.88.26-2.01.7-3.2,1.45-1.92,1.21-3.11,2.69-3.77,3.66"/>
  <path class="cls-5" d="m84.01,35.69c-2.16,2.22-4.33,4.44-6.49,6.65,2.28,3.44,4.56,6.87,6.84,10.31.23.28.84,1.06.91,2.23.04.69-.13,1.24-.25,1.57-3.54,7.26-7.07,14.53-10.61,21.79-.64.33-1.28.65-1.91.98.98,3.94,1.97,7.87,2.95,11.81"/>
  <path class="cls-5" d="m72.02,78.21c.51-.19,1.01-.39,1.52-.58,3.45-7.22,6.89-14.44,10.34-21.66.08-.1.46-.58.4-1.25-.04-.45-.26-.76-.36-.89l-5.77-8.28,1.88,6.26c.24.89.48,1.79.72,2.68.12.24.27.64.22,1.12-.06.59-.38.99-.45,1.07-.48.64-3.08,6.08-8.81,18.66.1.95.21,1.91.31,2.86h0Z"/>
  <path class="cls-5" d="m83.54.09c.34.74.78,1.86.99,3.27.25,1.65,0,2.37-.04,4.34-.03,1.25.07,1.22.52,6.01.26,2.8.39,4.2.44,5.01.22,4.05-.1,4.85.64,6.52.29.66.68,1.31,1.03,2.55.54,1.89.54,2.46.48,2.74-.18.8-.64,1.13-1.48,2.12-.57.68-1.34,1.68-2.11,3.04"/>
  <path class="cls-5" d="m75.47,96.31c1.67,1.5,3.37,3.07,5.08,4.72,2.45,2.36,4.75,4.69,6.91,6.98"/>
  <path class="cls-5" d="m76.31,95.03c3.35,3.7,7,7.36,10.97,10.94.42.38.83.75,1.25,1.12"/>
  <path class="cls-5" d="m91.18,112.24c-.88-1.72-1.77-3.44-2.65-5.15"/>
  <path class="cls-5" d="m.9.09c.44.45,1.1,1.14,1.91,1.96,1.82,1.83,2.23,2.17,3.89,3.83,1.44,1.43,2.71,2.7,4.3,4.47.82.92,1.4,1.6,2.15,2.48,1.51,1.79,2.81,3.39,3.86,4.73.42.41,1.05,1.01,1.84,1.71,1.55,1.38,3.71,3.27,6.75,5.04.91.53,2.21,1.23,3.83,1.92L31.06.09"/>
  <path class="cls-5" d="m32.27.09c-.72,13.2-1.27,22.66-1.5,24.67-.03.25-.13,1.07.15,2.05.41,1.43,1.4,2.3,1.8,2.66,2.15,1.92,4.01,4.15,6.18,6.04,1.32,1.15,3.21,2.84,5.47,5"/>
  <path class="cls-5" d="m.12.88c1.04,1.04,2.64,2.65,4.63,4.6,4.8,4.71,4.8,4.53,5.82,5.77,2.02,2.46,2.5,3.74,5.3,6.85.78.86,1.2,1.33,1.88,1.97,2.94,2.78,6.11,4.46,8.54,5.73,1.58.82,2.99,1.46,4.36,2.96.39.42.57.7,1.27,1.45,1.26,1.37,2.29,2.25,2.82,2.72.58.51,2.08,2.05,5.07,5.11.97,1,2.29,2.35,3.84,3.98"/>
  <path class="cls-5" d="m28.68,74.62c2.73-6.08,5.58-11.1,8.04-15.02,4.78-7.6,10.09-14.17,12.17-16.16.16-.15,1.54-1.47,3.17-3.36.51-.59.92-1.07,1.38-1.72,1.05-1.48,1.67-2.91,2.05-4.03,1.02-.8,2.07-1.69,3.14-2.65,1.17-1.05,2.24-2.09,3.21-3.1.22.42.43.84.65,1.26.05.05.11.11.18.16.39.31.81.43,1.12.49.61.58,1.22,1.17,1.83,1.76,3.38,3.26,6.71,6.52,9.99,9.78"/>
  <path class="cls-5" d="m57.33.09c.21,2.71.24,4.9.23,6.42,0,2.54.2,5.1,0,7.63-.03.42-.13,1.51.19,2.83.15.62.32,1.06.43,1.32.71,1.76,1.68,4.19,2.08,5.42.34,1.05.7,2.59.71,4.59"/>
  <circle class="cls-2" cx="122.34" cy="191.78" r="1.79"/>
  <text class="cls-1" transform="translate(14.04 40.47) scale(.96 1)"><tspan x="0" y="0">Nørrebro</tspan></text>
  <text class="cls-1" transform="translate(52.06 66.72) scale(.96 1)"><tspan x="0" y="0">Indre by</tspan></text>
  <text class="cls-1" transform="translate(6.08 114.91) scale(.96 1)"><tspan x="0" y="0">Vesterbro</tspan></text>
  <text class="cls-4" transform="translate(83.54 99.06) scale(.96 1)"><tspan x="0" y="0">Christiania</tspan></text>
  <text class="cls-1" transform="translate(119.7 35.15) scale(.96 1)"><tspan x="0" y="0">Refshaløen</tspan></text>
  <text class="cls-1" transform="translate(97.99 122.71) scale(.96 1)"><tspan x="0" y="0">Amagerbro</tspan></text>
  <text class="cls-4" transform="translate(172.42 136.22) scale(.96 1)"><tspan x="0" y="0">Amager</tspan><tspan x="0" y="4.8">Strandpark</tspan></text>
  <text class="cls-1" transform="translate(129.03 154.47) scale(.96 1)"><tspan x="0" y="0">Sundbyøster</tspan></text>
  <text class="cls-3" transform="translate(96.54 188.56) scale(.96 1)"><tspan x="0" y="0">Helse Cenret</tspan></text>
</svg>