<?xml version="1.0" encoding="UTF-8"?>
<svg id="Layer_1" data-name="Layer 1" xmlns="http://www.w3.org/2000/svg" viewBox="0 0 149.91 149.98">
  <defs>
    <style>
      .cls-1, .cls-2 {
        font-family: BradleyHandITCTT-Bold, 'Bradley Hand';
        font-size: 4px;
        font-weight: 700;
      }

      .cls-1, .cls-2, .cls-3 {
        isolation: isolate;
      }

      .cls-1, .cls-4 {
        fill: #594838;
      }

      .cls-2 {
        fill: #b3b792;
      }

      .cls-4 {
        stroke: #594838;
      }

      .cls-4, .cls-5 {
        stroke-miterlimit: 10;
        stroke-width: .25px;
      }

      .cls-5 {
        fill: none;
        stroke: #b3b792;
      }
    </style>
  </defs>
  <g>
    <path class="cls-5" d="m124.49,31.73c.78,2.26,1.61,4.11,2.3,5.49.61,1.22,1.31,2.6,2.46,4.28.25.37,1.13,1.62,3.41,4.15,2.04,2.25,2.86,2.94,4.72,4.89,1.15,1.2,2.75,2.95,4.59,5.2-1.31,1.66-2.63,3.32-3.94,4.97-.18,1.77-.2,3.29-.17,4.45.03,1.36.09,3.17.59,5.47.34,1.55.77,2.82,1.13,3.72-.21.1-.41.19-.62.29-.26.11-.77.28-1.24.07-.27-.12-.41-.31-.47-.39-.51-.69-1.15-1.28-1.61-2-.22-.34-.79-.99-1.94-2.28-1.02-1.15-1.86-2.48-3.05-3.48-.31-.26-.9-.72-.83-1.25.04-.33.32-.57.53-.71.97-1.27,1.89-2.17,2.59-2.77,1.38-1.21,2.43-1.76,2.67-3,.07-.39.06-.8.02-1.51,0,0-.05-1.11-.26-2.04-.26-1.21-1.04-1.78-2.83-3.93-1.93-2.32-2.27-3.16-4.03-4.65-.39-.33-.73-.6-.97-.77-1.23-.2-2.46-.4-3.7-.6.06-1.45.12-2.91.19-4.36-.09-.59-.27-1.36-.63-2.2-.36-.83-.79-1.48-1.15-1.95-.84-1.69-1.67-3.37-2.51-5.06-.08-.17-.18-.43-.14-.74.04-.3.17-.43.11-.63-.04-.13-.17-.3-.61-.43-.18-.33-.36-.67-.54-1,.37-.8.84-1.68,1.43-2.6.91-1.41,1.88-2.55,2.75-3.45-.9,2.35-.62,3.72-.17,4.55.18.33.33.48.63.98.79,1.29,1.12,2.49,1.27,3.31l.02-.02Z"/>
    <path class="cls-5" d="m57.4.44c-.08.25-.17.56-.31.99-.24.76-.44,1.38-.58,1.79-.23-.1-.59-.25-1.04-.37-.9-.25-1.29-.18-1.78-.47-.25-.15-.57-.41-.83-.94-.31.03-.76.09-1.29.2-.99.21-1.49.32-1.78.64-.47.5-.12.94-.66,1.59-.24.29-.23.11-.91.67-.52.43-.81.77-1.37.87-.11.02-.2.02-.24.02-.47.02-1.37.14-3.16.52-.14.2-.27.4-.41.61.31.31.62.62.94.93.88-.32.97-.28.97-.28.38.18-.08,1.12.4,1.82.29.43.82.6,1.25.68,2.88-.11,4.44-.97,5.34-1.76.78-.68,1.19-1.41,2.5-2.4,1.23-.92,2.31-1.37,2.68-1.54,1.21-.54,3.4-1.87,5.81-3.87-1.84.09-3.69.19-5.53.3Z"/>
    <path class="cls-5" d="m1.13,26.77c4.2-5.91,8.88-11.48,13.96-16.65-1.2-1.1-2.4-2.21-3.6-3.31-2.44,3.3-5.2,6.37-8.23,9.15"/>
    <path class="cls-5" d="m18.84,10.62c0,.32.82.38,1.7.99.63.44,1.01.97,1.24,1.37,2.09.99,3.92,1.5,5.22,1.79,1.29.28,2.35.4,3.19.5,1.78.2,2.67.3,3.76.2,1.39-.14,1.32-.41,3.94-1.1,2.48-.65,3.07-.53,4.06-1.19.99-.67,1.54-1.55,1.85-2.16-.62-1.18-1.23-2.35-1.85-3.53-.09.06-.21.15-.3.3-.3.49.11.97.16,1.79.02.29.08,1.22-.47,1.62-.35.25-.83.19-1.54.1-.53-.07-.8-.1-1.06-.28-.68-.45-.49-1.19-1.03-1.37-.17-.06-.48.04-1.1.24-.65.21-.98.32-1.09.48-.31.47.3.96,0,1.57-.07.15-.12.15-.86.7-.94.7-.98.79-1.19.8-.29.02-.67-.27-1.41-.83-.49-.37-.74-.56-.84-.74-.34-.59-.05-1.03-.41-1.31-.17-.13-.26-.04-.94-.18-.67-.14-.65-.25-.84-.21-.51.1-.42.82-1.23,1.57-.36.33-.69.48-.83.54-.28.12-.7.29-1.16.18-.27-.06-.53-.31-1.05-.8-.48-.45-.72-.68-.79-.83-.32-.68.14-1.1-.21-1.57-.12-.16-.43-.28-1.06-.51-.66-.25-.99-.38-1.2-.34-.54.11-.5.67-1.23,1.31-.75.65-1.44.62-1.44.92v-.02Z"/>
    <path class="cls-5" d="m132.91,2.57c-1.97,2.39-5.97,1.39-6.5,5.01,2.12.51,4.23,1.03,6.35,1.54-.44,1.29-1.12,2.46-2.65,2.45.28-1.17-.08-3.42-1.37-1.4-1.8-3.21-5.8-1.21-5.8,1.79-1,3,2,5,2.44,6.55-2.04.08-4.08.17-6.12.25,6.83-5.16-5.44-15.79-11.61-11.66.79,1.04,1.58,2.08,2.36,3.13-3.53,1.56,3.5,11.24,4.37,13.4-1.55.33-3.09.66-4.64.99.39,1.28.86,2.53,1.42,3.74,1.37-.72,2.75-1.45,4.12-2.17,1.66,4.77-.34,9.77,2.66,14.77,5,9,7,19,12,29,2,3,6,6,10.16,6.72-1.33.6-3.33.48-4.58-.2,1.44-.32,3.11.02,4.58.2-2.89,5.71-1.16,11.36-.16,17.28,1.61-.83,3.26-1.05,5.04-1.17-.46.04-.61.06-.98,0,.32-.08.6.03.98,0-1.91,2.15-2.6,2.49-.17,4.67,1.56,1.41,3.6,2.15,5,3.76"/>
    <path class="cls-5" d="m104.02,1.95c1.12,1.54,2.32,3.75,4.38,4.09,2.26.37,4.54-1.65,3.66-3.96"/>
    <path class="cls-5" d="m66.21,44.31c-1.6-3.33-4.41-6.01-6.44-9.11-2.22-3.38-1.92-2.46-4.12-5.8-1.94-2.96-3.66-6.06-7.02-12.14-.91-1.64-1.65-3-2.15-3.92,2.27.2,4.55.39,6.86.57,2.24.18,4.47.34,6.68.5,1.4-.88,3.46-1.97,6.14-2.69,2-.54,3.78-.73,5.18-.77,1.74.16,3.49.33,5.23.49.61.06,1.53.17,2.64.34,1.74.28,2.38.48,3.58.65.59.09,2.16.31,3.81.19,1.81-.13,2.63-.61,6.84-2.18,1.51-.57,2.75-1.01,3.52-1.28l7.29,14.49c1.52,2.95,3.05,5.9,4.57,8.85-3.34.46-5.93,1.14-7.67,1.67-3.41,1.04-4.52,1.8-6.88,1.62-1.54-.12-2.27-.53-4.51-.54-1.45,0-2.52.15-3.71.34-1.44.22-1.96.4-5.99,1.41-3.02.76-2.93.71-3.64.92-2.28.67-4.06,1.44-5.23,1.99-.66,1.2-1.54,2.52-2.72,3.82-.29.32-.59.63-.88.92-.31.11-.75.2-1.08,0-.19-.12-.26-.29-.29-.34h-.01Z"/>
    <path class="cls-5" d="m45.76,11.62c1.28.09,2.59.21,3.93.35,3.59.39,6.94.94,10.04,1.59,1.44-.96,3.43-2.02,5.94-2.71.59-.16,3.27-.88,6.94-.73,1,.04,2.59.31,5.77.86,5.34.92,6.39,1.27,8.34.89.87-.17,2.33-.53,3.43-.89,1.44-.47,2.15-.7,2.93-.99,1.13-.41,2.54-.97,4.14-1.71,3.04,6.14,7.1,14.17,11.76,22.88,3.63,6.79,5.45,10.19,6.8,12.43,2.38,3.95,3.2,4.95,4.41,7.76,1.81,4.23,3.27,9.69,3.37,10.09.13.51.25.99.55,2.11.89,3.37,1.34,5.05,1.83,6.52.49,1.45,1.1,2.87,2.32,5.73,1.67,3.9,1.51,3.18,1.96,4.41,1.39,3.84,2.5,9.58,2.85,10.6.15.43.31.86.31.86,0,0,.1.27.21.53.96,2.42,2.76,5.44,2.76,5.44,1.82,3.03,2.73,4.55,3.32,5.5.42.67,1.4,2.19,3.35,5.24,1.9,2.96,2.08,3.24,2.49,3.78,1.42,1.89,3.26,3.95,3.26,3.95h0"/>
    <path class="cls-5" d="m49.74,21.27l-1.48-2.44-2.94-4.74c-.7.12-1.41.27-2.13.42-2.39.52-4.59,1.16-6.58,1.85,4.38,1.63,8.76,3.27,13.13,4.9h0Z"/>
    <path class="cls-5" d="m12.69,137.42c3.25-11.47,4.25-22.47,8.25-33.47,4-14,6-28,10-42,2-7-3-11-7-16-3-6,0-13,0-19-7,6-18,8-23.48,16.86"/>
    <path class="cls-5" d="m.76,42.34c3.19-3.73,6.26-6.03,8.54-7.46,2.79-1.75,5.16-2.69,9.21-5.52,1.93-1.35,3.44-2.56,4.44-3.4.49-.41.99-.82,1.48-1.23.76-.98,1.54-2.09,2.31-3.33,1.11-1.8,1.98-3.51,2.65-5.05-1.8-.3-3.95-.81-6.29-1.71-3.48-1.34-6.15-3.07-8.02-4.51"/>
    <path class="cls-5" d="m21.78,12.97c-.99-.36-2.34-.98-3.71-2.05-.9-.71-1.59-1.43-2.09-2.05"/>
    <path class="cls-5" d="m49.92,22.84c5.15,7.36,10.3,14.72,15.45,22.08-.16.14-.4.36-.69.62-1.75,1.54-2.48,2-3.05,2.54-1,.96-1.1,1.82-1.83,3.76-.54,1.44-1.43,3.44-2.88,5.77-.22.94-.44,1.88-.66,2.82-.34.67-.9,1.71-1.64,2.95-1.38,2.3-1.72,2.45-2.95,4.51-1.19,2-1.99,3.75-2.42,4.7-.39.85-.7,1.58-.92,2.13-.03.74-.06,1.85-.07,3.2,0,2.89.14,4.76.33,7.96.09,1.58.21,3.85.33,6.64-3.91.02-7.82.04-11.73.06.15-4.74.48-9.77,1.05-15.04.9-8.27,2.26-15.86,3.82-22.69,0-.38-.06-.96-.3-1.61-.36-.99-.89-1.42-1.5-2.35-.34-.52-.78-1.3-1.12-2.38,0-.63,0-1.59.08-2.76.2-3.18.69-5.28,1.2-7.75.96-4.6.5-3.34,2.33-12.89.36-1.87.66-3.42.88-4.53,2.1.76,4.19,1.51,6.29,2.27h0Z"/>
    <path class="cls-5" d="m87.18,124.6c-.96.12-2.45.29-4.26.48-7.75.81-7.38-.03-14.3,1.04,0,0-2.82.25-6.63,0-1.65-.11-2.08-.23-2.49-.41-2.17-1.01-2.93-3.69-3.56-6.29-1.17-4.81-1.16-7.32-1.95-10.2-1.21-4.4-4.28-15.58-4.68-27.03-.12-3.53.03-6.38.15-8,3.66-6.49,6.29-11.06,7.1-12.26.11-.16.48-.7.73-1.49.27-.84.28-1.6.24-2.19,1.49-2.36,2.4-4.36,2.96-5.78.49-1.24.83-2.32,1.78-3.6.99-1.33,2.14-2.19,2.97-2.71.31-.03.61-.07.92-.1,1.36,2.34,2.33,4.41,3.01,6.05,1,2.39,1.59,4.33,1.97,5.57.58,1.91.93,3.35,1.07,3.95,1.9,7.85,4.61,17.41,5.08,19.07.32,1.14.82,2.84,1.81,6.25,1.32,4.51,1.59,5.38,2.46,8.33.44,1.52.67,2.27.7,2.39,1.16,4.15,1.49,7.12,2.28,11.36.44,2.34.72,3.85,1.17,6.42.14.81.3,1.69.49,2.83.41,2.46.73,4.6.98,6.33h0Z"/>
    <path class="cls-5" d="m144.6,112.96c-1.78.64-3.56,1.28-5.35,1.92-3.98.99-7.96,1.97-11.94,2.96-.13-.58-.34-1.44-.67-2.48-.56-1.78-1.02-2.65-1.62-4.09-1.76-4.26-.97-4.43-2-5.52-.82-.87-.99-.42-4.95-2.76-.5-.29-1.33-.79-2.28-1.62-.79-.68-1.3-1.27-1.52-1.52-4.5-5.14-8.28-8.6-10.4-12-.24-.39-1.02-1.64-2.34-3.14-.32-.37-.68-.75-1.1-1.15-1.02-.99-1.57-1.31-5.77-4.72-1.64-1.33-2.37-1.94-2.94-3.08-.58-1.17-.49-1.89-.67-3.71-.37-3.84-1.39-6.82-2.05-8.75-.39-1.14-.74-2.16-1.39-3.5-1.52-3.14-2.63-3.8-3.88-6.89-.3-.75-.76-2.01-1-2.65-.53-1.46-.65-1.87-1.05-2.97-.54-1.49-.96-2.66-1.61-4.14-.65-1.49-1.15-2.42-1.77-4.24-.12-.36-.22-.65-.28-.85,2.62-.83,4.88-1.31,6.6-1.59,2.77-.46,4.16-.69,5.54-.53,1.69.2,2.58.66,4.32.37.88-.14.94-.31,2.61-.69,1.25-.29,1.76-.32,3.27-.58,1.17-.2,2.17-.42,4.16-.85,1.29-.28,2.84-.63,4.6-1.06.58,1.12,1.37,2.63,2.33,4.4.93,1.71,1.65,3,2.22,4.01,1.98,3.53,2.34,4.04,3.74,6.58,1.18,2.14,1.76,3.2,2.24,4.22.4.85,1.63,3.51,2.77,7.37,1.09,3.7.65,3.57,1.72,7.15.67,2.23,1.33,3.92,2.47,6.79.55,1.39,1.14,2.81,2.32,5.65.55,1.31,1.02,2.13,1.5,3.58.4,1.21.62,2.17.9,3.43.51,2.29.47,2.79.97,4.43.18.58.41,1.33.82,2.29.27.62.48,1.02,1.57,3.08.45.86.41.78.82,1.56,1.35,2.52,2.77,4.9,2.77,4.9,2.28,3.83,2.93,4.4,4.98,7.99.59,1.03,1.05,1.89,1.34,2.42v-.02Z"/>
    <path class="cls-5" d="m44.78,12.76c-.45.34-1.16.81-2.12,1.19-.53.21-.53.15-2.39.63-1.41.36-2.05.56-3.5.89-.49.11-.74.17-.92.2-1.21.18-2.24,0-2.92-.16"/>
    <path class="cls-5" d="m43.79,11.01c.32.62.63,1.24.95,1.85"/>
    <path class="cls-5" d="m20.82,3.42c-1.72,1.72-3.33,3.55-4.84,5.46-1.1-.98-2.2-1.96-3.3-2.94"/>
    <path class="cls-5" d="m9.3,2.9c1.16.97,2.3,1.98,3.38,3.03.75-1.12,1.76-2.05,2.88-2.8"/>
    <path class="cls-5" d="m7.18,2.75c1.28.9,2.46,1.95,3.4,3.2-2.93.88-4.91,3.69-7.06,5.7"/>
    <path class="cls-5" d="m3.51,13.65c2.28-2.33,4.63-4.71,7.53-6.27"/>
    <path class="cls-5" d="m37.33,2.95c1.56,1.49,3.1,3,4.61,4.54"/>
    <path class="cls-5" d="m38.77,2.84c1.4,1.27,2.82,2.52,4.27,3.74"/>
    <path class="cls-5" d="m45.76,11.62c-.9-1.68-1.81-3.36-2.71-5.05"/>
    <ellipse class="cls-4" cx="76.95" cy="88.6" rx="1.01" ry=".96"/>
    <path class="cls-5" d="m111.09,97.65c3.7,4.81,4.26,5.63,5.69,6.15.49.18,1.15.34,2.1.84.62.33,2.15,1.2,3.31,2.64.87,1.07,1.15,1.98,2.02,5.06.73,2.57,1.3,4.66,1.69,6.07-1.31.32-3.11.75-5.26,1.21-2.72.59-7.17,1.48-13.76,2.43-9.49,1.36-18.32,2.11-18.32,2.11h0s-1.49-8.9-3.4-17.93c-.66-3.11-1.15-5.45-1.89-8.58-3.23-13.56-7.39-25.86-8.89-32.39-.05-.24-.23-1.02-.5-2.06-.1-.39-.89-3.44-2.02-6.69-1.74-5-3.93-9.38-4.81-11.1.47-.07.87-.2,1.19-.34,2.36-1.04,3.07-3.77,3.21-4.38,2.01-.74,4.01-1.48,6.02-2.23l3.96,10.77c.37,1.34.91,2.91,1.74,4.58.52,1.05,1.07,1.98,1.6,2.79.44.55.77,1.03,1,1.37.58.86,1.23,1.84,1.73,3.21.1.26.17.51.32,1.02.63,2.15.61,2.64,1.21,4.89.16.6.32,1.17.61,2.28.15.58.22.87.27,1.09.44,1.92.62,3.98,1.04,4.91.13.29.28.57.28.57,0,0,.2.38.44.73.63.95,3.27,3.02,5.05,4.53.17.14.25.21.38.32,0,0,2.88,2.49,4.59,4.89.04.06.26.37.58.79,0,0,.19.26.39.51,1.09,1.42,2.3,2.75,2.3,2.75.26.3.33.37.46.5l.05.05c2.24,2.24,5.61,6.63,5.62,6.63h0Z"/>
  </g>
  <path class="cls-5" d="m.01,138.33c16.56-1.59,33.21-1.31,49.81-.43,20.68,1.09,41.91,2.03,62.5-.56,11.6-1.46,23.34-.74,34.98-1.8"/>
  <path class="cls-5" d="m.01,143.24c48.93-.29,97.93.71,147-2.95"/>
  <path class="cls-5" d="m89.78,149.95c-.05-1.6-.11-3.23-.2-4.88-.03-.64-.07-1.29-.11-1.92"/>
  <path class="cls-5" d="m91.4,149.97c-.12-2.29-.25-4.58-.37-6.87"/>
  <path class="cls-5" d="m15.17,137.33c5.75-25.22,11.49-50.45,17.24-75.67,1.43-3.55,1.13-5.98.7-7.45-1.62-5.52-7.82-6.32-8.86-12.09-.12-.68,0-2.13.27-5.03.24-2.69.53-5.69,1.58-9.41.91-3.22,1.98-5.5,2.27-6.12.91-1.9,1.85-3.44,2.63-4.6,1.24.12,2.49.25,3.73.37l8.08,3.11c-1.48,8.61-2.97,17.23-4.45,25.84-.07.41-.12,1.02,0,1.74.05.28.13.61.36,1.2.39,1.01.76,1.59,1.2,2.4.62,1.15.93,1.72,1.08,2.22.33,1.11.08,1.98-.3,3.61-.36,1.5-.57,3.03-1.02,4.5-1.1,3.59-1.62,8.81-2.5,17.58-.72,7.2-1.08,10.79-.9,11.79.1.56.5,2.43-.2,4.47-.35,1.01-.9,1.88-1.07,2.15-.84,1.31-1.72,2.09-1.97,2.33-1.78,1.71-1.99,5.17-2.28,10.77-.14,2.67-.39,5.33-.41,8.01-.03,4.22-.16,10.31-.64,18.19"/>
  <path class="cls-5" d="m29.17,148.93c.12-2.16.24-4.32.36-6.48"/>
  <path class="cls-5" d="m30.04,149.31c.15-2.29.3-4.58.45-6.88"/>
  <path class="cls-5" d="m31.02,137.26c.42-7.21.44-12.82.37-16.69-.04-2.37-.14-5.72.28-10.31.3-3.2.74-5.81,1.07-7.55.66-.87,1.42-1.89,2.25-3.04,1.24-1.71,1.72-2.45,2.03-3.55.21-.74.27-1.38.28-1.8,2.99-.06,5.97-.11,8.96-.17.79.02,1.58.04,2.37.06.52,2.07,1.24,5.01,2.07,8.55.73,3.12,1.22,5.21,1.66,7.29,1.68,8.02,2.51,12.03,2.32,14.92-.14,2.17-.51,3.65.25,5.68.6,1.59,1.52,2.53,1.9,4.63.22,1.22.16,2.27.07,2.95"/>
  <path class="cls-5" d="m57.84,148.73c-.26-1.91-.52-3.82-.78-5.73"/>
  <path class="cls-5" d="m59.64,148.61c-.15-.8-.3-1.64-.43-2.5-.15-1.03-.27-2.02-.37-2.98"/>
  <path class="cls-5" d="m58.89,138.3c.17-.73.31-1.84,0-3.1-.45-1.86-1.47-2.28-1.5-3.8-.02-1.01.41-2.43,1.61-3.11,1.08-.61,2.22-.32,2.53-.23,2.64,0,4.78-.06,6.21-.12,5.33-.21,7.91-.59,14.16-.92,2.33-.13,4.23-.19,5.41-.23.58,3.99,1.15,7.98,1.73,11.96"/>
  <path class="cls-5" d="m149.42,119.25c-.35-.37-.8-.86-1.14-1.23-1.2-1.29-2.4-2.58-3.6-3.87-1.46.68-3.69,1.64-6.5,2.55-3.01.97-3.75.93-8.43,2.2-4.33,1.17-4.25,1.36-8.17,2.37-3.32.86-5.96,1.4-7.73,1.76-3.23.65-5.86,1.08-7.29,1.32-.7.11-1.4.22-2.81.44-1.98.3-4.72.73-8.26,1.23-1.73.25-3.9.55-6.41.88.5,3.95.99,7.9,1.49,11.85"/>
  <path class="cls-5" d="m12.51,147.09c.4-1.43.81-2.86,1.21-4.29"/>
  <path class="cls-5" d="m9.51,148.01c.56-1.71,1.12-3.41,1.67-5.12"/>
  <g class="cls-3">
    <text class="cls-2" transform="translate(54.01 19.9)"><tspan x="0" y="0">Amagerbro</tspan></text>
  </g>
  <g class="cls-3">
    <text class="cls-2" transform="translate(89.78 56.58)"><tspan x="0" y="0">Sundbyøsterr</tspan></text>
  </g>
  <g class="cls-3">
    <text class="cls-2" transform="translate(38.86 147.05)"><tspan x="0" y="0">Tårnby</tspan></text>
  </g>
  <g class="cls-3">
    <text class="cls-2" transform="translate(3.72 116.12)"><tspan x="0" y="0">Ørestad</tspan></text>
  </g>
  <g class="cls-3">
    <text class="cls-1" transform="translate(53.85 86.39)"><tspan x="0" y="0">Helse Centret</tspan></text>
  </g>
</svg>