<?xml version="1.0" encoding="UTF-8"?>
<svg id="Layer_1" data-name="Layer 1" xmlns="http://www.w3.org/2000/svg" viewBox="0 0 150 150">
  <defs>
    <style>
      .cls-1, .cls-2 {
        fill: #b3b792;
      }

      .cls-1, .cls-3 {
        stroke: #b3b792;
        stroke-miterlimit: 10;
        stroke-width: .25px;
      }

      .cls-2 {
        font-family: BradleyHandITCTT-Bold, 'Bradley Hand';
        font-size: 4px;
        font-weight: 700;
      }

      .cls-3 {
        fill: none;
      }
    </style>
  </defs>
  <g>
    <path class="cls-3" d="m124.55,31.78c.78,2.26,1.61,4.11,2.3,5.49.61,1.22,1.31,2.6,2.46,4.28.25.37,1.13,1.62,3.41,4.15,2.04,2.25,2.86,2.94,4.72,4.89,1.15,1.2,2.75,2.95,4.59,5.2-1.31,1.66-2.63,3.32-3.94,4.97-.18,1.77-.2,3.29-.17,4.45.03,1.36.09,3.17.59,5.47.34,1.55.77,2.82,1.13,3.72-.21.1-.41.19-.62.29-.26.11-.77.28-1.24.07-.27-.12-.41-.31-.47-.39-.51-.69-1.15-1.28-1.61-2-.22-.34-.79-.99-1.94-2.28-1.02-1.15-1.86-2.48-3.05-3.48-.31-.26-.9-.72-.83-1.25.04-.33.32-.57.53-.71.97-1.27,1.89-2.17,2.59-2.77,1.38-1.21,2.43-1.76,2.67-3,.07-.39.06-.8.02-1.51,0,0-.05-1.11-.26-2.04-.26-1.21-1.04-1.78-2.83-3.93-1.93-2.32-2.27-3.16-4.03-4.65-.39-.33-.73-.6-.97-.77-1.23-.2-2.46-.4-3.7-.6.06-1.45.12-2.91.19-4.36-.09-.59-.27-1.36-.63-2.2-.36-.83-.79-1.48-1.15-1.95-.84-1.69-1.67-3.37-2.51-5.06-.08-.17-.18-.43-.14-.74.04-.3.17-.43.11-.63-.04-.13-.17-.3-.61-.43-.18-.33-.36-.67-.54-1,.37-.8.84-1.68,1.43-2.6.91-1.41,1.88-2.55,2.75-3.45-.9,2.35-.62,3.72-.17,4.55.18.33.33.48.63.98.79,1.29,1.12,2.49,1.27,3.31Z"/>
    <path class="cls-3" d="m75.38-35.03c-.89.23-1.27.6-1.45.9-.15.26-.36.72-.72,1.16-.08.09-.18.19-.32.28-.35.24-.51.21-.69.45-.27.35-.22.79-.19,1.08.06.55.1,1.32.06,2.37,2.12,1.3,2.27,2.3,2.25,2.74-.01.19-.06.49-1.37,2.31-1.11,1.55-1.3,1.65-1.38,2.16-.11.73.16,1.41.58,2.44.43,1.07.7,1.22.61,1.7-.15.84-1.17,1.35-1.56,1.54-.65.32-1.25.4-1.61.43-1.27,1.36-1.35,2.03-1.17,2.4.19.37.6.33.9.84.26.44.05.64.15,1.72.09.98.3,1.22.08,1.5-.25.31-.6.13-1.13.52-.43.32-.36.56-.67.69-.52.22-.94-.35-1.61-.37-.82-.03-1.77.75-2.08,1.59-.45,1.22.6,2.13.15,3.9-.05.21-.13.44-.32.66-.54.61-1.61.63-2.33.45-.48-.12-.42-.24-.8-.32-1.02-.22-2.28.48-2.91,1.39-.21.31-.21.43-.7,1.98-.24.76-.44,1.38-.58,1.79-.23-.1-.59-.25-1.04-.37-.9-.25-1.29-.18-1.78-.47-.25-.15-.57-.41-.83-.94-.31.03-.76.09-1.29.2-.99.21-1.49.32-1.78.64-.47.5-.12.94-.66,1.59-.24.29-.23.11-.91.67-.52.43-.81.77-1.37.87-.11.02-.2.02-.24.02-.47.02-1.37.14-3.16.52-.14.2-.27.4-.41.61.31.31.62.62.94.93.88-.32.97-.28.97-.28.38.18-.08,1.12.4,1.82.29.43.82.6,1.25.68,2.88-.11,4.44-.97,5.34-1.76.78-.68,1.19-1.41,2.5-2.4,1.23-.92,2.31-1.37,2.68-1.54,2.27-1.01,7.96-4.78,12.18-10.6,3.24-4.49,4.5-8.67,5.06-10.59.98-3.38,1.23-6.09,1.38-7.82.13-1.59,0-4.04-.28-8.59-.05-.5-.1-1.01-.16-1.51Z"/>
    <path class="cls-3" d="m-34.59,97.7c7.16-13.12,13.11-26.81,19.38-40.33C-10.29,46.77-6.9,38.45.4,27.93c5.5-7.92,10.91-13.87,14.74-17.77-1.2-1.1-2.4-2.21-3.6-3.31-2.14,2.9-5.05,6.32-8.92,9.77-3.61,3.22-7.14,5.64-10.14,7.42-.76.89-1.52,1.77-2.28,2.66.51,1.22,1.02,2.43,1.52,3.65-.45,1.43-1.05,3.03-1.87,4.74-.74,1.55-1.52,2.91-2.28,4.08-1.83.35-3.66.71-5.49,1.06-.45-.13-.9-.26-1.34-.39l-.23-.89c-.35.71-.7,1.41-1.05,2.12-.9.09-1.79.19-2.69.28.25.47.51.93.76,1.4,2.1-.43,4.2-.86,6.3-1.28.58.22,1.17.45,1.75.67-.23.63-.47,1.27-.7,1.9.62.46,1.24.93,1.86,1.39-.28.4-.57.81-.85,1.21-.21.58-.5,1.3-.88,2.12-.65,1.41-1.26,2.42-1.43,2.71-.54.9-1.29,2.03-2.3,3.25-.26-.11-.51-.22-.77-.33-.84,1.89-1.69,3.78-2.53,5.68-.04.07-.19.29-.49.4-.38.14-.72-.01-.77-.04-3.05-1.29-6.1-2.57-9.15-3.86-.41.07-.83.13-1.24.2-.57-.33-1.14-.66-1.71-.99l-.26-1.53c-.5-.12-1-.23-1.5-.35-.69.84-1.38,1.68-2.07,2.52,1.9.74,3.79,1.48,5.69,2.23-.88,1.45-1.76,2.9-2.64,4.35.41.21.83.43,1.24.64.94-1.41,1.89-2.83,2.83-4.24,3.07,1.35,6.14,2.71,9.21,4.06.12.21.26.5.36.86.09.33.12.62.12.84-3.17,4.06-6.33,8.13-9.5,12.19-.23.07-.56.16-.96.17-.46.01-.84-.07-1.09-.14-3.81-2.28-7.62-4.57-11.43-6.85.57-.94,1.15-1.89,1.72-2.83.07-.64.14-1.27.21-1.91-.99-.22-1.97-.44-2.96-.66-.34.57-.68,1.14-1.02,1.71"/>
    <path class="cls-3" d="m18.9,10.67c0,.32.82.38,1.7.99.63.44,1.01.97,1.24,1.37,2.09.99,3.92,1.5,5.22,1.79,1.29.28,2.35.4,3.19.5,1.78.2,2.67.3,3.76.2,1.39-.14,1.32-.41,3.94-1.1,2.48-.65,3.07-.53,4.06-1.19.99-.67,1.54-1.55,1.85-2.16-.62-1.18-1.23-2.35-1.85-3.53-.09.06-.21.15-.3.3-.3.49.11.97.16,1.79.02.29.08,1.22-.47,1.62-.35.25-.83.19-1.54.1-.53-.07-.8-.1-1.06-.28-.68-.45-.49-1.19-1.03-1.37-.17-.06-.48.04-1.1.24-.65.21-.98.32-1.09.48-.31.47.3.96,0,1.57-.07.15-.12.15-.86.7-.94.7-.98.79-1.19.8-.29.02-.67-.27-1.41-.83-.49-.37-.74-.56-.84-.74-.34-.59-.05-1.03-.41-1.31-.17-.13-.26-.04-.94-.18-.67-.14-.65-.25-.84-.21-.51.1-.42.82-1.23,1.57-.36.33-.69.48-.83.54-.28.12-.7.29-1.16.18-.27-.06-.53-.31-1.05-.8-.48-.45-.72-.68-.79-.83-.32-.68.14-1.1-.21-1.57-.12-.16-.43-.28-1.06-.51-.66-.25-.99-.38-1.2-.34-.54.11-.5.67-1.23,1.31-.75.65-1.44.62-1.44.92Z"/>
    <path class="cls-3" d="m52.53-98.17c-1.45,1.59-2.91,3.18-4.36,4.76-1.82.62-3.64,1.23-5.47,1.85.19.77.38,1.55.57,2.32-.13.21-.26.41-.39.62-.02.24-.05.48-.07.72.23.27.45.55.68.82.95.39,1.91.77,2.86,1.16-1.1,5.27-2.19,10.55-3.29,15.82.88.14,1.76.27,2.64.41.56-3.26,1.12-6.52,1.68-9.77.2.22.4.43.61.65.44.03.88.07,1.32.1-.36,3.04-.71,6.08-1.07,9.12.65.06,1.31.11,1.96.17.48-7.26.95-14.51,1.43-21.77.61-1.05,1.21-2.1,1.82-3.14.3-.03.59-.05.89-.08-.12,2.92-.3,7.23-.5,12.22-.22,5.53-.22,5.91-.21,6.55.02,1.11.07,2.05-.06,3.4-.18,1.86-.58,3.37-.9,4.37-.02.29-.06.72-.14,1.25-.09.61-.12.57-.12.74-.01.91.78,1.18.85,1.95.04.48-.23.84-.72,1.48-.89,1.17-1.38.96-1.91,1.78-.31.48-.32,1.41-.35,3.26,0,.35,0,.76.28,1.1.29.34.75.45,1.06.53.43.1.79.1,1.02.07.59,2.78.09,4.42-.52,5.43-.29.47-.69.97-1.04,1.9-.49,1.31-.4,2.3-.45,3.07-.07,1.12-.47,2.73-1.98,4.69-2.45,4.95-4.91,9.91-7.36,14.86.58.25,1.17.49,1.75.74.85-1.75,1.7-3.5,2.55-5.26.43.16.86.32,1.29.48-1.12,2.19-2.24,4.39-3.36,6.58.38.29.76.58,1.15.88-.46.73-.92,1.46-1.38,2.19-.34.12-.86.35-1.38.8-.62.54-.92,1.12-1.07,1.46-.96,1.74-3.08,4.96-7.11,7.16-1.46.8-2.86,1.29-4.05,1.61.14.44.2.82.22,1.09.04.44.07.73-.06,1.09-.11.32-.29.55-.42.68.38.35.76.7,1.14,1.06,1.07-1.14,2.01-1.99,2.64-2.52,3.5-2.99,5.94-3.8,11.14-7.42.91-.63,1.63-1.16,2.06-1.49,1.8,1.24,3.72,2.48,5.76,3.7.68.4,1.35.8,2.02,1.18-.05-.49-.11-.97-.16-1.46-.78-.53-1.64-1.08-2.57-1.62-1.1-.64-2.17-1.18-3.17-1.65-.04-.27-.07-.54-.11-.81-.55-.25-1.1-.49-1.65-.74.21-.58.44-1.18.7-1.79.29-.7.58-1.38.88-2.02,1.39.58,2.77,1.16,4.16,1.74.37-.5.74-1,1.1-1.5l-3.17-1.36c.22-.59.44-1.18.65-1.77-.02-.94-.05-1.88-.07-2.83.69-1.03,1.37-2.06,2.06-3.09.65-1.11,1.31-2.21,1.96-3.32,1.42.68,2.84,1.36,4.26,2.04.18-.27.37-.55.55-.82.85.11,1.69.22,2.54.33,1.47.65,2.93,1.29,4.4,1.94.11,2.89-.03,5.31-.21,7.1-.3,3.09-.72,4.42-1.58,5.65-.72,1.02-1.55,1.7-2.13,2.1.84.41,1.67.81,2.51,1.22-.08.35-.19.72-.32,1.1-.29.82-.64,1.52-.98,2.08-.71.74-1.44,1.54-2.16,2.37-.89,1.03-1.72,2.04-2.47,3.02-1.01-.11-2.02-.22-3.02-.33-.27-1.16-.54-2.32-.81-3.48-.21-.24-.42-.49-.64-.73-.01.73.04,1.7.31,2.79.24,1,.59,1.82.91,2.44.44.15,1.11.32,1.9.26,1.92-.16,3.22-1.59,4.23-2.79,2.48-2.97,3.84-4.61,5.26-7.76.73-1.61,2.87-6.75,2.75-13.7-.03-1.74-.2-3.18-.34-4.17-3.03-.21-6.07-.42-9.1-.62.57-1.35,1.15-2.69,1.72-4.04-.25-.7-.5-1.4-.76-2.1-.05-.49-.08-1.03-.07-1.61.01-.92.11-1.75.24-2.46.2-.05.5-.17.72-.43.17-.19.29-.47.27-1.54,0-.38-.03-.89-.1-1.51-1.12-.05-2.24-.11-3.37-.16-.03-.27-.07-.55-.1-.82,2.63.27,3.3.1,3.37-.13.06-.21-.4-.39-.34-.69.11-.59,2.03-.73,2.37-.76.64-.05,1.18-.01,1.56.03.26.88.43,1.64.55,2.21.28,1.4.26,1.9.11,2.37-.15.46-.38.79-.55,1,.31,1.66.58,2.48.82,2.47.21,0,.39-.66.55-1.94.79-.21,1.58-.42,2.36-.63.27-1.44.55-2.87.82-4.31-.05-1.42-.1-2.84-.14-4.26-2.12-.67-4.25-1.35-6.37-2.02.28-.88.66-2.29.88-4.05.45-3.59-.1-5.96.9-6.37.97-.4,2.49,1.42,3.24.89.24-.17.18-.44.5-1.37.21-.61.45-1.1.62-1.43-.56-.17-1.12-.34-1.68-.51-.82-.25-1.64-.5-2.46-.74.29-1.79.36-3.22.37-4.22.01-.79-.02-1.41.25-1.5.41-.14,1.25,1.1,1.9,2.17.83.94,1.66,1.89,2.49,2.83.62.23,1.31.45,2.05.66.58.16,1.13.28,1.65.39.32-.84.64-1.69.97-2.53-.61-.16-1.23-.34-1.88-.54-1.26-.4-2.42-.83-3.48-1.28-.27-.14-.74-.43-1.06-.95-.1-.16-.16-.31-.21-.45,2.79-.59,5.59-1.18,8.38-1.78,3.77-.21,7.55-.43,11.32-.64,3.21.47,6.43.94,9.64,1.41,2.39.24,4.78.47,7.17.71-.03-.07-.06-.11-.08-.11-.16.03.22,2.83,1.13,8.4-1.65.86-3.96,2.3-6.19,4.61-2.74,2.84-4.15,5.74-4.86,7.59.26.49.2.73.12.85-.32.51-1.55.03-3.14.34-.84.16-1.47.48-1.84.7-1.06.2-2.13.4-3.19.6,0,.56.06,1.2.18,1.89.17.97.43,1.8.7,2.46-.34.04-.67.08-1.01.12-.27-.8-.54-1.61-.81-2.41-1.71.56-3.42,1.12-5.13,1.68-1.75.01-3.51.03-5.26.04.06,1.48.12,2.95.18,4.43,1.97-.16,3.94-.32,5.9-.48.24.02.62.09,1.02.31.71.38,1.02.98,1.12,1.2,1.2-.5,2.39-1,3.59-1.51.11.18.29.39.57.5.86.33,1.92-.64,3.94-2.18,3.18-2.41,3.86-2.52,4.36-2.37.97.29,1.43,1.61,1.8,1.46.18-.07.19-.42.18-.65-.15-.32-.3-.63-.45-.95.3-.99.6-1.98.9-2.97.66.09,1.32.17,1.98.26.46.66.93,1.32,1.39,1.98,2.9-1.64,5.79-3.29,8.69-4.93,1.56,2.8,3.11,5.61,4.67,8.41-4.34,3.23-8.04,5.58-10.61,7.13-4.03,2.42-6.06,3.34-8.84,5.6-3.4,2.77-5.6,5.66-6.9,7.64,4.31,8.78,8.61,17.56,12.92,26.35.4.12.99.36,1.51.85.63.59.75,1.15,1.26,2.04.28.5.75,1.19,1.5,1.96.68-.03,2.29-.2,3.78-1.31.76-.57,1.25-1.2,1.55-1.67-.49-1.03-1.24-2.35-2.39-3.72-1.09-1.3-2.21-2.25-3.12-2.92-1.52-2.75-3.04-5.65-4.54-8.68-1.89-3.82-3.57-7.53-5.08-11.11,1.26-1.54,2.51-3.07,3.77-4.61,5.1-3.14,10.2-6.28,15.3-9.42,2.51,4.86,5.02,9.71,7.53,14.57-.94-.09-2.37-.12-3.99.34-3.02.84-4.78,2.79-5.43,3.59.17,1.53.33,3.07.5,4.6-.45.78-1.68,2.92-2.8,5.01-.15.28-.43.8-.2,1.08.32.38,1.53-.1,2.25-.1,1.14-1.28,2.27-2.55,3.41-3.83,2.03.3,4.07.59,6.1.89.66-2.28,1.33-4.57,1.99-6.85,2.3-.38,4.6-.76,6.9-1.14,2.21,4.1,4.42,8.2,6.63,12.3-1.15.76-2.3,1.52-3.45,2.28-.8,2.29-1.6,4.58-2.4,6.88-.93.77-1.86,1.54-2.79,2.31-1.07.03-2.14.05-3.22.08-.33.92-.67,1.84-1,2.77,2.12.51,4.23,1.03,6.35,1.54-.3.68-.6,1.36-.9,2.04-.58.14-1.17.27-1.75.41.11-.71.22-1.42.33-2.13-.16-.06-.32-.12-.47-.18-.41.3-.82.6-1.23.91.01-.76-.44-1.46-1.14-1.77-.79-.35-1.75-.14-2.34.51-.07.14-.24.46-.61.72-.41.28-.82.31-.98.32-.19.38-.38.76-.57,1.13.18.19.36.38.55.57-.39,1.12-.77,2.25-1.16,3.37.96,1.16,1.93,2.33,2.89,3.49-2.04.08-4.08.17-6.12.25.87-1.26,1.75-2.53,2.62-3.79-1.08-1.4-2.16-2.81-3.25-4.21-.13-.8-.27-1.6-.4-2.4-.64-.26-1.28-.52-1.93-.78-.34.33-.68.65-1.02.98-2.05-.98-4.1-2.94-7.63-1.46.79,1.04,1.58,2.09,2.36,3.13-.33.19-.67.39-1,.58-.03.57-.03,1.42.18,2.41.45,2.05,1.51,3.33,2.29,4.44.9,1.28,2.02,3.22,2.9,5.97-1.55.33-3.09.66-4.64.99.08.28.17.56.27.84.35,1.04.74,2.01,1.15,2.9,1.37-.72,2.75-1.45,4.12-2.17,2.05,3.92,0,8.81,2.05,12.73,2.05,5.88,6.14,11.75,8.19,18.61.39,1.31.54,4.25,2.05,7.83,0,0,1.95,4.62,6.4,8.8,1.5,1.41,2.46,1.91,3.43,2.14,1.06.25,2.7.32,2.7.38,0,.01-.06.02-.06.02-1.39.14-.96,7.78-.96,7.78.12,2.15.34,4.97.78,8.31,0,2.94,3.07-.98,5.12,0-1.02.98-2.05.98-2.05,1.96s1.02.98,1.02,1.96c1.65.09,2.53.63,3.04,1.14.59.59.78,1.25,1.82,2.39.4.43.76.76,1,.98"/>
    <path class="cls-3" d="m66.27,44.36c-1.6-3.33-4.41-6.01-6.44-9.11-2.22-3.38-1.92-2.46-4.12-5.8-1.94-2.96-3.66-6.06-7.02-12.14-.91-1.64-1.65-3-2.15-3.92,2.27.2,4.55.39,6.86.57,2.24.18,4.47.34,6.68.5,1.4-.88,3.46-1.97,6.14-2.69,2-.54,3.78-.73,5.18-.77,1.74.16,3.49.33,5.23.49.61.06,1.53.17,2.64.34,1.74.28,2.38.48,3.58.65.59.09,2.16.31,3.81.19,1.81-.13,2.63-.61,6.84-2.18,1.51-.57,2.75-1.01,3.52-1.28,2.43,4.83,4.86,9.66,7.29,14.49,1.52,2.95,3.05,5.9,4.57,8.85-3.34.46-5.93,1.14-7.67,1.67-3.41,1.04-4.52,1.8-6.88,1.62-1.54-.12-2.27-.53-4.51-.54-1.45,0-2.52.15-3.71.34-1.44.22-1.96.4-5.99,1.41-3.02.76-2.93.71-3.64.92-2.28.67-4.06,1.44-5.23,1.99-.66,1.2-1.54,2.52-2.72,3.82-.29.32-.59.63-.88.92-.31.11-.75.2-1.08,0-.19-.12-.26-.29-.29-.34Z"/>
    <path class="cls-3" d="m45.82,11.67c1.28.09,2.59.21,3.93.35,3.59.39,6.94.94,10.04,1.59,1.44-.96,3.43-2.02,5.94-2.71.59-.16,3.27-.88,6.94-.73,1,.04,2.59.31,5.77.86,5.34.92,6.39,1.27,8.34.89.87-.17,2.33-.53,3.43-.89,1.44-.47,2.15-.7,2.93-.99,1.13-.41,2.54-.97,4.14-1.71,3.04,6.14,7.1,14.17,11.76,22.88,3.63,6.79,5.45,10.19,6.8,12.43,2.38,3.95,3.2,4.95,4.41,7.76,1.81,4.23,3.27,9.69,3.37,10.09.13.51.25.99.55,2.11.89,3.37,1.34,5.05,1.83,6.52.49,1.45,1.1,2.87,2.32,5.73,1.67,3.9,1.51,3.18,1.96,4.41,1.39,3.84,2.5,9.58,2.85,10.6.15.43.31.86.31.86,0,0,.1.27.21.53.96,2.42,2.76,5.44,2.76,5.44,1.82,3.03,2.73,4.55,3.32,5.5.42.67,1.4,2.19,3.35,5.24,1.9,2.96,2.08,3.24,2.49,3.78,1.42,1.89,3.26,3.95,3.26,3.95h0"/>
    <path class="cls-3" d="m49.8,21.32l-1.48-2.44c-.98-1.58-1.96-3.16-2.94-4.74-.7.12-1.41.27-2.13.42-2.39.52-4.59,1.16-6.58,1.85,4.38,1.63,8.76,3.27,13.13,4.9Z"/>
    <path class="cls-3" d="m12.75,137.47c10.5-45,17.81-76.03,18.53-78.22.07-.21.39-1.11.36-2.31,0-.33-.06-1.85-1.09-3.62-.72-1.23-1.09-1.15-2.96-3.18-1.14-1.23-1.85-2.19-2.82-3.48-1.27-1.69-1.91-2.56-2.23-3.53-.49-1.48-.42-2.77-.36-3.35.08-.83.24-1.04.59-2.35.37-1.37.22-1.21.91-4.66.33-1.67.48-2.28.73-3.75.12-.72.21-1.31.27-1.72-.48-.17-.96-.33-1.45-.5-1.05,1.13-1.99,2.02-2.7,2.66-.97.87-1.42,1.19-1.83,1.45-.96.59-1.72.85-2.39,1.1-.88.33-2.01.88-4.27,1.97-.88.43-2.63,1.3-4.77,2.5-.8.45-1.48.85-1.97,1.14-.73.99-1.47,1.99-2.2,2.98-2.29,2.9-4.59,5.79-6.88,8.69.03.95.06,1.9.09,2.85-.04,1.01-.14,2.33-.37,3.86-.05.34-.26,1.69-.78,3.77-.3,1.21-.61,2.26-1.83,6.01-.38,1.17-.9,2.72-1.51,4.56.76,1.08,1.53,2.16,2.29,3.25-.21,1.01-.57,2.55-1.15,4.39-.46,1.47-.77,2.2-1.28,3.6-.3.81-.42,1.18-2.16,6.76,0,0-1.37,4.41-2.06,6.63-.08.25-.15.5-.23.75-.2.67-.4,1.33-.6,2"/>
    <path class="cls-3" d="m-14.77,97.7c.54-.87,1.2-2.07,1.79-3.55.36-.91.57-1.61.65-1.85.62-2.07,2.81-9.07,5.81-18.68-.76-1.05-1.52-2.09-2.29-3.14.41-1.26,1-3.05,1.69-5.23,1.03-3.26,1.24-4.02,1.34-4.42.4-1.54.91-3.51,1.19-6.08.16-1.49.29-3.5.15-5.89.32-.37.64-.74.96-1.11,2.43-3.04,4.87-6.08,7.3-9.12.32-.43.64-.86.96-1.29.47-.35,1.01-.72,1.64-1.09.74-.43,1.44-.75,2.06-1.01,2.77-1.35,5.54-2.7,8.3-4.06.4-.14.98-.38,1.61-.76.9-.54,1.41-1.06,2.34-1.97.54-.53,1.39-1.36,2.49-2.4.54.18,1.07.36,1.61.54.16-.94.32-1.87.48-2.81.29-.35.69-.84,1.16-1.43.9-1.14,1.09-1.43,1.24-1.7.31-.56.38-.86.71-1.76.22-.61.55-1.47,1.02-2.51-.54-.03-1.27-.1-2.12-.24-.42-.07-1.69-.3-3.59-.95-1.23-.42-2.68-.92-4.41-1.89-1.13-.64-2.64-1.63-4.19-3.14"/>
    <path class="cls-3" d="m21.84,13.02c-.99-.36-2.34-.98-3.71-2.05-.9-.71-1.59-1.43-2.09-2.05"/>
    <path class="cls-3" d="m49.98,22.89c5.15,7.36,10.3,14.72,15.45,22.08-.16.14-.4.36-.69.62-1.75,1.54-2.48,2-3.05,2.54-1,.96-1.1,1.82-1.83,3.76-.54,1.44-1.43,3.44-2.88,5.77-.22.94-.44,1.88-.66,2.82-.34.67-.9,1.71-1.64,2.95-1.38,2.3-1.72,2.45-2.95,4.51-1.19,2-1.99,3.75-2.42,4.7-.39.85-.7,1.58-.92,2.13-.03.74-.06,1.85-.07,3.2,0,2.89.14,4.76.33,7.96.09,1.58.21,3.85.33,6.64-3.91.02-7.82.04-11.73.06.15-4.74.48-9.77,1.05-15.04.9-8.27,2.26-15.86,3.82-22.69,0-.38-.06-.96-.3-1.61-.36-.99-.89-1.42-1.5-2.35-.34-.52-.78-1.3-1.12-2.38,0-.63,0-1.59.08-2.76.2-3.18.69-5.28,1.2-7.75.96-4.6.5-3.34,2.33-12.89.36-1.87.66-3.42.88-4.53,2.1.76,4.19,1.51,6.29,2.27Z"/>
    <path class="cls-3" d="m87.24,124.65c-.96.12-2.45.29-4.26.48-7.75.81-7.38-.03-14.3,1.04,0,0-2.82.25-6.63,0-1.65-.11-2.08-.23-2.49-.41-2.17-1.01-2.93-3.69-3.56-6.29-1.17-4.81-1.16-7.32-1.95-10.2-1.21-4.4-4.28-15.58-4.68-27.03-.12-3.53.03-6.38.15-8,3.66-6.49,6.29-11.06,7.1-12.26.11-.16.48-.7.73-1.49.27-.84.28-1.6.24-2.19,1.49-2.36,2.4-4.36,2.96-5.78.49-1.24.83-2.32,1.78-3.6.99-1.33,2.14-2.19,2.97-2.71.31-.03.61-.07.92-.1,1.36,2.34,2.33,4.41,3.01,6.05,1,2.39,1.59,4.33,1.97,5.57.58,1.91.93,3.35,1.07,3.95,1.9,7.85,4.61,17.41,5.08,19.07.32,1.14.82,2.84,1.81,6.25,1.32,4.51,1.59,5.38,2.46,8.33.44,1.52.67,2.27.7,2.39,1.16,4.15,1.49,7.12,2.28,11.36.44,2.34.72,3.85,1.17,6.42.14.81.3,1.69.49,2.83.41,2.46.73,4.6.98,6.33Z"/>
    <path class="cls-3" d="m144.66,113.01c-1.78.64-3.56,1.28-5.35,1.92-3.98.99-7.96,1.97-11.94,2.96-.13-.58-.34-1.44-.67-2.48-.56-1.78-1.02-2.65-1.62-4.09-1.76-4.26-.97-4.43-2-5.52-.82-.87-.99-.42-4.95-2.76-.5-.29-1.33-.79-2.28-1.62-.79-.68-1.3-1.27-1.52-1.52-4.5-5.14-8.28-8.6-10.4-12-.24-.39-1.02-1.64-2.34-3.14-.32-.37-.68-.75-1.1-1.15-1.02-.99-1.57-1.31-5.77-4.72-1.64-1.33-2.37-1.94-2.94-3.08-.58-1.17-.49-1.89-.67-3.71-.37-3.84-1.39-6.82-2.05-8.75-.39-1.14-.74-2.16-1.39-3.5-1.52-3.14-2.63-3.8-3.88-6.89-.3-.75-.76-2.01-1-2.65-.53-1.46-.65-1.87-1.05-2.97-.54-1.49-.96-2.66-1.61-4.14-.65-1.49-1.15-2.42-1.77-4.24-.12-.36-.22-.65-.28-.85,2.62-.83,4.88-1.31,6.6-1.59,2.77-.46,4.16-.69,5.54-.53,1.69.2,2.58.66,4.32.37.88-.14.94-.31,2.61-.69,1.25-.29,1.76-.32,3.27-.58,1.17-.2,2.17-.42,4.16-.85,1.29-.28,2.84-.63,4.6-1.06.58,1.12,1.37,2.63,2.33,4.4.93,1.71,1.65,3,2.22,4.01,1.98,3.53,2.34,4.04,3.74,6.58,1.18,2.14,1.76,3.2,2.24,4.22.4.85,1.63,3.51,2.77,7.37,1.09,3.7.65,3.57,1.72,7.15.67,2.23,1.33,3.92,2.47,6.79.55,1.39,1.14,2.81,2.32,5.65.55,1.31,1.02,2.13,1.5,3.58.4,1.21.62,2.17.9,3.43.51,2.29.47,2.79.97,4.43.18.58.41,1.33.82,2.29.27.62.48,1.02,1.57,3.08.45.86.41.78.82,1.56,1.35,2.52,2.77,4.9,2.77,4.9,2.28,3.83,2.93,4.4,4.98,7.99.59,1.03,1.05,1.89,1.34,2.42Z"/>
    <path class="cls-3" d="m44.84,12.81c-.45.34-1.16.81-2.12,1.19-.53.21-.53.15-2.39.63-1.41.36-2.05.56-3.5.89-.49.11-.74.17-.92.2-1.21.18-2.24,0-2.92-.16"/>
    <path class="cls-3" d="m43.85,11.06c.32.62.63,1.24.95,1.85"/>
    <path class="cls-3" d="m-18.2-25.3c2.08,1.76,5.02,4.47,8.07,8.16,3.45,4.18,4.5,7.45,6.6,9.52C1.47-2.72,7.72,1.07,12.74,5.98,14.87,2.76,17.9,2,20.89-.13c2.34-3.04,5.41-4.02,8.84-3.8-5.21,3.6-9.83,7.95-13.69,12.86-1.1-.98-2.2-1.96-3.3-2.94"/>
    <path class="cls-3" d="m-20.28-24.42c1.29.59,3.12,1.56,4.98,3.13,2.36,1.99,3.38,3.75,5,6.14C-7.6-11.18-5.06-7.45-1.18-3.93,2.21-.87,3.9.66,5.84,1.78c.59.34,2.61,1.46,4.37,3.65.19.23.34.43.43.56-.56.21-1.12.43-1.68.64-.5.47-1.01.95-1.51,1.42-.4.38-1,.95-1.73,1.63-4.02,3.74-9.99,9.29-17.3,14.57-6.57,4.74-12.37,7.91-13.31,11.75-.96,3.95-1.02,4.41-1.02,4.41-.24,1.79-.19,2.94-1.02,4.41-.69,1.2-1.46,1.71-1.66,1.84-.9.56-1.7.6-2.7.72-1.01.13-2.38.47-5.11,1.15-2.64.66-2.39.79-4.69,1.31-1.43.32-2.17.42-3.55.84-1.19.37-2.14.76-2.76,1.03"/>
    <path class="cls-3" d="m-47.42,53.38c.81-.43,1.62-.85,2.43-1.28,2.24-.5,4.03-.96,5.21-1.28,4.74-1.27,4.98-1.62,7.15-1.87,2.03-.24,2.72-.04,4.12-.64.72-.31,2.17-1.07,3.21-2.61.63-.94.83-1.76,1.08-2.83.7-2.99-.04-3.97.64-5.82.31-.83.97-2.02,2.6-3.2,3.14-2.54,6.29-5.07,9.43-7.61,4.34-3.39,8.68-6.78,13.02-10.17,2.6-2.56,5.21-5.12,7.81-7.68.61-.32,1.21-.64,1.82-.96"/>
    <path class="cls-3" d="m29.87-57.11c1.41,4.34,2.83,8.68,4.24,13.02-1.29,2.71-2.59,5.41-3.88,8.12-1.92,3.87-3.83,7.74-5.75,11.6,1.29,5.11,2.57,10.21,3.86,15.32.07.19.44,1.21-.1,2.32-.58,1.18-1.76,1.54-1.94,1.6-1.59.56-3.35,1.31-5.18,2.32C16.68-.35,13.61,2.64,11.65,4.96"/>
    <path class="cls-3" d="m23.44-2.59c-.9.25-2.06.68-3.28,1.42-1.97,1.19-3.19,2.63-3.86,3.58"/>
    <path class="cls-3" d="m29.73-3.93c1.71,1.47,3.45,3.01,5.2,4.62,2.51,2.31,4.87,4.6,7.07,6.84"/>
    <path class="cls-3" d="m30.59-5.19c3.43,3.62,7.16,7.21,11.23,10.72.43.37.85.73,1.28,1.09"/>
    <path class="cls-3" d="m45.82,11.67c-.9-1.68-1.81-3.36-2.71-5.05"/>
    <ellipse class="cls-1" cx="77.01" cy="88.65" rx="1.01" ry=".96"/>
    <path class="cls-3" d="m111.15,97.7c3.7,4.81,4.26,5.63,5.69,6.15.49.18,1.15.34,2.1.84.62.33,2.15,1.2,3.31,2.64.87,1.07,1.15,1.98,2.02,5.06.73,2.57,1.3,4.66,1.69,6.07-1.31.32-3.11.75-5.26,1.21-2.72.59-7.17,1.48-13.76,2.43-9.49,1.36-18.32,2.11-18.32,2.11h0s-1.49-8.9-3.4-17.93c-.66-3.11-1.15-5.45-1.89-8.58-3.23-13.56-7.39-25.86-8.89-32.39-.05-.24-.23-1.02-.5-2.06-.1-.39-.89-3.44-2.02-6.69-1.74-5-3.93-9.38-4.81-11.1.47-.07.87-.2,1.19-.34,2.36-1.04,3.07-3.77,3.21-4.38,2.01-.74,4.01-1.48,6.02-2.23,1.32,3.59,2.64,7.18,3.96,10.77.37,1.34.91,2.91,1.74,4.58.52,1.05,1.07,1.98,1.6,2.79.44.55.77,1.03,1,1.37.58.86,1.23,1.84,1.73,3.21.1.26.17.51.32,1.02.63,2.15.61,2.64,1.21,4.89.16.6.32,1.17.61,2.28.15.58.22.87.27,1.09.44,1.92.62,3.98,1.04,4.91.13.29.28.57.28.57,0,0,.2.38.44.73.63.95,3.27,3.02,5.05,4.53.17.14.25.21.38.32,0,0,2.88,2.49,4.59,4.89.04.06.26.37.58.79,0,0,.19.26.39.51,1.09,1.42,2.3,2.75,2.3,2.75.26.3.33.37.46.5.03.03.05.05.05.05,2.24,2.24,5.61,6.63,5.62,6.63Z"/>
  </g>
  <path class="cls-3" d="m.07,138.38c2.6-.25,6.46-.59,11.15-.84,2.65-.14,11.67-.58,29.38,0,9.12.3,8.37.47,19.42.84,5.54.18,11.77.39,19.92.42,8.88.04,14.65.06,22.41-.42,9.87-.61,8.58-1.15,17.92-1.68,10.11-.58,13.63-.06,23.9-.84,5.11-.39,9.27-.89,11.97-1.26"/>
  <path class="cls-3" d="m.07,143.29c4.78-.17,11.55-.39,19.69-.58,7.46-.17,12.58-.29,18.24-.29,12.75,0,14.08.59,27.53.87,13.49.28,24.16-.07,30.63-.29,9.61-.33,18.3-.85,23.4-1.16,8.11-.49,11.77-.8,19.27-1.16,7.34-.35,13.35-.5,17.31-.58"/>
  <path class="cls-3" d="m89.84,150c-.05-1.6-.11-3.23-.2-4.88-.03-.64-.07-1.29-.11-1.92"/>
  <path class="cls-3" d="m91.46,150.02c-.12-2.29-.25-4.58-.37-6.87"/>
  <path class="cls-3" d="m15.23,137.38c5.75-25.22,11.49-50.45,17.24-75.67,1.43-3.55,1.13-5.98.7-7.45-1.62-5.52-7.82-6.32-8.86-12.09-.12-.68,0-2.13.27-5.03.24-2.69.53-5.69,1.58-9.41.91-3.22,1.98-5.5,2.27-6.12.91-1.9,1.85-3.44,2.63-4.6,1.24.12,2.49.25,3.73.37l8.08,3.11c-1.48,8.61-2.97,17.23-4.45,25.84-.07.41-.12,1.02,0,1.74.05.28.13.61.36,1.2.39,1.01.76,1.59,1.2,2.4.62,1.15.93,1.72,1.08,2.22.33,1.11.08,1.98-.3,3.61-.36,1.5-.57,3.03-1.02,4.5-1.1,3.59-1.62,8.81-2.5,17.58-.72,7.2-1.08,10.79-.9,11.79.1.56.5,2.43-.2,4.47-.35,1.01-.9,1.88-1.07,2.15-.84,1.31-1.72,2.09-1.97,2.33-1.78,1.71-1.99,5.17-2.28,10.77-.14,2.67-.39,5.33-.41,8.01-.03,4.22-.16,10.31-.64,18.19"/>
  <path class="cls-3" d="m29.23,148.98c.12-2.16.24-4.32.36-6.48"/>
  <path class="cls-3" d="m30.1,149.36c.15-2.29.3-4.58.45-6.88"/>
  <path class="cls-3" d="m31.08,137.31c.42-7.21.44-12.82.37-16.69-.04-2.37-.14-5.72.28-10.31.3-3.2.74-5.81,1.07-7.55.66-.87,1.42-1.89,2.25-3.04,1.24-1.71,1.72-2.45,2.03-3.55.21-.74.27-1.38.28-1.8,2.99-.06,5.97-.11,8.96-.17.79.02,1.58.04,2.37.06.52,2.07,1.24,5.01,2.07,8.55.73,3.12,1.22,5.21,1.66,7.29,1.68,8.02,2.51,12.03,2.32,14.92-.14,2.17-.51,3.65.25,5.68.6,1.59,1.52,2.53,1.9,4.63.22,1.22.16,2.27.07,2.95"/>
  <path class="cls-3" d="m57.9,148.78c-.26-1.91-.52-3.82-.78-5.73"/>
  <path class="cls-3" d="m59.7,148.66c-.15-.8-.3-1.64-.43-2.5-.15-1.03-.27-2.02-.37-2.98"/>
  <path class="cls-3" d="m58.95,138.35c.17-.73.31-1.84.01-3.1-.45-1.86-1.47-2.28-1.5-3.8-.02-1.01.41-2.43,1.61-3.11,1.08-.61,2.22-.32,2.53-.23,2.64,0,4.78-.06,6.21-.12,5.33-.21,7.91-.59,14.16-.92,2.33-.13,4.23-.19,5.41-.23.58,3.99,1.15,7.98,1.73,11.96"/>
  <path class="cls-3" d="m149.48,119.3c-.35-.37-.8-.86-1.14-1.23-1.2-1.29-2.4-2.58-3.6-3.87-1.46.68-3.69,1.64-6.5,2.55-3.01.97-3.75.93-8.43,2.2-4.33,1.17-4.25,1.36-8.17,2.37-3.32.86-5.96,1.4-7.73,1.76-3.23.65-5.86,1.08-7.29,1.32-.7.11-1.4.22-2.81.44-1.98.3-4.72.73-8.26,1.23-1.73.25-3.9.55-6.41.88.5,3.95.99,7.9,1.49,11.85"/>
  <path class="cls-3" d="m12.57,147.14c.4-1.43.81-2.86,1.21-4.29"/>
  <path class="cls-3" d="m9.57,148.06c.56-1.71,1.12-3.41,1.67-5.12"/>
  <text class="cls-2" transform="translate(54.07 19.95)"><tspan x="0" y="0">Amagerbro</tspan></text>
  <text class="cls-2" transform="translate(89.84 56.63)"><tspan x="0" y="0">Sundbyøsterr</tspan></text>
  <text class="cls-2" transform="translate(38.92 147.1)"><tspan x="0" y="0">Tårnby</tspan></text>
  <text class="cls-2" transform="translate(3.78 116.17)"><tspan x="0" y="0">Ørestad</tspan></text>
  <text class="cls-2" transform="translate(53.91 86.44)"><tspan x="0" y="0">Helse Centret</tspan></text>
</svg>