<?xml version="1.0" encoding="UTF-8"?>
<svg id="Layer_1" data-name="Layer 1" xmlns="http://www.w3.org/2000/svg" viewBox="0 0 321.12 552.14">
  <defs>
    <style>
      .cls-1 {
        fill: none;
        stroke: #b3b792;
        stroke-miterlimit: 10;
        stroke-width: .25px;
      }
    </style>
  </defs>
  <g>
    <path class="cls-1" d="m70.71,552.09c-2.89-6.11-6.59-10.28-9.39-11.73-1.62-.84-3.48-1.43-3.48-1.43-2.28-.72-4.07-.88-4.5-.92-3.08-.33-13.54-3.15-21.59-8.92-7.62-5.46-11.35-12.32-14.08-17.37-4.4-8.12-4.1-11.94-9.39-20.65-2.93-4.82-5.91-8.41-7.98-10.69,3.36.28,8.21,1.03,13.61,3.18,4.19,1.67,8.67,4.16,18.21,12.75,13.79,12.42,20.69,18.63,23.87,28.72,1.81,5.75,1.96,10.79,1.85,13.9"/>
    <path class="cls-1" d="m19.63,497.42l5.59,6.9,11.19,13.05,8.76,8.03c2.64,2.03,5.29,4.07,7.93,6.1,1.58,2.47,3.16,4.95,4.73,7.42"/>
  </g>
  <g>
    <g>
      <path class="cls-1" d="m282.91,67.38c9.1-3.15,12.03-6.3,12.92-8.7.25-.67,1.02-3.09,2.86-5.89.21-.32,1.02-1.53,2.33-3.02,2-2.28,3.06-2.8,4.68-4.35,3.02-2.89,2.53-4.12,5.49-7.46,1.08-1.22,2.79-2.91,5.33-4.57"/>
      <path class="cls-1" d="m291.96,43.13c1.19.82,2.71,2.04,4.19,3.77,1.57,1.84,2.57,3.63,3.2,4.99"/>
      <path class="cls-1" d="m313.01,7.06c-2.27,3.96-2.91,7.26-3.07,9.52-.19,2.59.27,3.43,0,7.42-.2,2.95-.34,4.97-1.28,7.38-.72,1.84-1.35,2.48-3.74,6.11-1.67,2.54-2.97,4.65-3.82,6.07-.03,2.07-.05,4.15-.08,6.22"/>
    </g>
    <path class="cls-1" d="m297.6,4.58c.33,3.1.4,5.86.34,8.18-.06,2.7-.24,2.88-.17,4.99.08,2.59.41,4.74.95,8.09.46,2.88.54,2.78.69,4.22.31,2.98.06,4.21.17,6.37.09,1.7.41,4.15,1.51,7.13"/>
    <g>
      <path class="cls-1" d="m309.23,40.8c1.61-1.13,3.58-1.87,3.8-1.95.73-.27.91-.32,1.18-.36.67-.1,1.19,0,1.9.15.53.11,1.17.24,1.95.57.56.24.92.46,1.61.58.31.06.58.07.76.07-.69.25-1.29.44-1.76.59-.51.16-1.08.3-2.23.6-1.04.27-1.27.32-1.63.33-.48.01-.64-.06-1.38-.14-.76-.08-1.33-.09-1.93-.1-1.56-.02-2.45.14-2.5-.06-.02-.09.14-.21.23-.28Z"/>
      <path class="cls-1" d="m315.93,39.92c-.75-.08-1.34-.02-1.74.04-.41.07-.56.13-1.12.21-.61.08-1.05.11-1.2.12-.58.03-1.47.2-2.87.79"/>
    </g>
    <g>
      <path class="cls-1" d="m298.93,26.86c-.26-.11-.61-.28-1.01-.5-1.18-.67-1.95-1.39-2.39-1.81-.95-.91-1.53-1.73-1.68-1.95-.46-.67-.8-1.16-1.05-1.92-.25-.75-.32-1.47-.37-2-.04-.4-.05-.74-.06-.98.28.15.67.38,1.09.71.19.15.65.52,1.43,1.43.81.95,1.27,1.5,1.71,2.37.24.48.37.9.65,1.75.32.98.53,1.82.67,2.4"/>
      <path class="cls-1" d="m294.14,20.45c.09.23.22.58.4,1,0,0,.28.66.52,1.16.37.77,1.39,2.14,2.86,3.75"/>
    </g>
    <g>
      <path class="cls-1" d="m298.54,50.28c-.19.02-.44.04-.75.03-.9,0-1.58-.18-1.97-.28-.85-.22-1.45-.51-1.6-.59-.48-.24-.84-.41-1.23-.78-.38-.35-.66-.75-.86-1.04-.15-.22-.27-.41-.35-.55.21,0,.51,0,.86.06.16.02.54.09,1.29.37.77.29,1.22.46,1.75.83.29.2.51.4.94.8.5.47.89.88,1.16,1.18"/>
      <path class="cls-1" d="m293.7,48.1c.13.11.32.27.55.45,0,0,.37.29.67.51.46.33,1.5.8,2.87,1.25"/>
    </g>
    <g>
      <path class="cls-1" d="m298.16,20.66c.5-2.51,1.69-4.97,1.83-5.25.45-.91.56-1.12.79-1.41.54-.69,1.12-1.06,1.92-1.57.6-.38,1.31-.83,2.34-1.21.74-.28,1.28-.39,2.04-.89.35-.23.61-.46.77-.61-.42.85-.81,1.57-1.13,2.13-.34.6-.75,1.26-1.56,2.57-.74,1.19-.91,1.44-1.24,1.77-.44.45-.66.53-1.42,1.11-.79.61-1.33,1.11-1.9,1.64-1.48,1.38-2.17,2.33-2.41,2.19-.11-.07-.06-.32-.03-.47Z"/>
      <path class="cls-1" d="m303.67,13.81c-.78.6-1.28,1.18-1.6,1.6-.33.43-.4.63-.87,1.21-.5.62-.89,1.04-1.03,1.19-.51.55-1.21,1.51-1.99,3.32"/>
    </g>
    <g>
      <path class="cls-1" d="m309.19,29.91c.2-.02.49-.05.82-.12.98-.19,1.68-.52,2.08-.72.87-.42,1.46-.86,1.62-.98.47-.36.82-.62,1.17-1.1.34-.46.56-.95.71-1.31.12-.27.2-.5.26-.67-.23.04-.55.11-.92.24-.17.06-.57.21-1.32.67-.78.48-1.23.75-1.73,1.26-.28.28-.47.54-.85,1.07-.45.61-.79,1.14-1.02,1.52"/>
      <path class="cls-1" d="m313.99,26.54c-.11.14-.29.35-.5.6,0,0-.34.4-.63.69-.43.45-1.46,1.18-2.85,1.96"/>
    </g>
    <g>
      <path class="cls-1" d="m297.69,17.16c-.12.12-.86-.5-1.75-.88-.19-.08-.41-.17-.41-.17-.29-.11-.48-.17-.73-.28-.46-.18-1.73-.69-2.75-1.72-.86-.86-1.26-1.81-1.47-2.43.87.04,1.5.27,1.89.45.26.12.73.47,1.67,1.18.95.71,1.15.9,1.34,1.1.35.37.34.45.77.89.5.51.62.53.93.89.29.35.61.86.51.96Z"/>
      <path class="cls-1" d="m293.67,14.19c.19.19.4.38.63.57,0,0,.2.16.39.31.62.47,1.2.66,1.79,1.02.28.17.67.44,1.1.87"/>
    </g>
    <g>
      <path class="cls-1" d="m307.08,34.3c.12-.04,0-.74.08-1.47.02-.16.04-.33.04-.33.03-.23.06-.37.09-.58.05-.37.2-1.39-.09-2.43-.24-.88-.71-1.5-1.04-1.86-.3.58-.38,1.08-.41,1.4-.02.21.04.65.14,1.53.11.88.16,1.08.22,1.28.11.37.17.39.29.83.15.52.11.6.24.94.12.32.33.72.43.69Z"/>
      <path class="cls-1" d="m306.65,30.57c.05.19.1.4.13.62,0,0,.03.19.06.37.07.58-.02,1.03,0,1.54,0,.24.04.6.16,1.04"/>
    </g>
    <g>
      <path class="cls-1" d="m309.33,27.7c-1.01-1-1.8-2.39-1.9-2.56-.29-.52-.36-.65-.43-.86-.17-.51-.18-.95-.18-1.56,0-.45-.01-.99.09-1.7.08-.51.18-.86.16-1.43,0-.27-.04-.48-.07-.62.27.49.49.92.66,1.26.18.37.37.79.74,1.64.34.76.41.94.47,1.22.08.38.06.53.11,1.14.06.63.14,1.09.22,1.57.22,1.25.46,1.92.33,2.02-.06.04-.16-.06-.22-.12Z"/>
      <path class="cls-1" d="m307.73,22.56c.06.62.18,1.08.29,1.38.11.31.17.41.31.85.15.47.23.81.26.94.11.45.36,1.13.96,2.1"/>
    </g>
    <g>
      <path class="cls-1" d="m299.25,29.13h0c.03-.05.07-.13.12-.24.06-.16.08-.29.08-.32.04-.22.28-.95.73-1.5.42-.52.93-.76,1.3-.93.6-.28.87-.24,1.51-.58.36-.19.62-.39.8-.53-.03.24-.11.58-.28.96-.14.29-.33.6-.99,1.25-.94.93-1.42,1.4-2.15,1.58-.42.11-.78.1-1,.07"/>
      <path class="cls-1" d="m302.49,26.34l-.52.37-.98.74-.61.59c-.16.18-.31.36-.47.54-.18.1-.37.2-.55.31"/>
    </g>
    <g>
      <path class="cls-1" d="m310,23.3h0c.02-.05.06-.14.09-.25.04-.17.05-.29.05-.32.01-.22.19-.98.57-1.57.37-.56.85-.85,1.2-1.06.57-.34.84-.33,1.45-.73.34-.22.58-.45.74-.6-.01.24-.05.59-.19.98-.11.3-.27.63-.86,1.34-.85,1.02-1.27,1.53-1.98,1.79-.41.15-.77.17-.99.17"/>
      <path class="cls-1" d="m312.94,20.2l-.48.42-.9.84-.55.65c-.14.19-.28.39-.41.58-.17.12-.34.24-.52.36"/>
    </g>
    <g>
      <path class="cls-1" d="m296.5,47.17h0c-.01-.06-.04-.15-.08-.26-.07-.16-.14-.26-.16-.29-.12-.18-.45-.88-.51-1.59-.05-.67.15-1.19.3-1.57.24-.61.46-.77.69-1.47.13-.38.19-.71.22-.93.14.2.32.5.45.89.1.31.17.67.14,1.58-.04,1.33-.06,1.99-.47,2.63-.23.36-.5.61-.67.74"/>
      <path class="cls-1" d="m296.92,42.92l-.12.62-.2,1.21-.03.85c.01.24.02.48.03.71-.06.2-.12.4-.19.6"/>
    </g>
    <g>
      <path class="cls-1" d="m297.93,12.37c-.04-.05-.09-.14-.13-.24-.08-.17-.12-.34-.14-.57-.04-.35-.01-.62-.01-.63.05-.64-.3-2.26-1-3.88-.33-.76-.49-1.13-.82-1.58-.53-.72-.94-.88-1.54-1.62-.31-.38-.65-.89-.95-1.54-.14.35-.31.88-.32,1.57-.01.53.07,1.15.66,2.7.86,2.24,1.29,3.36,2.42,4.39.64.58,1.26.95,1.7,1.17"/>
      <path class="cls-1" d="m294.89,6.4c.12.81.35,1.42.54,1.82.25.54.34.52.97,1.68.31.56.41.79.69,1.24.28.43.53.77.7.99"/>
    </g>
    <g>
      <path class="cls-1" d="m310.26,17.85c1.13-.87,2.09-2.15,2.21-2.29.36-.48.44-.6.53-.79.23-.49.3-.92.38-1.53.06-.45.14-.98.12-1.7-.01-.51-.07-.87.03-1.44.04-.26.1-.47.14-.61-.33.45-.61.85-.82,1.17-.23.34-.47.74-.95,1.53-.43.71-.52.88-.62,1.15-.13.37-.13.52-.26,1.12-.14.62-.27,1.06-.42,1.53-.38,1.21-.7,1.85-.59,1.96.05.05.17-.04.24-.09Z"/>
      <path class="cls-1" d="m312.5,12.95c-.14.61-.32,1.05-.46,1.33-.15.3-.23.39-.42.8-.2.44-.33.78-.38.9-.17.44-.5,1.07-1.22,1.96"/>
    </g>
    <g>
      <path class="cls-1" d="m293.82,44.58c0-.13-.72-.17-1.41-.43-.15-.06-.31-.12-.31-.12-.21-.09-.35-.15-.54-.23-.35-.14-1.3-.52-2.38-.5-.91.02-1.62.33-2.06.56.5.43.95.63,1.26.73.2.07.64.12,1.52.23.88.11,1.09.11,1.3.1.38-.02.42-.07.88-.08.54-.02.61.03.97,0,.34-.04.78-.15.78-.25Z"/>
      <path class="cls-1" d="m290.1,44.1c.2,0,.41,0,.64.02,0,0,.19.01.37.03.58.07.99.26,1.5.38.24.05.59.11,1.05.1"/>
    </g>
    <g>
      <path class="cls-1" d="m305.55,36.53c.06-.03-.07-.4-.08-.8,0-.09,0-.18,0-.18,0-.13,0-.21,0-.32,0-.2-.01-.76-.25-1.3-.2-.45-.51-.74-.72-.91-.11.34-.11.61-.1.79,0,.12.08.35.21.81.13.47.18.57.23.67.09.19.12.2.23.42.12.27.11.31.21.48.09.16.24.36.29.34Z"/>
      <path class="cls-1" d="m305,34.56c.04.1.09.21.13.32,0,0,.03.1.06.19.09.3.08.55.13.83.02.13.07.32.17.55"/>
    </g>
    <g>
      <path class="cls-1" d="m309.84,20.01c-.47-.28-.9-.73-.94-.78-.16-.17-.19-.21-.24-.28-.11-.18-.15-.34-.21-.57-.04-.17-.1-.37-.12-.64-.02-.2-.01-.34-.07-.55-.03-.1-.06-.18-.08-.23.15.16.27.3.36.41.1.12.21.26.43.54.2.25.24.31.29.41.07.13.07.19.15.42.08.23.15.39.23.57.2.45.35.68.31.72-.02.02-.07,0-.09-.02Z"/>
      <path class="cls-1" d="m308.76,18.23c.08.23.17.39.24.49.07.11.1.14.19.29.1.16.16.28.18.33.08.16.24.39.55.69"/>
    </g>
    <g>
      <path class="cls-1" d="m310.33,38.66c-.29-1.15-.28-2.41-.28-2.56,0-.47.01-.58.05-.74.09-.4.26-.67.49-1.04.17-.28.38-.61.73-.97.25-.26.46-.42.67-.78.1-.16.16-.31.2-.41,0,.44-.03.82-.05,1.12-.02.32-.06.67-.14,1.38-.07.64-.09.78-.16.99-.09.27-.17.35-.37.75-.21.41-.33.73-.47,1.07-.34.87-.44,1.41-.57,1.39-.06,0-.09-.12-.11-.19Z"/>
      <path class="cls-1" d="m311.27,34.71c-.2.41-.3.75-.35.99-.05.25-.04.34-.12.68-.08.36-.16.61-.19.7-.1.33-.2.87-.17,1.78"/>
    </g>
    <g>
      <path class="cls-1" d="m308.13,42.53c-.08-.09-.19-.21-.31-.37-.35-.47-.52-.88-.62-1.11-.21-.52-.29-.93-.31-1.04-.06-.33-.1-.58-.06-.91.04-.32.15-.61.23-.82.06-.16.12-.29.16-.38.08.11.2.26.3.46.05.09.16.31.3.8.14.5.23.79.24,1.2,0,.22-.02.41-.07.77-.06.43-.13.78-.19,1.02"/>
      <path class="cls-1" d="m307.42,39.25c0,.1-.02.26-.03.45,0,0-.01.3-.01.53,0,.35.15,1.06.44,1.93"/>
    </g>
    <g>
      <path class="cls-1" d="m313.6,35.73c.51-.2,1.12-.28,1.19-.28.23-.02.28-.03.37-.02.21.02.36.08.58.17.16.07.35.15.59.29.17.1.28.19.48.27.1.04.18.06.23.07-.21.02-.4.03-.55.04-.16,0-.34.01-.69.01-.32,0-.39,0-.5-.02-.15-.03-.2-.06-.42-.13-.23-.08-.41-.12-.59-.16-.48-.11-.75-.13-.76-.19,0-.03.05-.05.08-.06Z"/>
      <path class="cls-1" d="m315.66,35.94c-.23-.07-.41-.1-.53-.11-.13,0-.17,0-.35-.02-.19-.02-.32-.04-.37-.05-.18-.03-.45-.05-.89.02"/>
    </g>
    <g>
      <path class="cls-1" d="m312.99,7.1c.78-.92,1.84-1.66,1.96-1.75.39-.27.49-.33.65-.4.38-.16.71-.18,1.15-.21.33-.02.73-.04,1.24.03.37.05.62.13,1.05.1.2-.02.35-.05.46-.08-.37.25-.7.46-.96.62-.28.17-.6.35-1.23.7-.58.32-.7.39-.92.45-.28.08-.39.07-.84.13-.47.07-.8.15-1.16.24-.93.23-1.43.46-1.49.35-.03-.05.05-.15.1-.2Z"/>
      <path class="cls-1" d="m316.84,5.53c-.46.07-.8.19-1.03.29-.24.1-.31.17-.64.3-.35.14-.61.23-.7.26-.34.11-.84.35-1.58.91"/>
    </g>
    <g>
      <path class="cls-1" d="m311.04,10.85c-.2-.51-.28-1.12-.28-1.19-.02-.23-.03-.28-.02-.37.02-.21.08-.36.17-.58.07-.16.15-.35.29-.59.1-.17.19-.28.27-.48.04-.1.06-.18.07-.23.02.21.03.4.04.55,0,.16.01.34.01.69,0,.32,0,.39-.02.5-.03.15-.06.2-.13.42-.08.23-.12.41-.16.59-.11.48-.13.75-.19.76-.03,0-.05-.05-.06-.08Z"/>
      <path class="cls-1" d="m311.26,8.79c-.07.23-.1.41-.11.53,0,.13,0,.17-.02.35-.02.19-.04.32-.05.37-.03.18-.05.45.02.89"/>
    </g>
    <g>
      <path class="cls-1" d="m297.98,14.8c.06.03.26-.31.54-.59.06-.06.13-.12.13-.12.09-.08.16-.13.24-.21.15-.14.56-.51.81-1.05.2-.45.22-.87.21-1.14-.33.14-.53.32-.66.44-.08.08-.21.29-.47.69-.26.41-.31.51-.35.61-.08.19-.07.22-.17.45-.12.27-.16.29-.23.48-.06.17-.11.42-.06.44Z"/>
      <path class="cls-1" d="m299.09,13.08c-.05.1-.1.2-.16.31,0,0-.05.09-.1.17-.17.27-.36.42-.54.64-.08.1-.19.26-.29.49"/>
    </g>
    <g>
      <path class="cls-1" d="m297.63,4.83c-.02-.16-.04-.38-.09-.63-.15-.75-.4-1.26-.55-1.55-.32-.64-.65-1.05-.74-1.16-.27-.33-.47-.57-.83-.79-.35-.21-.72-.33-.99-.41-.21-.06-.38-.1-.51-.13.03.18.09.42.19.7.05.13.16.42.51.96.36.56.57.88.96,1.21.21.18.41.3.81.54.46.28.87.48,1.15.62"/>
      <path class="cls-1" d="m295.07,1.45c.11.07.27.18.46.33,0,0,.3.22.52.41.34.29.89,1.01,1.49,2.01"/>
    </g>
    <g>
      <path class="cls-1" d="m298.11,8.78c.79-.5,1.48-1.23,1.56-1.32.25-.27.31-.34.38-.45.17-.28.22-.52.28-.86.05-.25.11-.56.11-.96,0-.29-.03-.49.04-.81.03-.15.08-.27.11-.35-.23.26-.43.48-.58.67-.16.2-.33.42-.67.87-.31.41-.37.5-.44.66-.09.21-.09.29-.19.63-.1.35-.2.6-.31.87-.28.69-.51,1.05-.43,1.11.04.03.12-.02.16-.05Z"/>
      <path class="cls-1" d="m299.73,6c-.1.34-.24.59-.34.76-.11.17-.16.22-.3.46-.15.25-.24.44-.27.51-.12.25-.36.61-.87,1.12"/>
    </g>
    <g>
      <path class="cls-1" d="m299.55,35.02c.1-.08-.31-.68-.52-1.37-.05-.15-.09-.32-.09-.32-.06-.22-.09-.37-.15-.57-.1-.36-.38-1.35-1.06-2.19-.57-.71-1.25-1.09-1.7-1.29-.04.65.08,1.14.19,1.45.07.2.3.58.75,1.34.45.77.58.93.71,1.09.25.29.31.29.6.65.34.42.34.5.59.76.24.25.6.52.67.46Z"/>
      <path class="cls-1" d="m297.65,31.78c.12.16.25.33.37.52,0,0,.11.16.2.31.3.5.4.95.62,1.42.1.22.27.54.56.89"/>
    </g>
    <g>
      <path class="cls-1" d="m305.23,45.88c.02.07.4-.04.8-.03.09,0,.18,0,.18,0,.13,0,.21.02.32.02.2.01.76.04,1.31-.16.46-.17.78-.45.96-.65-.33-.13-.6-.16-.78-.16-.12,0-.35.05-.82.15-.47.1-.58.13-.69.18-.19.08-.2.11-.44.2-.27.1-.32.09-.5.17-.17.08-.38.21-.36.27Z"/>
      <path class="cls-1" d="m307.23,45.47c-.1.04-.21.07-.33.1,0,0-.1.03-.2.05-.31.07-.56.04-.84.07-.13.01-.32.05-.56.13"/>
    </g>
    <g>
      <path class="cls-1" d="m291.99,43.15s-.08-.06-.13-.1c-.19-.14-.34-.23-.37-.26-.28-.22-.48-.42-.61-.55-.38-.4-.61-.76-.66-.85-.18-.29-.31-.5-.39-.83-.08-.32-.08-.62-.08-.85,0-.17,0-.31.01-.41.12.07.28.17.45.32.08.07.26.23.57.63.32.41.5.65.66,1.03.09.21.13.39.22.74.1.42.16.77.2,1.02"/>
      <path class="cls-1" d="m290.42,40.49c.03.1.07.25.14.43,0,0,.1.28.18.5.13.33.53.93,1.11,1.63"/>
    </g>
    <g>
      <path class="cls-1" d="m316.51,33.39c.51-.2,1.12-.28,1.19-.28.23-.02.28-.03.37-.02.21.02.36.08.58.17.16.07.35.15.59.29.17.1.28.19.48.27.1.04.18.06.23.07-.21.02-.4.03-.55.04-.16,0-.34.01-.69.01-.32,0-.39,0-.5-.02-.15-.03-.2-.06-.42-.13-.23-.08-.41-.12-.59-.16-.48-.11-.75-.13-.76-.19,0-.03.05-.05.08-.06Z"/>
      <path class="cls-1" d="m318.58,33.6c-.23-.07-.41-.1-.53-.11-.13,0-.17,0-.35-.02-.19-.02-.32-.04-.37-.05-.18-.03-.45-.05-.89.02"/>
    </g>
    <g>
      <path class="cls-1" d="m314.6,34.74c-.06-.04.12-.39.19-.78.02-.08.03-.18.03-.18.02-.12.03-.2.04-.32.03-.2.12-.75.43-1.25.26-.42.6-.67.83-.81.06.35.03.62,0,.79-.02.11-.12.33-.32.77-.2.44-.25.54-.32.63-.12.17-.15.18-.28.39-.16.25-.15.29-.27.45-.11.15-.29.32-.33.29Z"/>
      <path class="cls-1" d="m315.41,32.87c-.06.09-.11.19-.17.3,0,0-.05.09-.09.18-.13.29-.15.54-.24.8-.04.13-.11.31-.25.52"/>
    </g>
    <g>
      <path class="cls-1" d="m295.99,57.9c-.4-.51-.68-1.15-.71-1.22-.1-.24-.12-.29-.14-.38-.04-.22-.02-.39.02-.63.03-.18.06-.39.15-.65.07-.19.14-.31.16-.54.01-.1.01-.19,0-.25.09.22.17.42.22.57.06.17.12.35.24.72.11.34.13.41.14.53.01.16,0,.21-.02.46-.01.25,0,.44,0,.64.02.51.09.8.02.82-.03,0-.07-.04-.1-.07Z"/>
      <path class="cls-1" d="m295.59,55.71c-.01.25.02.44.04.57.03.13.05.18.09.37.04.2.05.34.06.39.02.19.09.48.31.93"/>
    </g>
    <g>
      <path class="cls-1" d="m294.97,60.37c-.07-.17-.18-.41-.33-.67-.44-.79-.91-1.3-1.19-1.6-.6-.64-1.14-1.03-1.28-1.13-.44-.31-.76-.54-1.27-.71-.49-.17-.98-.22-1.32-.26-.27-.03-.49-.04-.65-.04.1.19.25.45.46.73.1.13.34.43.94.96.62.54.98.85,1.56,1.15.32.16.6.25,1.15.44.65.22,1.2.36,1.59.46"/>
      <path class="cls-1" d="m290.75,57.15c.15.06.38.15.66.27,0,0,.43.19.77.35.51.25,1.41.94,2.47,1.92"/>
    </g>
  </g>
</svg>